SvasthiBeta2.sfd
<glyph name="exclam" format="1">
  <advance width="176" height="176"/>
  <unicode hex="0021"/>
  <outline>
    <contour>
      <point x="58" y="706" type="line" smooth="yes"/>
      <point x="58" y="722"/>
      <point x="67" y="740"/>
      <point x="88" y="740" type="curve" smooth="yes"/>
      <point x="109" y="740"/>
      <point x="118" y="722"/>
      <point x="118" y="706" type="curve" smooth="yes"/>
      <point x="118" y="186" type="line" smooth="yes"/>
      <point x="118" y="159"/>
      <point x="110" y="140"/>
      <point x="88" y="140" type="curve" smooth="yes"/>
      <point x="67" y="140"/>
      <point x="58" y="158"/>
      <point x="58" y="186" type="curve" smooth="yes"/>
    </contour>
    <component base="period"/>
  </outline>
</glyph>
<glyph name="numbersign" format="1">
  <advance width="640" height="640"/>
  <unicode hex="0023"/>
  <outline>
    <contour>
      <point x="437" y="356" type="curve"/>
      <point x="257" y="356" type="line"/>
      <point x="238" y="297"/>
      <point x="221" y="243"/>
      <point x="203" y="185" type="curve"/>
      <point x="384" y="185" type="line"/>
      <point x="402" y="243"/>
      <point x="419" y="298"/>
    </contour>
    <contour>
      <point x="497" y="356" type="line"/>
      <point x="478" y="297"/>
      <point x="461" y="243"/>
      <point x="443" y="185" type="curve"/>
      <point x="519" y="185" type="line" smooth="yes"/>
      <point x="536" y="185"/>
      <point x="549" y="171"/>
      <point x="549" y="155" type="curve" smooth="yes"/>
      <point x="549" y="139"/>
      <point x="535" y="125"/>
      <point x="519" y="125" type="curve" smooth="yes"/>
      <point x="424" y="125" type="line"/>
      <point x="412" y="87"/>
      <point x="400" y="47"/>
      <point x="386" y="3" type="curve" smooth="yes"/>
      <point x="381" y="-13"/>
      <point x="369" y="-20"/>
      <point x="357" y="-20" type="curve" smooth="yes"/>
      <point x="343" y="-20"/>
      <point x="330" y="-9"/>
      <point x="330" y="8" type="curve" smooth="yes"/>
      <point x="330" y="12"/>
      <point x="331" y="16"/>
      <point x="332" y="20" type="curve" smooth="yes"/>
      <point x="344" y="58"/>
      <point x="355" y="92"/>
      <point x="365" y="125" type="curve"/>
      <point x="184" y="125" type="line"/>
      <point x="172" y="87"/>
      <point x="160" y="47"/>
      <point x="146" y="3" type="curve" smooth="yes"/>
      <point x="141" y="-13"/>
      <point x="129" y="-20"/>
      <point x="117" y="-20" type="curve" smooth="yes"/>
      <point x="103" y="-20"/>
      <point x="90" y="-9"/>
      <point x="90" y="8" type="curve" smooth="yes"/>
      <point x="90" y="12"/>
      <point x="91" y="16"/>
      <point x="92" y="20" type="curve" smooth="yes"/>
      <point x="104" y="58"/>
      <point x="115" y="92"/>
      <point x="125" y="125" type="curve"/>
      <point x="57" y="125" type="line" smooth="yes"/>
      <point x="41" y="125"/>
      <point x="27" y="139"/>
      <point x="27" y="155" type="curve" smooth="yes"/>
      <point x="27" y="171"/>
      <point x="40" y="185"/>
      <point x="57" y="185" type="curve" smooth="yes"/>
      <point x="144" y="185" type="line"/>
      <point x="162" y="243"/>
      <point x="179" y="298"/>
      <point x="197" y="356" type="curve"/>
      <point x="121" y="356" type="line" smooth="yes"/>
      <point x="105" y="356"/>
      <point x="91" y="370"/>
      <point x="91" y="386" type="curve" smooth="yes"/>
      <point x="91" y="402"/>
      <point x="104" y="416"/>
      <point x="121" y="416" type="curve" smooth="yes"/>
      <point x="216" y="416" type="line"/>
      <point x="228" y="453"/>
      <point x="240" y="492"/>
      <point x="254" y="536" type="curve" smooth="yes"/>
      <point x="259" y="552"/>
      <point x="271" y="559"/>
      <point x="283" y="559" type="curve" smooth="yes"/>
      <point x="297" y="559"/>
      <point x="310" y="549"/>
      <point x="310" y="532" type="curve" smooth="yes"/>
      <point x="310" y="528"/>
      <point x="310" y="524"/>
      <point x="308" y="519" type="curve" smooth="yes"/>
      <point x="297" y="482"/>
      <point x="286" y="448"/>
      <point x="276" y="416" type="curve"/>
      <point x="456" y="416" type="line"/>
      <point x="468" y="453"/>
      <point x="480" y="492"/>
      <point x="494" y="536" type="curve" smooth="yes"/>
      <point x="499" y="552"/>
      <point x="511" y="559"/>
      <point x="523" y="559" type="curve" smooth="yes"/>
      <point x="537" y="559"/>
      <point x="550" y="549"/>
      <point x="550" y="532" type="curve" smooth="yes"/>
      <point x="550" y="528"/>
      <point x="550" y="524"/>
      <point x="548" y="519" type="curve" smooth="yes"/>
      <point x="537" y="482"/>
      <point x="526" y="448"/>
      <point x="516" y="416" type="curve"/>
      <point x="583" y="416" type="line" smooth="yes"/>
      <point x="600" y="416"/>
      <point x="613" y="402"/>
      <point x="613" y="386" type="curve" smooth="yes"/>
      <point x="613" y="370"/>
      <point x="599" y="356"/>
      <point x="583" y="356" type="curve" smooth="yes"/>
    </contour>
  </outline>
</glyph>
<glyph name="quotesingle" format="1">
  <advance width="172" height="172"/>
  <unicode hex="0027"/>
  <outline>
    <contour>
      <point x="118" y="810" type="curve" smooth="yes"/>
      <point x="118" y="779"/>
      <point x="103" y="757"/>
      <point x="86" y="739" type="curve"/>
      <point x="70" y="758"/>
      <point x="54" y="779"/>
      <point x="54" y="810" type="curve" smooth="yes"/>
      <point x="54" y="828"/>
      <point x="68" y="844"/>
      <point x="86" y="844" type="curve" smooth="yes"/>
      <point x="104" y="844"/>
      <point x="118" y="828"/>
    </contour>
  </outline>
</glyph>
<glyph name="parenleft" format="1">
  <advance width="311" height="311"/>
  <unicode hex="0028"/>
  <outline>
    <contour>
      <point x="87" y="274" type="curve" smooth="yes"/>
      <point x="87" y="500"/>
      <point x="165" y="697"/>
      <point x="277" y="822" type="curve" smooth="yes"/>
      <point x="284" y="830"/>
      <point x="287" y="840"/>
      <point x="287" y="849" type="curve" smooth="yes"/>
      <point x="287" y="866"/>
      <point x="275" y="877"/>
      <point x="258" y="877" type="curve" smooth="yes"/>
      <point x="249" y="877"/>
      <point x="238" y="871"/>
      <point x="232" y="864" type="curve" smooth="yes"/>
      <point x="116" y="730"/>
      <point x="26" y="518"/>
      <point x="26" y="274" type="curve" smooth="yes"/>
      <point x="26" y="30"/>
      <point x="116" y="-182"/>
      <point x="232" y="-316" type="curve" smooth="yes"/>
      <point x="238" y="-323"/>
      <point x="249" y="-329"/>
      <point x="258" y="-329" type="curve" smooth="yes"/>
      <point x="275" y="-329"/>
      <point x="287" y="-318"/>
      <point x="287" y="-301" type="curve" smooth="yes"/>
      <point x="287" y="-292"/>
      <point x="284" y="-282"/>
      <point x="277" y="-274" type="curve" smooth="yes"/>
      <point x="165" y="-149"/>
      <point x="87" y="48"/>
    </contour>
    <contour>
      <point x="87" y="274" type="curve" smooth="yes"/>
      <point x="87" y="500"/>
      <point x="165" y="697"/>
      <point x="277" y="822" type="curve" smooth="yes"/>
      <point x="284" y="830"/>
      <point x="287" y="840"/>
      <point x="287" y="849" type="curve" smooth="yes"/>
      <point x="287" y="866"/>
      <point x="275" y="877"/>
      <point x="258" y="877" type="curve" smooth="yes"/>
      <point x="249" y="877"/>
      <point x="238" y="871"/>
      <point x="232" y="864" type="curve" smooth="yes"/>
      <point x="116" y="730"/>
      <point x="26" y="518"/>
      <point x="26" y="274" type="curve" smooth="yes"/>
      <point x="26" y="30"/>
      <point x="116" y="-182"/>
      <point x="232" y="-316" type="curve" smooth="yes"/>
      <point x="238" y="-323"/>
      <point x="249" y="-329"/>
      <point x="258" y="-329" type="curve" smooth="yes"/>
      <point x="275" y="-329"/>
      <point x="287" y="-318"/>
      <point x="287" y="-301" type="curve" smooth="yes"/>
      <point x="287" y="-292"/>
      <point x="284" y="-282"/>
      <point x="277" y="-274" type="curve" smooth="yes"/>
      <point x="165" y="-149"/>
      <point x="87" y="48"/>
    </contour>
  </outline>
</glyph>
<glyph name="parenright" format="1">
  <advance width="311" height="311"/>
  <unicode hex="0029"/>
  <outline>
    <contour>
      <point x="224" y="274" type="curve" smooth="yes"/>
      <point x="224" y="500"/>
      <point x="146" y="697"/>
      <point x="34" y="822" type="curve" smooth="yes"/>
      <point x="27" y="830"/>
      <point x="24" y="840"/>
      <point x="24" y="849" type="curve" smooth="yes"/>
      <point x="24" y="866"/>
      <point x="36" y="877"/>
      <point x="53" y="877" type="curve" smooth="yes"/>
      <point x="62" y="877"/>
      <point x="73" y="871"/>
      <point x="79" y="864" type="curve" smooth="yes"/>
      <point x="195" y="730"/>
      <point x="285" y="518"/>
      <point x="285" y="274" type="curve" smooth="yes"/>
      <point x="285" y="30"/>
      <point x="195" y="-182"/>
      <point x="79" y="-316" type="curve" smooth="yes"/>
      <point x="73" y="-323"/>
      <point x="62" y="-329"/>
      <point x="53" y="-329" type="curve" smooth="yes"/>
      <point x="36" y="-329"/>
      <point x="24" y="-318"/>
      <point x="24" y="-301" type="curve" smooth="yes"/>
      <point x="24" y="-292"/>
      <point x="27" y="-282"/>
      <point x="34" y="-274" type="curve" smooth="yes"/>
      <point x="146" y="-149"/>
      <point x="224" y="48"/>
    </contour>
    <contour>
      <point x="224" y="274" type="curve" smooth="yes"/>
      <point x="224" y="500"/>
      <point x="146" y="697"/>
      <point x="34" y="822" type="curve" smooth="yes"/>
      <point x="27" y="830"/>
      <point x="24" y="840"/>
      <point x="24" y="849" type="curve" smooth="yes"/>
      <point x="24" y="866"/>
      <point x="36" y="877"/>
      <point x="53" y="877" type="curve" smooth="yes"/>
      <point x="62" y="877"/>
      <point x="73" y="871"/>
      <point x="79" y="864" type="curve" smooth="yes"/>
      <point x="195" y="730"/>
      <point x="285" y="518"/>
      <point x="285" y="274" type="curve" smooth="yes"/>
      <point x="285" y="30"/>
      <point x="195" y="-182"/>
      <point x="79" y="-316" type="curve" smooth="yes"/>
      <point x="73" y="-323"/>
      <point x="62" y="-329"/>
      <point x="53" y="-329" type="curve" smooth="yes"/>
      <point x="36" y="-329"/>
      <point x="24" y="-318"/>
      <point x="24" y="-301" type="curve" smooth="yes"/>
      <point x="24" y="-292"/>
      <point x="27" y="-282"/>
      <point x="34" y="-274" type="curve" smooth="yes"/>
      <point x="146" y="-149"/>
      <point x="224" y="48"/>
    </contour>
  </outline>
</glyph>
<glyph name="asterisk" format="1">
  <advance width="506" height="506"/>
  <unicode hex="002A"/>
  <outline>
    <contour>
      <point x="223" y="320" type="line"/>
      <point x="223" y="499" type="line" smooth="yes"/>
      <point x="223" y="516"/>
      <point x="237" y="529"/>
      <point x="253" y="529" type="curve" smooth="yes"/>
      <point x="269" y="529"/>
      <point x="283" y="515"/>
      <point x="283" y="499" type="curve" smooth="yes"/>
      <point x="283" y="320" type="line"/>
      <point x="438" y="409" type="line" smooth="yes"/>
      <point x="453" y="417"/>
      <point x="471" y="412"/>
      <point x="479" y="398" type="curve" smooth="yes"/>
      <point x="487" y="384"/>
      <point x="482" y="366"/>
      <point x="468" y="358" type="curve" smooth="yes"/>
      <point x="313" y="268" type="line"/>
      <point x="468" y="178" type="line" smooth="yes"/>
      <point x="482" y="170"/>
      <point x="487" y="152"/>
      <point x="479" y="138" type="curve" smooth="yes"/>
      <point x="471" y="124"/>
      <point x="453" y="119"/>
      <point x="438" y="127" type="curve" smooth="yes"/>
      <point x="283" y="216" type="line"/>
      <point x="283" y="37" type="line" smooth="yes"/>
      <point x="283" y="21"/>
      <point x="269" y="7"/>
      <point x="253" y="7" type="curve" smooth="yes"/>
      <point x="237" y="7"/>
      <point x="223" y="20"/>
      <point x="223" y="37" type="curve" smooth="yes"/>
      <point x="223" y="216" type="line"/>
      <point x="68" y="127" type="line" smooth="yes"/>
      <point x="54" y="119"/>
      <point x="35" y="124"/>
      <point x="27" y="138" type="curve" smooth="yes"/>
      <point x="19" y="152"/>
      <point x="23" y="170"/>
      <point x="38" y="178" type="curve" smooth="yes"/>
      <point x="193" y="268" type="line"/>
      <point x="38" y="358" type="line" smooth="yes"/>
      <point x="23" y="366"/>
      <point x="19" y="384"/>
      <point x="27" y="398" type="curve" smooth="yes"/>
      <point x="35" y="412"/>
      <point x="54" y="417"/>
      <point x="68" y="409" type="curve" smooth="yes"/>
    </contour>
  </outline>
</glyph>
<glyph name="plus" format="1">
  <advance width="396" height="396"/>
  <unicode hex="002B"/>
  <outline>
    <contour>
      <point x="228" y="308" type="line"/>
      <point x="339" y="308" type="line" smooth="yes"/>
      <point x="356" y="308"/>
      <point x="369" y="294"/>
      <point x="369" y="278" type="curve" smooth="yes"/>
      <point x="369" y="262"/>
      <point x="355" y="248"/>
      <point x="339" y="248" type="curve" smooth="yes"/>
      <point x="228" y="248" type="line"/>
      <point x="228" y="127" type="line" smooth="yes"/>
      <point x="228" y="111"/>
      <point x="214" y="97"/>
      <point x="198" y="97" type="curve" smooth="yes"/>
      <point x="182" y="97"/>
      <point x="168" y="110"/>
      <point x="168" y="127" type="curve" smooth="yes"/>
      <point x="168" y="248" type="line"/>
      <point x="57" y="248" type="line" smooth="yes"/>
      <point x="41" y="248"/>
      <point x="27" y="262"/>
      <point x="27" y="278" type="curve" smooth="yes"/>
      <point x="27" y="294"/>
      <point x="40" y="308"/>
      <point x="57" y="308" type="curve" smooth="yes"/>
      <point x="168" y="308" type="line"/>
      <point x="168" y="429" type="line" smooth="yes"/>
      <point x="168" y="446"/>
      <point x="182" y="459"/>
      <point x="198" y="459" type="curve" smooth="yes"/>
      <point x="214" y="459"/>
      <point x="228" y="445"/>
      <point x="228" y="429" type="curve" smooth="yes"/>
    </contour>
  </outline>
</glyph>
<glyph name="comma" format="1">
  <advance width="172" height="172"/>
  <unicode hex="002C"/>
  <outline>
    <contour>
      <point x="119" y="23" type="curve" smooth="yes"/>
      <point x="119" y="-8"/>
      <point x="96" y="-61"/>
      <point x="61" y="-61" type="curve" smooth="yes"/>
      <point x="58" y="-61"/>
      <point x="57" y="-60"/>
      <point x="57" y="-58" type="curve" smooth="yes"/>
      <point x="57" y="-52"/>
      <point x="67" y="-38"/>
      <point x="67" y="-18" type="curve" smooth="yes"/>
      <point x="67" y="-8"/>
      <point x="65" y="3"/>
      <point x="58" y="16" type="curve" smooth="yes"/>
      <point x="56" y="20"/>
      <point x="54" y="27"/>
      <point x="54" y="32" type="curve" smooth="yes"/>
      <point x="54" y="50"/>
      <point x="68" y="64"/>
      <point x="86" y="64" type="curve" smooth="yes"/>
      <point x="107" y="64"/>
      <point x="119" y="46"/>
    </contour>
  </outline>
</glyph>
<glyph name="hyphen" format="1">
  <advance width="396" height="396"/>
  <unicode hex="002D"/>
  <outline>
    <contour>
      <point x="57" y="308" type="curve" smooth="yes"/>
      <point x="339" y="308" type="line" smooth="yes"/>
      <point x="356" y="308"/>
      <point x="369" y="294"/>
      <point x="369" y="278" type="curve" smooth="yes"/>
      <point x="369" y="262"/>
      <point x="355" y="248"/>
      <point x="339" y="248" type="curve" smooth="yes"/>
      <point x="57" y="248" type="line" smooth="yes"/>
      <point x="41" y="248"/>
      <point x="27" y="262"/>
      <point x="27" y="278" type="curve" smooth="yes"/>
      <point x="27" y="294"/>
      <point x="40" y="308"/>
    </contour>
  </outline>
</glyph>
<glyph name="period" format="1">
  <advance width="176" height="176"/>
  <unicode hex="002E"/>
  <outline>
    <contour>
      <point x="54" y="33" type="curve" smooth="yes"/>
      <point x="54" y="52"/>
      <point x="69" y="68"/>
      <point x="88" y="68" type="curve" smooth="yes"/>
      <point x="107" y="68"/>
      <point x="122" y="52"/>
      <point x="122" y="33" type="curve" smooth="yes"/>
      <point x="122" y="14"/>
      <point x="107" y="-1"/>
      <point x="88" y="-1" type="curve" smooth="yes"/>
      <point x="69" y="-1"/>
      <point x="54" y="14"/>
    </contour>
  </outline>
</glyph>
<glyph name="slash" format="1">
  <advance width="274" height="274"/>
  <unicode hex="002F"/>
  <outline>
    <contour>
      <point x="30" y="20" type="curve" smooth="yes"/>
      <point x="93" y="220"/>
      <point x="128" y="333"/>
      <point x="192" y="536" type="curve" smooth="yes"/>
      <point x="204" y="575"/>
      <point x="260" y="561"/>
      <point x="246" y="519" type="curve" smooth="yes"/>
      <point x="183" y="316"/>
      <point x="147" y="205"/>
      <point x="84" y="3" type="curve" smooth="yes"/>
      <point x="72" y="-36"/>
      <point x="17" y="-22"/>
    </contour>
  </outline>
</glyph>
<glyph name="zero" format="1">
  <advance width="484" height="484"/>
  <unicode hex="0030"/>
  <outline>
    <contour>
      <point x="244.514" y="485" type="curve" smooth="yes"/>
      <point x="133.264" y="485"/>
      <point x="85.7012" y="389.994"/>
      <point x="87.0137" y="257.5" type="curve" smooth="yes"/>
      <point x="88.3623" y="121.25"/>
      <point x="135.764" y="55"/>
      <point x="244.514" y="55" type="curve" smooth="yes"/>
      <point x="347.021" y="55"/>
      <point x="394.079" y="122.5"/>
      <point x="397.014" y="257.5" type="curve" smooth="yes"/>
      <point x="399.812" y="386.25"/>
      <point x="355.771" y="485"/>
    </contour>
    <contour>
      <point x="244.514" y="545" type="curve" smooth="yes"/>
      <point x="382.014" y="545"/>
      <point x="460.478" y="435"/>
      <point x="457.014" y="257.5" type="curve" smooth="yes"/>
      <point x="454.135" y="110"/>
      <point x="401.106" y="-5"/>
      <point x="244.514" y="-5" type="curve" smooth="yes"/>
      <point x="93.2637" y="-5"/>
      <point x="25.8945" y="108.75"/>
      <point x="27.0137" y="257.5" type="curve" smooth="yes"/>
      <point x="28.3486" y="435"/>
      <point x="102.014" y="545"/>
    </contour>
  </outline>
</glyph>
<glyph name="one" format="1">
  <advance width="226" height="226"/>
  <unicode hex="0031"/>
  <outline>
    <contour>
      <point x="55" y="422" type="curve" smooth="yes"/>
      <point x="38" y="422"/>
      <point x="27" y="434"/>
      <point x="27" y="448" type="curve" smooth="yes"/>
      <point x="27" y="459"/>
      <point x="32" y="469"/>
      <point x="44" y="477" type="curve" smooth="yes"/>
      <point x="79" y="501"/>
      <point x="99" y="514"/>
      <point x="118" y="527" type="curve" smooth="yes"/>
      <point x="133" y="538"/>
      <point x="150" y="545"/>
      <point x="165" y="545" type="curve" smooth="yes"/>
      <point x="184" y="545"/>
      <point x="199" y="533"/>
      <point x="199" y="500" type="curve" smooth="yes"/>
      <point x="199" y="0" type="line"/>
      <point x="139" y="0" type="line"/>
      <point x="139" y="469" type="line"/>
      <point x="118" y="455"/>
      <point x="99" y="441"/>
      <point x="76" y="428" type="curve" smooth="yes"/>
      <point x="69" y="424"/>
      <point x="62" y="422"/>
    </contour>
  </outline>
</glyph>
<glyph name="two" format="1">
  <advance width="540" height="540"/>
  <unicode hex="0032"/>
  <outline>
    <contour>
      <point x="428" y="368" type="curve" smooth="yes"/>
      <point x="428" y="199"/>
      <point x="169" y="142"/>
      <point x="131" y="60" type="curve"/>
      <point x="482" y="60" type="line" smooth="yes"/>
      <point x="501" y="60"/>
      <point x="513" y="49"/>
      <point x="513" y="30" type="curve" smooth="yes"/>
      <point x="513" y="10"/>
      <point x="500" y="0"/>
      <point x="482" y="0" type="curve" smooth="yes"/>
      <point x="90" y="0" type="line" smooth="yes"/>
      <point x="59" y="0"/>
      <point x="44" y="18"/>
      <point x="44" y="39" type="curve" smooth="yes"/>
      <point x="44" y="49"/>
      <point x="48.2354" y="59.126"/>
      <point x="55" y="70" type="curve" smooth="yes"/>
      <point x="134" y="197"/>
      <point x="369" y="240"/>
      <point x="369" y="376" type="curve" smooth="yes"/>
      <point x="369" y="458"/>
      <point x="295" y="498"/>
      <point x="228" y="498" type="curve" smooth="yes"/>
      <point x="170" y="498"/>
      <point x="121" y="466"/>
      <point x="90" y="426" type="curve" smooth="yes"/>
      <point x="79" y="412"/>
      <point x="67" y="403"/>
      <point x="55" y="403" type="curve" smooth="yes"/>
      <point x="38" y="403"/>
      <point x="27" y="418"/>
      <point x="27" y="432" type="curve" smooth="yes"/>
      <point x="27" y="440"/>
      <point x="30" y="450"/>
      <point x="37" y="460" type="curve" smooth="yes"/>
      <point x="69" y="508"/>
      <point x="136" y="558"/>
      <point x="226" y="558" type="curve" smooth="yes"/>
      <point x="342" y="558"/>
      <point x="428" y="485"/>
    </contour>
  </outline>
</glyph>
<glyph name="three" format="1">
  <advance width="499" height="499"/>
  <unicode hex="0033"/>
  <outline>
    <contour>
      <point x="247" y="-209" type="curve" smooth="yes"/>
      <point x="341" y="-209"/>
      <point x="408" y="-141"/>
      <point x="408" y="-39" type="curve" smooth="yes"/>
      <point x="408" y="50"/>
      <point x="357" y="128"/>
      <point x="257" y="128" type="curve" smooth="yes"/>
      <point x="242" y="128"/>
      <point x="187" y="130"/>
      <point x="180" y="130" type="curve" smooth="yes"/>
      <point x="162" y="130"/>
      <point x="149" y="144"/>
      <point x="149" y="159" type="curve" smooth="yes"/>
      <point x="149" y="174"/>
      <point x="160" y="190"/>
      <point x="180" y="190" type="curve" smooth="yes"/>
      <point x="187.071" y="190"/>
      <point x="242" y="192"/>
      <point x="261" y="192" type="curve" smooth="yes"/>
      <point x="342" y="192"/>
      <point x="383" y="249"/>
      <point x="383" y="312" type="curve" smooth="yes"/>
      <point x="383" y="385"/>
      <point x="325" y="429"/>
      <point x="256" y="429" type="curve" smooth="yes"/>
      <point x="194" y="429"/>
      <point x="139.966" y="404.656"/>
      <point x="115" y="336" type="curve" smooth="yes"/>
      <point x="111" y="325"/>
      <point x="99" y="315"/>
      <point x="86" y="315" type="curve" smooth="yes"/>
      <point x="64.7432" y="315"/>
      <point x="53.1182" y="333.59"/>
      <point x="58" y="358" type="curve" smooth="yes"/>
      <point x="73" y="433"/>
      <point x="146" y="491"/>
      <point x="256" y="491" type="curve" smooth="yes"/>
      <point x="360" y="491"/>
      <point x="443" y="425"/>
      <point x="443" y="310" type="curve" smooth="yes"/>
      <point x="443" y="245"/>
      <point x="418" y="185"/>
      <point x="382" y="160" type="curve"/>
      <point x="446" y="118"/>
      <point x="472" y="36"/>
      <point x="472" y="-41" type="curve" smooth="yes"/>
      <point x="472" y="-168"/>
      <point x="392" y="-270"/>
      <point x="247" y="-270" type="curve" smooth="yes"/>
      <point x="152" y="-270"/>
      <point x="77.082" y="-221.93"/>
      <point x="36" y="-174" type="curve" smooth="yes"/>
      <point x="30" y="-167"/>
      <point x="27" y="-158"/>
      <point x="27" y="-150" type="curve" smooth="yes"/>
      <point x="27" y="-134"/>
      <point x="37" y="-118"/>
      <point x="54" y="-118" type="curve" smooth="yes"/>
      <point x="63" y="-118"/>
      <point x="74.8428" y="-123.146"/>
      <point x="86" y="-135" type="curve" smooth="yes"/>
      <point x="118" y="-169"/>
      <point x="169" y="-209"/>
    </contour>
  </outline>
</glyph>
<glyph name="four" format="1">
  <advance width="557" height="557"/>
  <unicode hex="0034"/>
  <outline>
    <contour>
      <point x="413.057" y="426.25" type="curve" smooth="yes"/>
      <point x="414.307" y="281.25"/>
      <point x="413.057" y="60"/>
      <point x="413.057" y="60" type="curve"/>
      <point x="413.057" y="60"/>
      <point x="485.557" y="60"/>
      <point x="505.557" y="60" type="curve" smooth="yes"/>
      <point x="521.807" y="60"/>
      <point x="530.29" y="43.2998"/>
      <point x="530.29" y="27.5" type="curve" smooth="yes"/>
      <point x="530.29" y="13.75"/>
      <point x="520.557" y="0"/>
      <point x="505.557" y="0" type="curve" smooth="yes"/>
      <point x="488.057" y="0"/>
      <point x="413.057" y="0"/>
      <point x="413.057" y="0" type="curve"/>
      <point x="413.057" y="0"/>
      <point x="413.057" y="-136.25"/>
      <point x="413.057" y="-241.25" type="curve" smooth="yes"/>
      <point x="413.057" y="-260.595"/>
      <point x="397.213" y="-271.353"/>
      <point x="381.807" y="-271.023" type="curve" smooth="yes"/>
      <point x="367.235" y="-270.712"/>
      <point x="353.057" y="-259.955"/>
      <point x="353.057" y="-241.25" type="curve" smooth="yes"/>
      <point x="353.057" y="-136.25"/>
      <point x="353.057" y="0"/>
      <point x="353.057" y="0" type="curve"/>
      <point x="244.202" y="0"/>
      <point x="169.307" y="0"/>
      <point x="93.0566" y="0" type="curve" smooth="yes"/>
      <point x="26.8066" y="0"/>
      <point x="13.5137" y="48.75"/>
      <point x="39.3066" y="85" type="curve" smooth="yes"/>
      <point x="85.5566" y="150"/>
      <point x="185.557" y="293.75"/>
      <point x="301.807" y="452.5" type="curve" smooth="yes"/>
      <point x="346.659" y="513.75"/>
      <point x="412.367" y="506.25"/>
    </contour>
    <contour>
      <point x="353.057" y="60" type="line"/>
      <point x="353.057" y="416.25" type="line"/>
      <point x="95.5566" y="60" type="line"/>
    </contour>
  </outline>
</glyph>
<glyph name="five" format="1">
  <advance width="543" height="543"/>
  <unicode hex="0035"/>
  <outline>
    <contour>
      <point x="166.595" y="129.644" type="curve" smooth="yes"/>
      <point x="352.917" y="166.118"/>
      <point x="424.095" y="80"/>
      <point x="420.345" y="-50" type="curve" smooth="yes"/>
      <point x="417.775" y="-139.1"/>
      <point x="346.595" y="-208.75"/>
      <point x="255.345" y="-208.75" type="curve" smooth="yes"/>
      <point x="197.845" y="-208.75"/>
      <point x="131.594" y="-190.001"/>
      <point x="86.5947" y="-135" type="curve" smooth="yes"/>
      <point x="72.2773" y="-117.5"/>
      <point x="52.8447" y="-112.5"/>
      <point x="36.5947" y="-126.25" type="curve" smooth="yes"/>
      <point x="24.1533" y="-136.777"/>
      <point x="24.3428" y="-159.165"/>
      <point x="34.0947" y="-170" type="curve" smooth="yes"/>
      <point x="101.595" y="-245"/>
      <point x="166.517" y="-270"/>
      <point x="255.345" y="-270" type="curve" smooth="yes"/>
      <point x="369.095" y="-270"/>
      <point x="480.338" y="-174.002"/>
      <point x="484.095" y="-50" type="curve" smooth="yes"/>
      <point x="491.595" y="197.5"/>
      <point x="276.595" y="211.25"/>
      <point x="157.845" y="188.75" type="curve"/>
      <point x="239.095" y="433.75" type="line"/>
      <point x="239.095" y="433.75"/>
      <point x="371.595" y="433.75"/>
      <point x="485.345" y="433.75" type="curve" smooth="yes"/>
      <point x="505.975" y="433.75"/>
      <point x="516.367" y="448.648"/>
      <point x="516.525" y="462.5" type="curve" smooth="yes"/>
      <point x="516.688" y="476.768"/>
      <point x="506.293" y="493.75"/>
      <point x="485.345" y="493.75" type="curve" smooth="yes"/>
      <point x="237.845" y="493.75" type="line" smooth="yes"/>
      <point x="205.345" y="493.75"/>
      <point x="188.978" y="480.873"/>
      <point x="177.845" y="445" type="curve" smooth="yes"/>
      <point x="155.345" y="372.5"/>
      <point x="129.095" y="290"/>
      <point x="98.2812" y="197.5" type="curve" smooth="yes"/>
      <point x="77.8154" y="136.062"/>
      <point x="119.095" y="120.344"/>
    </contour>
  </outline>
</glyph>
<glyph name="six" format="1">
  <advance width="507" height="507"/>
  <unicode hex="0036"/>
  <outline>
    <contour>
      <point x="480.75" y="211.25" type="curve" smooth="yes"/>
      <point x="483.2" y="87.5"/>
      <point x="397" y="-6.25"/>
      <point x="255.75" y="-6.25" type="curve" smooth="yes"/>
      <point x="109.5" y="-6.25"/>
      <point x="27" y="102.495"/>
      <point x="27" y="250" type="curve" smooth="yes"/>
      <point x="27" y="483.75"/>
      <point x="190.391" y="733.801"/>
      <point x="434.5" y="805" type="curve" smooth="yes"/>
      <point x="453.25" y="810.469"/>
      <point x="470.75" y="806.25"/>
      <point x="475.75" y="791.25" type="curve" smooth="yes"/>
      <point x="480.3" y="777.602"/>
      <point x="477.443" y="757.814"/>
      <point x="455.75" y="751.25" type="curve" smooth="yes"/>
      <point x="265.75" y="693.75"/>
      <point x="137" y="530"/>
      <point x="100.75" y="362.5" type="curve"/>
      <point x="128.25" y="402.5"/>
      <point x="195.75" y="426.25"/>
      <point x="258.25" y="426.25" type="curve" smooth="yes"/>
      <point x="374.5" y="426.25"/>
      <point x="477.929" y="353.722"/>
    </contour>
    <contour>
      <point x="94.5" y="213.75" type="curve" smooth="yes"/>
      <point x="94.5" y="125"/>
      <point x="159.5" y="53.75"/>
      <point x="255.75" y="53.75" type="curve" smooth="yes"/>
      <point x="362" y="53.75"/>
      <point x="419.5" y="118.75"/>
      <point x="419.5" y="213.75" type="curve" smooth="yes"/>
      <point x="419.5" y="295"/>
      <point x="353.25" y="366.25"/>
      <point x="255.75" y="366.25" type="curve" smooth="yes"/>
      <point x="154.5" y="366.25"/>
      <point x="94.5" y="295.048"/>
    </contour>
  </outline>
</glyph>
<glyph name="seven" format="1">
  <advance width="539" height="539"/>
  <unicode hex="0037"/>
  <outline>
    <contour>
      <point x="109.569" y="-241.25" type="curve" smooth="yes"/>
      <point x="94.7129" y="-266.017"/>
      <point x="76.7275" y="-270.529"/>
      <point x="60.8193" y="-261.25" type="curve" smooth="yes"/>
      <point x="45.8193" y="-252.5"/>
      <point x="45.3613" y="-232.847"/>
      <point x="54.5693" y="-217.5" type="curve" smooth="yes"/>
      <point x="137.069" y="-80"/>
      <point x="365.819" y="296.25"/>
      <point x="449.569" y="432.5" type="curve"/>
      <point x="449.569" y="432.5"/>
      <point x="153.319" y="432.5"/>
      <point x="58.3193" y="432.5" type="curve" smooth="yes"/>
      <point x="43.3193" y="432.5"/>
      <point x="27" y="443.75"/>
      <point x="27" y="462.5" type="curve" smooth="yes"/>
      <point x="27" y="481.867"/>
      <point x="42.0693" y="495"/>
      <point x="57.0693" y="495" type="curve" smooth="yes"/>
      <point x="454.569" y="495" type="line" smooth="yes"/>
      <point x="505.819" y="495"/>
      <point x="528.053" y="450.389"/>
      <point x="500.819" y="405" type="curve" smooth="yes"/>
      <point x="429.569" y="286.25"/>
      <point x="179.407" y="-124.833"/>
    </contour>
  </outline>
</glyph>
<glyph name="eight" format="1">
  <advance width="521" height="521"/>
  <unicode hex="0038"/>
  <outline>
    <contour>
      <point x="261.853" y="403.75" type="curve"/>
      <point x="124.353" y="370"/>
      <point x="94.001" y="283.912"/>
      <point x="88.1025" y="225" type="curve" smooth="yes"/>
      <point x="78.043" y="124.526"/>
      <point x="145.603" y="47.5"/>
      <point x="260.603" y="47.5" type="curve" smooth="yes"/>
      <point x="363.109" y="47.5"/>
      <point x="442.369" y="122.789"/>
      <point x="434.353" y="225" type="curve" smooth="yes"/>
      <point x="429.353" y="288.75"/>
      <point x="394.353" y="372.455"/>
    </contour>
    <contour>
      <point x="260.603" y="757.5" type="curve" smooth="yes"/>
      <point x="177.903" y="757.5"/>
      <point x="115.603" y="700"/>
      <point x="125.403" y="616.25" type="curve" smooth="yes"/>
      <point x="133.01" y="551.25"/>
      <point x="189.353" y="487.5"/>
      <point x="261.853" y="476.25" type="curve"/>
      <point x="339.353" y="492.5"/>
      <point x="387.26" y="552.5"/>
      <point x="396.653" y="616.25" type="curve" smooth="yes"/>
      <point x="409.362" y="702.5"/>
      <point x="346.653" y="757.5"/>
    </contour>
    <contour>
      <point x="260.603" y="817.5" type="curve" smooth="yes"/>
      <point x="414.353" y="817.5"/>
      <point x="467.019" y="701.25"/>
      <point x="457.903" y="617.5" type="curve" smooth="yes"/>
      <point x="451.917" y="562.5"/>
      <point x="431.853" y="492.5"/>
      <point x="332.408" y="442.495" type="curve"/>
      <point x="451.853" y="390"/>
      <point x="487.885" y="322.5"/>
      <point x="494.353" y="230" type="curve" smooth="yes"/>
      <point x="502.171" y="118.172"/>
      <point x="430.896" y="-12.5"/>
      <point x="260.603" y="-12.5" type="curve" smooth="yes"/>
      <point x="95.6025" y="-12.5"/>
      <point x="16.5723" y="108.75"/>
      <point x="28.1025" y="230" type="curve" smooth="yes"/>
      <point x="36.2012" y="315.184"/>
      <point x="71.8525" y="387.5"/>
      <point x="191.653" y="442.231" type="curve"/>
      <point x="99.3525" y="481.25"/>
      <point x="70.749" y="558.75"/>
      <point x="64.1533" y="615" type="curve" smooth="yes"/>
      <point x="54.9209" y="693.75"/>
      <point x="110.603" y="817.5"/>
    </contour>
  </outline>
</glyph>
<glyph name="nine" format="1">
  <advance width="507" height="507"/>
  <unicode hex="0039"/>
  <outline>
    <contour>
      <point x="27.0508" y="328.75" type="curve" smooth="yes"/>
      <point x="24.6016" y="452.5"/>
      <point x="110.801" y="546.25"/>
      <point x="252.051" y="546.25" type="curve" smooth="yes"/>
      <point x="398.301" y="546.25"/>
      <point x="480.801" y="437.505"/>
      <point x="480.801" y="290" type="curve" smooth="yes"/>
      <point x="480.801" y="56.25"/>
      <point x="317.41" y="-193.801"/>
      <point x="73.3008" y="-265" type="curve" smooth="yes"/>
      <point x="54.5508" y="-270.469"/>
      <point x="37.0508" y="-266.25"/>
      <point x="32.0508" y="-251.25" type="curve" smooth="yes"/>
      <point x="27.502" y="-237.602"/>
      <point x="30.3584" y="-217.814"/>
      <point x="52.0508" y="-211.25" type="curve" smooth="yes"/>
      <point x="242.051" y="-153.75"/>
      <point x="370.801" y="10"/>
      <point x="407.051" y="177.5" type="curve"/>
      <point x="379.551" y="137.5"/>
      <point x="312.051" y="113.75"/>
      <point x="249.551" y="113.75" type="curve" smooth="yes"/>
      <point x="133.301" y="113.75"/>
      <point x="29.8721" y="186.278"/>
    </contour>
    <contour>
      <point x="413.301" y="326.25" type="curve" smooth="yes"/>
      <point x="413.301" y="415"/>
      <point x="348.301" y="486.25"/>
      <point x="252.051" y="486.25" type="curve" smooth="yes"/>
      <point x="145.801" y="486.25"/>
      <point x="88.3008" y="421.25"/>
      <point x="88.3008" y="326.25" type="curve" smooth="yes"/>
      <point x="88.3008" y="245"/>
      <point x="154.551" y="173.75"/>
      <point x="252.051" y="173.75" type="curve" smooth="yes"/>
      <point x="353.301" y="173.75"/>
      <point x="413.301" y="244.952"/>
    </contour>
  </outline>
</glyph>
<glyph name="less" format="1">
  <advance width="462" height="462"/>
  <unicode hex="003C"/>
  <outline>
    <contour>
      <point x="393" y="108" type="curve" smooth="yes"/>
      <point x="50" y="242" type="line" smooth="yes"/>
      <point x="18" y="255"/>
      <point x="18" y="298"/>
      <point x="51" y="311" type="curve" smooth="yes"/>
      <point x="51" y="311"/>
      <point x="274" y="398"/>
      <point x="393" y="444" type="curve" smooth="yes"/>
      <point x="406" y="449"/>
      <point x="426" y="446"/>
      <point x="432" y="430" type="curve" smooth="yes"/>
      <point x="439" y="413"/>
      <point x="427" y="396"/>
      <point x="414" y="391" type="curve" smooth="yes"/>
      <point x="293" y="344"/>
      <point x="119" y="276"/>
      <point x="119" y="276" type="curve"/>
      <point x="414" y="161" type="line" smooth="yes"/>
      <point x="431" y="154"/>
      <point x="439" y="139"/>
      <point x="432" y="122" type="curve" smooth="yes"/>
      <point x="426" y="106"/>
      <point x="410" y="102"/>
    </contour>
  </outline>
</glyph>
<glyph name="equal" format="1">
  <advance width="396" height="396"/>
  <unicode hex="003D"/>
  <outline>
    <contour>
      <point x="57" y="212" type="curve" smooth="yes"/>
      <point x="339" y="212" type="line" smooth="yes"/>
      <point x="356" y="212"/>
      <point x="369" y="198"/>
      <point x="369" y="182" type="curve" smooth="yes"/>
      <point x="369" y="166"/>
      <point x="355" y="152"/>
      <point x="339" y="152" type="curve" smooth="yes"/>
      <point x="57" y="152" type="line" smooth="yes"/>
      <point x="41" y="152"/>
      <point x="27" y="166"/>
      <point x="27" y="182" type="curve" smooth="yes"/>
      <point x="27" y="198"/>
      <point x="40" y="212"/>
    </contour>
    <contour>
      <point x="57" y="382" type="curve" smooth="yes"/>
      <point x="339" y="382" type="line" smooth="yes"/>
      <point x="356" y="382"/>
      <point x="369" y="368"/>
      <point x="369" y="352" type="curve" smooth="yes"/>
      <point x="369" y="336"/>
      <point x="355" y="322"/>
      <point x="339" y="322" type="curve" smooth="yes"/>
      <point x="57" y="322" type="line" smooth="yes"/>
      <point x="41" y="322"/>
      <point x="27" y="336"/>
      <point x="27" y="352" type="curve" smooth="yes"/>
      <point x="27" y="368"/>
      <point x="40" y="382"/>
    </contour>
  </outline>
</glyph>
<glyph name="greater" format="1">
  <advance width="462" height="462"/>
  <unicode hex="003E"/>
  <outline>
    <contour>
      <point x="69" y="108" type="line" smooth="yes"/>
      <point x="52" y="102"/>
      <point x="36" y="106"/>
      <point x="30" y="122" type="curve" smooth="yes"/>
      <point x="23" y="139"/>
      <point x="31" y="154"/>
      <point x="48" y="161" type="curve" smooth="yes"/>
      <point x="343" y="276" type="line"/>
      <point x="343" y="276"/>
      <point x="169" y="344"/>
      <point x="48" y="391" type="curve" smooth="yes"/>
      <point x="35" y="396"/>
      <point x="23" y="413"/>
      <point x="30" y="430" type="curve" smooth="yes"/>
      <point x="36" y="446"/>
      <point x="56" y="449"/>
      <point x="69" y="444" type="curve" smooth="yes"/>
      <point x="188" y="398"/>
      <point x="411" y="311"/>
      <point x="411" y="311" type="curve" smooth="yes"/>
      <point x="444" y="298"/>
      <point x="444" y="255"/>
      <point x="412" y="242" type="curve" smooth="yes"/>
    </contour>
  </outline>
</glyph>
<glyph name="question" format="1">
  <advance width="535" height="535"/>
  <unicode hex="003F"/>
  <outline>
    <contour>
      <point x="418" y="550" type="curve" smooth="yes"/>
      <point x="418" y="631"/>
      <point x="358" y="689"/>
      <point x="276" y="689" type="curve" smooth="yes"/>
      <point x="179" y="689"/>
      <point x="134.43" y="635.542"/>
      <point x="112" y="568" type="curve" smooth="yes"/>
      <point x="105.69" y="549"/>
      <point x="95" y="541"/>
      <point x="81" y="541" type="curve" smooth="yes"/>
      <point x="55.8438" y="541"/>
      <point x="50.998" y="565"/>
      <point x="56" y="590" type="curve" smooth="yes"/>
      <point x="72.5745" y="672.839"/>
      <point x="146" y="748"/>
      <point x="276" y="748" type="curve" smooth="yes"/>
      <point x="397" y="748"/>
      <point x="481" y="672"/>
      <point x="481" y="550" type="curve" smooth="yes"/>
      <point x="481" y="372"/>
      <point x="266" y="324"/>
      <point x="266" y="183" type="curve" smooth="yes"/>
      <point x="266" y="156"/>
      <point x="255" y="142"/>
      <point x="236" y="142" type="curve" smooth="yes"/>
      <point x="216" y="142"/>
      <point x="203.856" y="157"/>
      <point x="204" y="183" type="curve" smooth="yes"/>
      <point x="205" y="364"/>
      <point x="418" y="402"/>
    </contour>
    <component base="period" xOffset="148" yOffset="-1"/>
  </outline>
</glyph>
<glyph name="bracketleft" format="1">
  <advance width="211" height="211"/>
  <unicode hex="005B"/>
  <outline>
    <contour>
      <point x="27" y="-290" type="curve" smooth="yes"/>
      <point x="27" y="830" type="line" smooth="yes"/>
      <point x="27" y="850"/>
      <point x="39" y="860"/>
      <point x="58" y="860" type="curve" smooth="yes"/>
      <point x="159" y="860" type="line" smooth="yes"/>
      <point x="172" y="860"/>
      <point x="184" y="848"/>
      <point x="184" y="832" type="curve" smooth="yes"/>
      <point x="184" y="816"/>
      <point x="174" y="805"/>
      <point x="159" y="805" type="curve" smooth="yes"/>
      <point x="84" y="805" type="line"/>
      <point x="84" y="-265" type="line"/>
      <point x="159" y="-265" type="line" smooth="yes"/>
      <point x="174" y="-265"/>
      <point x="184" y="-276"/>
      <point x="184" y="-292" type="curve" smooth="yes"/>
      <point x="184" y="-308"/>
      <point x="172" y="-320"/>
      <point x="159" y="-320" type="curve" smooth="yes"/>
      <point x="58" y="-320" type="line" smooth="yes"/>
      <point x="39" y="-320"/>
      <point x="27" y="-310"/>
    </contour>
  </outline>
</glyph>
<glyph name="backslash" format="1">
  <advance width="266" height="266"/>
  <unicode hex="005C"/>
  <outline>
    <contour>
      <point x="181" y="2" type="curve" smooth="yes"/>
      <point x="121" y="203"/>
      <point x="88" y="316"/>
      <point x="27" y="520" type="curve" smooth="yes"/>
      <point x="14" y="560"/>
      <point x="69" y="580"/>
      <point x="81" y="537" type="curve" smooth="yes"/>
      <point x="142" y="334"/>
      <point x="176" y="222"/>
      <point x="236" y="18" type="curve" smooth="yes"/>
      <point x="248" y="-19"/>
      <point x="194" y="-38"/>
    </contour>
  </outline>
</glyph>
<glyph name="bracketright" format="1">
  <advance width="211" height="211"/>
  <unicode hex="005D"/>
  <outline>
    <contour>
      <point x="184" y="-290" type="line" smooth="yes"/>
      <point x="184" y="-310"/>
      <point x="172" y="-320"/>
      <point x="153" y="-320" type="curve" smooth="yes"/>
      <point x="52" y="-320" type="line" smooth="yes"/>
      <point x="39" y="-320"/>
      <point x="27" y="-308"/>
      <point x="27" y="-292" type="curve" smooth="yes"/>
      <point x="27" y="-276"/>
      <point x="37" y="-265"/>
      <point x="52" y="-265" type="curve" smooth="yes"/>
      <point x="127" y="-265" type="line"/>
      <point x="127" y="805" type="line"/>
      <point x="52" y="805" type="line" smooth="yes"/>
      <point x="37" y="805"/>
      <point x="27" y="816"/>
      <point x="27" y="832" type="curve" smooth="yes"/>
      <point x="27" y="848"/>
      <point x="39" y="860"/>
      <point x="52" y="860" type="curve" smooth="yes"/>
      <point x="153" y="860" type="line" smooth="yes"/>
      <point x="172" y="860"/>
      <point x="184" y="850"/>
      <point x="184" y="830" type="curve" smooth="yes"/>
    </contour>
  </outline>
</glyph>
<glyph name="asciicircum" format="1">
  <advance width="400" height="400"/>
  <unicode hex="005E"/>
  <outline>
    <contour>
      <point x="374" y="723" type="curve" smooth="yes"/>
      <point x="374" y="709.229"/>
      <point x="362.963" y="696"/>
      <point x="348" y="696" type="curve" smooth="yes"/>
      <point x="338" y="696"/>
      <point x="328" y="702"/>
      <point x="321" y="711" type="curve" smooth="yes"/>
      <point x="200" y="875" type="line"/>
      <point x="200" y="875"/>
      <point x="124" y="772"/>
      <point x="79" y="711" type="curve" smooth="yes"/>
      <point x="72" y="702"/>
      <point x="62" y="696"/>
      <point x="52" y="696" type="curve" smooth="yes"/>
      <point x="37.0555" y="696"/>
      <point x="26" y="709.222"/>
      <point x="26" y="723" type="curve" smooth="yes"/>
      <point x="26" y="730"/>
      <point x="28" y="736"/>
      <point x="32" y="741" type="curve" smooth="yes"/>
      <point x="84" y="810"/>
      <point x="167" y="923"/>
      <point x="167" y="923" type="curve" smooth="yes"/>
      <point x="177" y="937"/>
      <point x="189" y="943"/>
      <point x="200" y="943" type="curve" smooth="yes"/>
      <point x="211" y="943"/>
      <point x="222" y="936"/>
      <point x="232" y="924" type="curve" smooth="yes"/>
      <point x="368" y="741" type="line" smooth="yes"/>
      <point x="372" y="736"/>
      <point x="374" y="730"/>
    </contour>
  </outline>
</glyph>
<glyph name="underscore" format="1">
  <advance width="576" height="576"/>
  <unicode hex="005F"/>
  <outline>
    <contour>
      <point x="57" y="60" type="curve" smooth="yes"/>
      <point x="519" y="60" type="line" smooth="yes"/>
      <point x="536" y="60"/>
      <point x="549" y="46"/>
      <point x="549" y="30" type="curve" smooth="yes"/>
      <point x="549" y="14"/>
      <point x="535" y="0"/>
      <point x="519" y="0" type="curve" smooth="yes"/>
      <point x="57" y="0" type="line" smooth="yes"/>
      <point x="41" y="0"/>
      <point x="27" y="14"/>
      <point x="27" y="30" type="curve" smooth="yes"/>
      <point x="27" y="46"/>
      <point x="40" y="60"/>
    </contour>
  </outline>
</glyph>
<glyph name="braceleft" format="1">
  <advance width="296" height="296"/>
  <unicode hex="007B"/>
  <outline>
    <contour>
      <point x="112" y="-290" type="line" smooth="yes"/>
      <point x="112" y="-310"/>
      <point x="124" y="-320"/>
      <point x="143" y="-320" type="curve" smooth="yes"/>
      <point x="244" y="-320" type="line" smooth="yes"/>
      <point x="257" y="-320"/>
      <point x="269" y="-308"/>
      <point x="269" y="-292" type="curve" smooth="yes"/>
      <point x="269" y="-276"/>
      <point x="259" y="-265"/>
      <point x="244" y="-265" type="curve" smooth="yes"/>
      <point x="169" y="-265" type="line"/>
      <point x="169" y="805" type="line"/>
      <point x="244" y="805" type="line" smooth="yes"/>
      <point x="259" y="805"/>
      <point x="269" y="816"/>
      <point x="269" y="832" type="curve" smooth="yes"/>
      <point x="269" y="848"/>
      <point x="257" y="860"/>
      <point x="244" y="860" type="curve" smooth="yes"/>
      <point x="143" y="860" type="line" smooth="yes"/>
      <point x="124" y="860"/>
      <point x="112" y="850"/>
      <point x="112" y="830" type="curve" smooth="yes"/>
      <point x="112" y="300" type="line"/>
      <point x="57" y="300" type="line" smooth="yes"/>
      <point x="37" y="300"/>
      <point x="27" y="285"/>
      <point x="27" y="269" type="curve" smooth="yes"/>
      <point x="27" y="253"/>
      <point x="37" y="239"/>
      <point x="57" y="239" type="curve" smooth="yes"/>
      <point x="112" y="239" type="line"/>
    </contour>
  </outline>
</glyph>
<glyph name="bar" format="1">
  <advance width="114" height="114"/>
  <unicode hex="007C"/>
  <outline>
    <contour>
      <point x="27" y="37" type="curve" smooth="yes"/>
      <point x="27" y="719" type="line" smooth="yes"/>
      <point x="27" y="736"/>
      <point x="41" y="749"/>
      <point x="57" y="749" type="curve" smooth="yes"/>
      <point x="73" y="749"/>
      <point x="87" y="735"/>
      <point x="87" y="719" type="curve" smooth="yes"/>
      <point x="87" y="37" type="line" smooth="yes"/>
      <point x="87" y="21"/>
      <point x="73" y="7"/>
      <point x="57" y="7" type="curve" smooth="yes"/>
      <point x="41" y="7"/>
      <point x="27" y="20"/>
    </contour>
  </outline>
</glyph>
<glyph name="braceright" format="1">
  <advance width="296" height="296"/>
  <unicode hex="007D"/>
  <outline>
    <contour>
      <point x="184" y="-290" type="line" smooth="yes"/>
      <point x="184" y="-310"/>
      <point x="172" y="-320"/>
      <point x="153" y="-320" type="curve" smooth="yes"/>
      <point x="52" y="-320" type="line" smooth="yes"/>
      <point x="39" y="-320"/>
      <point x="27" y="-308"/>
      <point x="27" y="-292" type="curve" smooth="yes"/>
      <point x="27" y="-276"/>
      <point x="37" y="-265"/>
      <point x="52" y="-265" type="curve" smooth="yes"/>
      <point x="127" y="-265" type="line"/>
      <point x="127" y="805" type="line"/>
      <point x="52" y="805" type="line" smooth="yes"/>
      <point x="37" y="805"/>
      <point x="27" y="816"/>
      <point x="27" y="832" type="curve" smooth="yes"/>
      <point x="27" y="848"/>
      <point x="39" y="860"/>
      <point x="52" y="860" type="curve" smooth="yes"/>
      <point x="153" y="860" type="line" smooth="yes"/>
      <point x="172" y="860"/>
      <point x="184" y="850"/>
      <point x="184" y="830" type="curve" smooth="yes"/>
      <point x="184" y="300" type="line"/>
      <point x="239" y="300" type="line" smooth="yes"/>
      <point x="259" y="300"/>
      <point x="269" y="285"/>
      <point x="269" y="269" type="curve" smooth="yes"/>
      <point x="269" y="253"/>
      <point x="259" y="239"/>
      <point x="239" y="239" type="curve" smooth="yes"/>
      <point x="184" y="239" type="line"/>
    </contour>
  </outline>
</glyph>
<glyph name="asciitilde" format="1">
  <advance width="832" height="832"/>
  <unicode hex="007E"/>
  <outline>
    <contour>
      <point x="433" y="324" type="curve" smooth="yes"/>
      <point x="476" y="290"/>
      <point x="524" y="254"/>
      <point x="595" y="254" type="curve" smooth="yes"/>
      <point x="667" y="254"/>
      <point x="700" y="281"/>
      <point x="757" y="325" type="curve" smooth="yes"/>
      <point x="769" y="334"/>
      <point x="790" y="335"/>
      <point x="800" y="321" type="curve" smooth="yes"/>
      <point x="810" y="307"/>
      <point x="804" y="289"/>
      <point x="792" y="278" type="curve" smooth="yes"/>
      <point x="750" y="240"/>
      <point x="686" y="194"/>
      <point x="595" y="194" type="curve" smooth="yes"/>
      <point x="490" y="194"/>
      <point x="449" y="238"/>
      <point x="399" y="278" type="curve" smooth="yes"/>
      <point x="356" y="312"/>
      <point x="308" y="348"/>
      <point x="237" y="348" type="curve" smooth="yes"/>
      <point x="165" y="348"/>
      <point x="132" y="321"/>
      <point x="75" y="277" type="curve" smooth="yes"/>
      <point x="63" y="268"/>
      <point x="42" y="267"/>
      <point x="32" y="281" type="curve" smooth="yes"/>
      <point x="22" y="295"/>
      <point x="28" y="313"/>
      <point x="40" y="324" type="curve" smooth="yes"/>
      <point x="82" y="362"/>
      <point x="146" y="408"/>
      <point x="237" y="408" type="curve" smooth="yes"/>
      <point x="342" y="408"/>
      <point x="383" y="364"/>
    </contour>
  </outline>
</glyph>
<glyph name="anusvara" format="1">
  <advance width="410" height="410"/>
  <unicode hex="0D82"/>
  <outline>
    <contour>
      <point x="383" y="176" type="curve" smooth="yes"/>
      <point x="383" y="77"/>
      <point x="303" y="-3"/>
      <point x="204" y="-3" type="curve" smooth="yes"/>
      <point x="107" y="-3"/>
      <point x="27" y="77"/>
      <point x="27" y="176" type="curve" smooth="yes"/>
      <point x="27" y="273"/>
      <point x="107" y="353"/>
      <point x="204" y="353" type="curve" smooth="yes"/>
      <point x="303" y="353"/>
      <point x="383" y="273"/>
    </contour>
    <contour>
      <point x="81" y="176" type="curve" smooth="yes"/>
      <point x="81" y="105"/>
      <point x="137" y="51"/>
      <point x="204" y="51" type="curve" smooth="yes"/>
      <point x="273" y="51"/>
      <point x="329" y="105"/>
      <point x="329" y="176" type="curve" smooth="yes"/>
      <point x="329" y="243"/>
      <point x="273" y="300"/>
      <point x="204" y="300" type="curve" smooth="yes"/>
      <point x="137" y="300"/>
      <point x="81" y="243"/>
    </contour>
  </outline>
</glyph>
<glyph name="visarga" format="1">
  <advance width="272" height="272"/>
  <unicode hex="0D83"/>
  <outline>
    <contour>
      <point x="245" y="108" type="curve" smooth="yes"/>
      <point x="245" y="49"/>
      <point x="196" y="0"/>
      <point x="135" y="0" type="curve" smooth="yes"/>
      <point x="76" y="0"/>
      <point x="27" y="49"/>
      <point x="27" y="108" type="curve" smooth="yes"/>
      <point x="27" y="169"/>
      <point x="76" y="218"/>
      <point x="135" y="218" type="curve" smooth="yes"/>
      <point x="196" y="218"/>
      <point x="245" y="169"/>
    </contour>
    <contour>
      <point x="79" y="108" type="curve" smooth="yes"/>
      <point x="79" y="75"/>
      <point x="104" y="51"/>
      <point x="135" y="51" type="curve" smooth="yes"/>
      <point x="168" y="51"/>
      <point x="193" y="75"/>
      <point x="193" y="108" type="curve" smooth="yes"/>
      <point x="193" y="141"/>
      <point x="168" y="166"/>
      <point x="135" y="166" type="curve" smooth="yes"/>
      <point x="104" y="166"/>
      <point x="79" y="141"/>
    </contour>
    <contour>
      <point x="245" y="385" type="curve" smooth="yes"/>
      <point x="245" y="326"/>
      <point x="196" y="277"/>
      <point x="135" y="277" type="curve" smooth="yes"/>
      <point x="76" y="277"/>
      <point x="27" y="326"/>
      <point x="27" y="385" type="curve" smooth="yes"/>
      <point x="27" y="446"/>
      <point x="76" y="495"/>
      <point x="135" y="495" type="curve" smooth="yes"/>
      <point x="196" y="495"/>
      <point x="245" y="446"/>
    </contour>
    <contour>
      <point x="79" y="385" type="curve" smooth="yes"/>
      <point x="79" y="352"/>
      <point x="104" y="328"/>
      <point x="135" y="328" type="curve" smooth="yes"/>
      <point x="168" y="328"/>
      <point x="193" y="352"/>
      <point x="193" y="385" type="curve" smooth="yes"/>
      <point x="193" y="418"/>
      <point x="168" y="443"/>
      <point x="135" y="443" type="curve" smooth="yes"/>
      <point x="104" y="443"/>
      <point x="79" y="418"/>
    </contour>
  </outline>
</glyph>
<glyph name="sinI" format="1">
  <advance width="713" height="713"/>
  <unicode hex="0D89"/>
  <outline>
    <contour>
      <point x="226.761" y="-93.6084" type="curve" smooth="yes"/>
      <point x="246.064" y="-93.6084"/>
      <point x="265" y="-96"/>
      <point x="284" y="-96" type="curve" smooth="yes"/>
      <point x="491" y="-96"/>
      <point x="637" y="51"/>
      <point x="637" y="242" type="curve" smooth="yes"/>
      <point x="637" y="403"/>
      <point x="532" y="523"/>
      <point x="343" y="523" type="curve" smooth="yes"/>
      <point x="214" y="523"/>
      <point x="79" y="441"/>
      <point x="79" y="273" type="curve" smooth="yes"/>
      <point x="79" y="157"/>
      <point x="152" y="50"/>
      <point x="284" y="50" type="curve" smooth="yes"/>
      <point x="384" y="50"/>
      <point x="444" y="121"/>
      <point x="444" y="190" type="curve" smooth="yes"/>
      <point x="444" y="276"/>
      <point x="396" y="318"/>
      <point x="333" y="318" type="curve" smooth="yes"/>
      <point x="320" y="318"/>
      <point x="308" y="313"/>
      <point x="299" y="302" type="curve"/>
      <point x="315" y="301"/>
      <point x="324" y="285"/>
      <point x="324" y="269" type="curve" smooth="yes"/>
      <point x="324" y="251"/>
      <point x="312" y="232"/>
      <point x="284" y="232" type="curve" smooth="yes"/>
      <point x="256" y="232"/>
      <point x="238" y="257"/>
      <point x="238" y="285" type="curve" smooth="yes"/>
      <point x="238" y="335"/>
      <point x="288" y="366"/>
      <point x="333" y="366" type="curve" smooth="yes"/>
      <point x="448" y="366"/>
      <point x="498" y="285"/>
      <point x="498" y="190" type="curve" smooth="yes"/>
      <point x="498" y="100"/>
      <point x="426" y="-1"/>
      <point x="287" y="-1" type="curve" smooth="yes"/>
      <point x="122" y="-1"/>
      <point x="27" y="125"/>
      <point x="27" y="275" type="curve" smooth="yes"/>
      <point x="27" y="465"/>
      <point x="170" y="573"/>
      <point x="343" y="573" type="curve" smooth="yes"/>
      <point x="564" y="573"/>
      <point x="686" y="424"/>
      <point x="686" y="243" type="curve" smooth="yes"/>
      <point x="686" y="82"/>
      <point x="605" y="-99"/>
      <point x="370" y="-141" type="curve"/>
      <point x="434" y="-176"/>
      <point x="446" y="-224"/>
      <point x="446" y="-296" type="curve" smooth="yes"/>
      <point x="446" y="-313"/>
      <point x="431" y="-324"/>
      <point x="418" y="-324" type="curve" smooth="yes"/>
      <point x="409" y="-324"/>
      <point x="393" y="-315"/>
      <point x="393" y="-294" type="curve" smooth="yes"/>
      <point x="393" y="-222"/>
      <point x="363" y="-160"/>
      <point x="229" y="-143" type="curve" smooth="yes"/>
      <point x="215" y="-141"/>
      <point x="203" y="-130"/>
      <point x="203" y="-117" type="curve" smooth="yes"/>
      <point x="203" y="-103"/>
      <point x="214.348" y="-93.6084"/>
    </contour>
  </outline>
</glyph>
<glyph name="sinIi" format="1">
  <advance width="638" height="638"/>
  <unicode hex="0D8A"/>
  <outline>
    <contour>
      <point x="611" y="682" type="curve" smooth="yes"/>
      <point x="611" y="623"/>
      <point x="562" y="574"/>
      <point x="501" y="574" type="curve" smooth="yes"/>
      <point x="442" y="574"/>
      <point x="393" y="623"/>
      <point x="393" y="682" type="curve" smooth="yes"/>
      <point x="393" y="743"/>
      <point x="442" y="792"/>
      <point x="501" y="792" type="curve" smooth="yes"/>
      <point x="562" y="792"/>
      <point x="611" y="743"/>
    </contour>
    <contour>
      <point x="445" y="682" type="curve" smooth="yes"/>
      <point x="445" y="649"/>
      <point x="470" y="624"/>
      <point x="501" y="624" type="curve" smooth="yes"/>
      <point x="534" y="624"/>
      <point x="559" y="649"/>
      <point x="559" y="682" type="curve" smooth="yes"/>
      <point x="559" y="715"/>
      <point x="534" y="740"/>
      <point x="501" y="740" type="curve" smooth="yes"/>
      <point x="470" y="740"/>
      <point x="445" y="715"/>
    </contour>
    <contour>
      <point x="265" y="812" type="curve" smooth="yes"/>
      <point x="265" y="753"/>
      <point x="216" y="704"/>
      <point x="155" y="704" type="curve" smooth="yes"/>
      <point x="96" y="704"/>
      <point x="47" y="753"/>
      <point x="47" y="812" type="curve" smooth="yes"/>
      <point x="47" y="873"/>
      <point x="96" y="922"/>
      <point x="155" y="922" type="curve" smooth="yes"/>
      <point x="216" y="922"/>
      <point x="265" y="873"/>
    </contour>
    <contour>
      <point x="99" y="812" type="curve" smooth="yes"/>
      <point x="99" y="779"/>
      <point x="124" y="755"/>
      <point x="155" y="755" type="curve" smooth="yes"/>
      <point x="188" y="755"/>
      <point x="213" y="779"/>
      <point x="213" y="812" type="curve" smooth="yes"/>
      <point x="213" y="845"/>
      <point x="188" y="870"/>
      <point x="155" y="870" type="curve" smooth="yes"/>
      <point x="124" y="870"/>
      <point x="99" y="845"/>
    </contour>
    <contour>
      <point x="317" y="-12" type="curve" smooth="yes"/>
      <point x="477.513" y="-12"/>
      <point x="605.056" y="118.991"/>
      <point x="605.056" y="282.248" type="curve" smooth="yes"/>
      <point x="605.056" y="447.017"/>
      <point x="487.848" y="566"/>
      <point x="317" y="566" type="curve" smooth="yes"/>
      <point x="238" y="566"/>
      <point x="193" y="540"/>
      <point x="164" y="510" type="curve"/>
      <point x="216.666" y="592.206"/>
      <point x="341.7" y="752.144"/>
      <point x="506.772" y="893.628" type="curve" smooth="yes"/>
      <point x="514.543" y="900.288"/>
      <point x="516" y="906.104"/>
      <point x="516" y="914" type="curve" smooth="yes"/>
      <point x="516" y="927.767"/>
      <point x="504.976" y="936.202"/>
      <point x="492.259" y="936.202" type="curve" smooth="yes"/>
      <point x="484.471" y="936.202"/>
      <point x="476.137" y="933.388"/>
      <point x="469.772" y="927.628" type="curve" smooth="yes"/>
      <point x="314.072" y="786.715"/>
      <point x="185.849" y="636.272"/>
      <point x="119" y="536" type="curve" smooth="yes"/>
      <point x="61" y="449"/>
      <point x="27" y="380"/>
      <point x="27" y="276" type="curve" smooth="yes"/>
      <point x="27" y="117"/>
      <point x="156" y="-12"/>
    </contour>
    <contour>
      <point x="317" y="40" type="curve" smooth="yes"/>
      <point x="184.584" y="40"/>
      <point x="79.9922" y="143.598"/>
      <point x="79.9922" y="277.917" type="curve" smooth="yes"/>
      <point x="79.9922" y="406.088"/>
      <point x="179.685" y="515"/>
      <point x="317" y="515" type="curve" smooth="yes"/>
      <point x="450.71" y="515"/>
      <point x="553.028" y="415.921"/>
      <point x="553.028" y="279.946" type="curve" smooth="yes"/>
      <point x="553.028" y="145.253"/>
      <point x="450.87" y="40"/>
    </contour>
  </outline>
</glyph>
<glyph name="sinU" format="1">
  <advance width="649" height="649"/>
  <unicode hex="0D8B"/>
  <outline>
    <contour>
      <point x="295.006" y="482" type="curve" smooth="yes"/>
      <point x="322.006" y="482"/>
      <point x="374.006" y="471"/>
      <point x="398.006" y="456" type="curve"/>
      <point x="390.006" y="467"/>
      <point x="384.006" y="490"/>
      <point x="384.006" y="502" type="curve" smooth="yes"/>
      <point x="384.006" y="533"/>
      <point x="407.006" y="549"/>
      <point x="438.006" y="549" type="curve" smooth="yes"/>
      <point x="472.006" y="549"/>
      <point x="496.006" y="528"/>
      <point x="543.006" y="528" type="curve" smooth="yes"/>
      <point x="561.006" y="528"/>
      <point x="570.006" y="515"/>
      <point x="570.006" y="501" type="curve" smooth="yes"/>
      <point x="570.006" y="487"/>
      <point x="561.006" y="473"/>
      <point x="540.006" y="473" type="curve" smooth="yes"/>
      <point x="507.006" y="473"/>
      <point x="482.006" y="495"/>
      <point x="457.006" y="495" type="curve" smooth="yes"/>
      <point x="445.006" y="495"/>
      <point x="440.006" y="490"/>
      <point x="440.006" y="483" type="curve" smooth="yes"/>
      <point x="440.006" y="472"/>
      <point x="451.532" y="456.398"/>
      <point x="459.006" y="451" type="curve" smooth="yes"/>
      <point x="477.006" y="438"/>
      <point x="504.006" y="430"/>
      <point x="531.006" y="430" type="curve" smooth="yes"/>
      <point x="551.006" y="430"/>
      <point x="568.006" y="439"/>
      <point x="576.006" y="423" type="curve" smooth="yes"/>
      <point x="586.507" y="402"/>
      <point x="567.907" y="382"/>
      <point x="524.006" y="382" type="curve" smooth="yes"/>
      <point x="424.006" y="382"/>
      <point x="402.006" y="431"/>
      <point x="295.006" y="431" type="curve" smooth="yes"/>
      <point x="153.871" y="431"/>
      <point x="83.9258" y="330.229"/>
      <point x="83.0322" y="164" type="curve" smooth="yes"/>
      <point x="82.0811" y="-37.7139"/>
      <point x="218.825" y="-189"/>
      <point x="428.006" y="-189" type="curve" smooth="yes"/>
      <point x="490.006" y="-189"/>
      <point x="545.077" y="-180.687"/>
      <point x="584.032" y="-169" type="curve" smooth="yes"/>
      <point x="604.032" y="-163"/>
      <point x="622.032" y="-172"/>
      <point x="622.032" y="-192" type="curve" smooth="yes"/>
      <point x="622.032" y="-205"/>
      <point x="611.164" y="-215.415"/>
      <point x="596.032" y="-220" type="curve" smooth="yes"/>
      <point x="563.032" y="-230"/>
      <point x="492.006" y="-242"/>
      <point x="428.006" y="-242" type="curve" smooth="yes"/>
      <point x="175.006" y="-242"/>
      <point x="29.0654" y="-48.4648"/>
      <point x="27.0322" y="164" type="curve" smooth="yes"/>
      <point x="24.9736" y="356.406"/>
      <point x="121.006" y="482"/>
    </contour>
  </outline>
</glyph>
<glyph name="sinvocalicRr" format="1">
  <advance width="1532" height="1532"/>
  <unicode hex="0D8E"/>
  <outline>
    <contour>
      <point x="408.479" y="103.24" type="curve"/>
      <point x="426.96" y="38.5596"/>
      <point x="507.479" y="-5"/>
      <point x="586.68" y="-5" type="curve" smooth="yes"/>
      <point x="694.92" y="-5"/>
      <point x="789.96" y="67.5996"/>
      <point x="789.96" y="206.2" type="curve" smooth="yes"/>
      <point x="789.96" y="308.78"/>
      <point x="728.96" y="417.52"/>
      <point x="623.64" y="417.52" type="curve" smooth="yes"/>
      <point x="611.76" y="417.52" type="line"/>
      <point x="623.64" y="429.4"/>
      <point x="628.92" y="447.88"/>
      <point x="628.92" y="466.36" type="curve" smooth="yes"/>
      <point x="628.92" y="482.2"/>
      <point x="626.28" y="498.04"/>
      <point x="619.68" y="511.24" type="curve" smooth="yes"/>
      <point x="615.72" y="519.16"/>
      <point x="611.76" y="525.76"/>
      <point x="595.92" y="525.76" type="curve" smooth="yes"/>
      <point x="582.72" y="525.76"/>
      <point x="573.479" y="516.52"/>
      <point x="573.479" y="505.96" type="curve" smooth="yes"/>
      <point x="573.479" y="503.32"/>
      <point x="573.704" y="502.101"/>
      <point x="574.8" y="499.36" type="curve" smooth="yes"/>
      <point x="580.08" y="486.16"/>
      <point x="581.4" y="475.6"/>
      <point x="581.4" y="466.36" type="curve" smooth="yes"/>
      <point x="581.4" y="447.88"/>
      <point x="572.159" y="436.001"/>
      <point x="561.6" y="429.4" type="curve" smooth="yes"/>
      <point x="551.04" y="422.8"/>
      <point x="531.058" y="417.072"/>
      <point x="510.12" y="412.24" type="curve" smooth="yes"/>
      <point x="489.603" y="407.506"/>
      <point x="481.786" y="396.514"/>
      <point x="485.04" y="380.24" type="curve" smooth="yes"/>
      <point x="487.688" y="367"/>
      <point x="499.695" y="361.94"/>
      <point x="515.4" y="364.08" type="curve" smooth="yes"/>
      <point x="544.44" y="368.04"/>
      <point x="555" y="376.6"/>
      <point x="595.92" y="376.6" type="curve" smooth="yes"/>
      <point x="685.68" y="376.6"/>
      <point x="742.44" y="301.627"/>
      <point x="742.44" y="206.2" type="curve" smooth="yes"/>
      <point x="742.44" y="101.92"/>
      <point x="669.84" y="42.5195"/>
      <point x="586.68" y="42.5195" type="curve" smooth="yes"/>
      <point x="487.68" y="42.5195"/>
      <point x="432.24" y="109.219"/>
      <point x="432.24" y="206.12" type="curve" smooth="yes"/>
      <point x="432.24" y="222.235"/>
      <point x="428.28" y="236.56"/>
      <point x="408.479" y="236.56" type="curve" smooth="yes"/>
      <point x="390" y="236.56"/>
      <point x="384.72" y="222.235"/>
      <point x="384.72" y="206.12" type="curve" smooth="yes"/>
      <point x="384.72" y="109.219"/>
      <point x="329.28" y="42.5195"/>
      <point x="230.28" y="42.5195" type="curve" smooth="yes"/>
      <point x="147.12" y="42.5195"/>
      <point x="74.5195" y="101.92"/>
      <point x="74.5195" y="206.2" type="curve" smooth="yes"/>
      <point x="74.5195" y="301.627"/>
      <point x="132.6" y="374.6"/>
      <point x="221.04" y="374.6" type="curve" smooth="yes"/>
      <point x="255.96" y="374.6"/>
      <point x="278.96" y="371"/>
      <point x="301.56" y="363.08" type="curve" smooth="yes"/>
      <point x="314.04" y="358.706"/>
      <point x="325.633" y="365.884"/>
      <point x="329.96" y="378" type="curve" smooth="yes"/>
      <point x="334.96" y="392"/>
      <point x="325.38" y="403.342"/>
      <point x="306.84" y="410.24" type="curve" smooth="yes"/>
      <point x="250.08" y="431.36"/>
      <point x="230.28" y="443.24"/>
      <point x="230.28" y="468.32" type="curve" smooth="yes"/>
      <point x="230.28" y="484.16"/>
      <point x="246.12" y="494.72"/>
      <point x="263.28" y="494.72" type="curve" smooth="yes"/>
      <point x="265.92" y="494.72"/>
      <point x="269.931" y="493.918"/>
      <point x="272.52" y="493.4" type="curve" smooth="yes"/>
      <point x="305.52" y="486.8"/>
      <point x="319.96" y="462.48"/>
      <point x="360.28" y="462.48" type="curve" smooth="yes"/>
      <point x="373.479" y="462.48"/>
      <point x="382.08" y="473.04"/>
      <point x="382.08" y="484.92" type="curve" smooth="yes"/>
      <point x="382.08" y="497.48"/>
      <point x="372.16" y="507.36"/>
      <point x="360.28" y="507.36" type="curve" smooth="yes"/>
      <point x="327.28" y="507.36"/>
      <point x="312.12" y="538.28"/>
      <point x="260.64" y="538.28" type="curve" smooth="yes"/>
      <point x="210.479" y="538.28"/>
      <point x="184.08" y="506.6"/>
      <point x="184.08" y="473.6" type="curve" smooth="yes"/>
      <point x="184.08" y="447.2"/>
      <point x="197.28" y="427.4"/>
      <point x="211.8" y="415.52" type="curve"/>
      <point x="198.6" y="415.52" type="line" smooth="yes"/>
      <point x="95.6396" y="415.52"/>
      <point x="27" y="321.257"/>
      <point x="27" y="206.2" type="curve" smooth="yes"/>
      <point x="27" y="67.5996"/>
      <point x="122.04" y="-5"/>
      <point x="230.28" y="-5" type="curve" smooth="yes"/>
      <point x="316.08" y="-5"/>
      <point x="386.04" y="39.8799"/>
    </contour>
    <component base="sinMatraRr" xOffset="772.96"/>
  </outline>
</glyph>
<glyph name="sinvocalicL" format="1">
  <advance width="961" height="961"/>
  <unicode hex="0D8F"/>
  <outline>
    <contour>
      <point x="27" y="235" type="curve" smooth="yes"/>
      <point x="27" y="420.047"/>
      <point x="135.699" y="542.52"/>
      <point x="314.8" y="542.52" type="curve" smooth="yes"/>
      <point x="324.565" y="542.52"/>
      <point x="334.601" y="542.206"/>
      <point x="344.84" y="541" type="curve" smooth="yes"/>
      <point x="390.679" y="535.6"/>
      <point x="405.646" y="514"/>
      <point x="431.84" y="514" type="curve" smooth="yes"/>
      <point x="444.84" y="514"/>
      <point x="451.84" y="503"/>
      <point x="451.84" y="492" type="curve" smooth="yes"/>
      <point x="451.84" y="480"/>
      <point x="444.84" y="469"/>
      <point x="431.84" y="469" type="curve" smooth="yes"/>
      <point x="396.726" y="469"/>
      <point x="383.409" y="496"/>
      <point x="353.84" y="496" type="curve" smooth="yes"/>
      <point x="334.84" y="496"/>
      <point x="321.84" y="488"/>
      <point x="321.84" y="472" type="curve" smooth="yes"/>
      <point x="321.84" y="457"/>
      <point x="327.84" y="451"/>
      <point x="339.84" y="442" type="curve" smooth="yes"/>
      <point x="347.02" y="436.615"/>
      <point x="365.84" y="427"/>
      <point x="386.84" y="427" type="curve" smooth="yes"/>
      <point x="397.84" y="427"/>
      <point x="405.84" y="419.227"/>
      <point x="405.84" y="406" type="curve" smooth="yes"/>
      <point x="405.84" y="389.023"/>
      <point x="393.84" y="383"/>
      <point x="383.84" y="383" type="curve" smooth="yes"/>
      <point x="368.077" y="383"/>
      <point x="341.222" y="385"/>
      <point x="324.84" y="385" type="curve" smooth="yes"/>
      <point x="318.84" y="385" type="line" smooth="yes"/>
      <point x="251.84" y="385"/>
      <point x="218.84" y="315.152"/>
      <point x="218.84" y="232" type="curve" smooth="yes"/>
      <point x="218.84" y="105"/>
      <point x="331.84" y="38"/>
      <point x="479.84" y="38" type="curve" smooth="yes"/>
      <point x="627.84" y="38"/>
      <point x="740.84" y="105"/>
      <point x="740.84" y="232" type="curve" smooth="yes"/>
      <point x="740.84" y="315.938"/>
      <point x="706.84" y="385"/>
      <point x="640.84" y="385" type="curve" smooth="yes"/>
      <point x="634.84" y="385" type="line" smooth="yes"/>
      <point x="617.729" y="385"/>
      <point x="602.173" y="380"/>
      <point x="585.84" y="380" type="curve" smooth="yes"/>
      <point x="574.84" y="380"/>
      <point x="561.84" y="390"/>
      <point x="561.84" y="404" type="curve" smooth="yes"/>
      <point x="561.84" y="413"/>
      <point x="568.78" y="424.143"/>
      <point x="575.84" y="427" type="curve" smooth="yes"/>
      <point x="593.594" y="434.187"/>
      <point x="619.882" y="439.124"/>
      <point x="619.882" y="466.271" type="curve" smooth="yes"/>
      <point x="619.882" y="482.933"/>
      <point x="604.798" y="492.592"/>
      <point x="604.798" y="512.479" type="curve" smooth="yes"/>
      <point x="604.798" y="538.54"/>
      <point x="645.202" y="539.461"/>
      <point x="670.034" y="539.541" type="curve" smooth="yes"/>
      <point x="811.84" y="540"/>
      <point x="934.119" y="425.988"/>
      <point x="934.119" y="235" type="curve" smooth="yes"/>
      <point x="934.119" y="67.5186"/>
      <point x="825.531" y="-0.0947266"/>
      <point x="758.438" y="-0.0947266" type="curve" smooth="yes"/>
      <point x="746.946" y="-0.0947266"/>
      <point x="738.034" y="6.05957"/>
      <point x="736.84" y="18" type="curve" smooth="yes"/>
      <point x="735.84" y="28"/>
      <point x="741.674" y="38.9443"/>
      <point x="756.84" y="43" type="curve" smooth="yes"/>
      <point x="842.84" y="66"/>
      <point x="884.924" y="137.463"/>
      <point x="884.924" y="235" type="curve" smooth="yes"/>
      <point x="884.924" y="383.753"/>
      <point x="785.631" y="507.692"/>
      <point x="661.615" y="488.242" type="curve"/>
      <point x="667.585" y="475.016"/>
      <point x="666.08" y="471.237"/>
      <point x="666.08" y="458.695" type="curve" smooth="yes"/>
      <point x="666.08" y="444.32"/>
      <point x="658.328" y="432.054"/>
      <point x="651.84" y="427" type="curve"/>
      <point x="739.84" y="427"/>
      <point x="790.84" y="330.549"/>
      <point x="790.84" y="232" type="curve" smooth="yes"/>
      <point x="790.84" y="79"/>
      <point x="655.84" y="-12"/>
      <point x="479.84" y="-12" type="curve" smooth="yes"/>
      <point x="303.84" y="-12"/>
      <point x="168.84" y="79"/>
      <point x="168.84" y="232" type="curve" smooth="yes"/>
      <point x="168.84" y="331.326"/>
      <point x="205.84" y="402"/>
      <point x="300.84" y="426" type="curve"/>
      <point x="290.26" y="432.03"/>
      <point x="277.743" y="446.676"/>
      <point x="274.84" y="467" type="curve" smooth="yes"/>
      <point x="273.269" y="478"/>
      <point x="275.84" y="486"/>
      <point x="277.736" y="489.479" type="curve"/>
      <point x="274.173" y="489.825"/>
      <point x="273.535" y="490"/>
      <point x="269.84" y="490" type="curve" smooth="yes"/>
      <point x="183.84" y="490"/>
      <point x="76.8809" y="404.683"/>
      <point x="76.8809" y="235" type="curve" smooth="yes"/>
      <point x="76.8809" y="120.816"/>
      <point x="135.84" y="58"/>
      <point x="201.84" y="44" type="curve" smooth="yes"/>
      <point x="218.212" y="40.5273"/>
      <point x="221.981" y="28.2666"/>
      <point x="221.981" y="19.6934" type="curve" smooth="yes"/>
      <point x="221.981" y="7.6709"/>
      <point x="213.769" y="0"/>
      <point x="199.84" y="0" type="curve" smooth="yes"/>
      <point x="131.461" y="0"/>
      <point x="27" y="74.1377"/>
    </contour>
  </outline>
</glyph>
<glyph name="sinE" format="1">
  <advance width="687" height="687"/>
  <unicode hex="0D91"/>
  <outline>
    <contour>
      <point x="507" y="621.272" type="line"/>
      <point x="476.605" y="589.429"/>
      <point x="431.128" y="564"/>
      <point x="379" y="564" type="curve" smooth="yes"/>
      <point x="319.073" y="564"/>
      <point x="262" y="602.95"/>
      <point x="262" y="678" type="curve" smooth="yes"/>
      <point x="262" y="706"/>
      <point x="269.258" y="736"/>
      <point x="287" y="765" type="curve" smooth="yes"/>
      <point x="307.095" y="795.599"/>
      <point x="323.529" y="811.226"/>
      <point x="343.33" y="830" type="curve"/>
      <point x="373.574" y="794" type="line"/>
      <point x="339.139" y="768.987"/>
      <point x="306" y="726.934"/>
      <point x="306" y="678" type="curve" smooth="yes"/>
      <point x="306" y="628.102"/>
      <point x="341.15" y="605"/>
      <point x="380" y="605" type="curve" smooth="yes"/>
      <point x="417.942" y="605"/>
      <point x="455.646" y="628.91"/>
      <point x="477" y="657.211" type="curve"/>
    </contour>
    <contour>
      <point x="334" y="821" type="curve" smooth="yes"/>
      <point x="329.779" y="826.139"/>
      <point x="309.564" y="845.804"/>
      <point x="329" y="862" type="curve" smooth="yes"/>
      <point x="337.759" y="869.299"/>
      <point x="352.438" y="868.372"/>
      <point x="360" y="859" type="curve" smooth="yes"/>
      <point x="431" y="771"/>
      <point x="660" y="509"/>
      <point x="660" y="279" type="curve" smooth="yes"/>
      <point x="660" y="107.589"/>
      <point x="554" y="-12"/>
      <point x="366" y="-12" type="curve" smooth="yes"/>
      <point x="190" y="-12"/>
      <point x="79" y="67.1426"/>
      <point x="79" y="201" type="curve" smooth="yes"/>
      <point x="79" y="318.413"/>
      <point x="142.204" y="368.88"/>
      <point x="172" y="373" type="curve"/>
      <point x="159" y="376"/>
      <point x="148" y="375"/>
      <point x="137" y="375" type="curve" smooth="yes"/>
      <point x="103" y="375"/>
      <point x="83" y="368"/>
      <point x="63" y="363" type="curve" smooth="yes"/>
      <point x="59" y="362"/>
      <point x="56" y="362"/>
      <point x="53" y="362" type="curve" smooth="yes"/>
      <point x="36" y="362"/>
      <point x="27" y="375"/>
      <point x="27" y="388" type="curve" smooth="yes"/>
      <point x="27" y="417.638"/>
      <point x="75.4033" y="419"/>
      <point x="108" y="419" type="curve" smooth="yes"/>
      <point x="144" y="419"/>
      <point x="180" y="413"/>
      <point x="208" y="400" type="curve"/>
      <point x="196" y="415"/>
      <point x="191" y="430"/>
      <point x="191" y="445" type="curve" smooth="yes"/>
      <point x="191" y="476.403"/>
      <point x="214.637" y="504"/>
      <point x="256" y="504" type="curve" smooth="yes"/>
      <point x="306" y="504"/>
      <point x="324" y="469"/>
      <point x="347" y="469" type="curve" smooth="yes"/>
      <point x="359" y="469"/>
      <point x="367" y="457"/>
      <point x="366" y="447" type="curve" smooth="yes"/>
      <point x="364.706" y="434.064"/>
      <point x="357" y="427"/>
      <point x="341" y="427" type="curve" smooth="yes"/>
      <point x="307" y="427"/>
      <point x="297" y="459"/>
      <point x="268" y="459" type="curve" smooth="yes"/>
      <point x="250.581" y="459"/>
      <point x="238" y="451.08"/>
      <point x="238" y="437" type="curve" smooth="yes"/>
      <point x="238" y="415"/>
      <point x="262" y="398.999"/>
      <point x="302" y="384" type="curve" smooth="yes"/>
      <point x="315.92" y="378.78"/>
      <point x="323" y="371"/>
      <point x="323" y="359" type="curve" smooth="yes"/>
      <point x="323" y="343"/>
      <point x="312" y="339"/>
      <point x="299" y="339" type="curve" smooth="yes"/>
      <point x="276" y="339"/>
      <point x="258" y="346"/>
      <point x="237" y="346" type="curve" smooth="yes"/>
      <point x="230" y="346" type="line" smooth="yes"/>
      <point x="168.93" y="346"/>
      <point x="127" y="278.679"/>
      <point x="127" y="201" type="curve" smooth="yes"/>
      <point x="127" y="101.047"/>
      <point x="218" y="37"/>
      <point x="366" y="37" type="curve" smooth="yes"/>
      <point x="517" y="37"/>
      <point x="613" y="143.56"/>
      <point x="613" y="279" type="curve" smooth="yes"/>
      <point x="613" y="479"/>
      <point x="403" y="737"/>
    </contour>
  </outline>
</glyph>
<glyph name="sinEe" format="1">
  <advance width="756" height="756"/>
  <unicode hex="0D92"/>
  <outline>
    <contour>
      <point x="475.87" y="936" type="curve" smooth="yes"/>
      <point x="475.87" y="955.08"/>
      <point x="481.186" y="971.38"/>
      <point x="500.984" y="971.38" type="curve" smooth="yes"/>
      <point x="517.302" y="971.38"/>
      <point x="525" y="958.232"/>
      <point x="525" y="941" type="curve"/>
      <point x="533" y="935"/>
      <point x="541" y="933"/>
      <point x="551" y="933" type="curve" smooth="yes"/>
      <point x="592" y="933"/>
      <point x="612" y="957"/>
      <point x="649" y="957" type="curve" smooth="yes"/>
      <point x="685" y="957"/>
      <point x="729" y="929"/>
      <point x="729" y="866" type="curve" smooth="yes"/>
      <point x="729" y="788"/>
      <point x="676" y="725"/>
      <point x="604" y="725" type="curve" smooth="yes"/>
      <point x="569" y="725"/>
      <point x="543" y="737"/>
      <point x="522" y="752" type="curve"/>
      <point x="522" y="752"/>
      <point x="522" y="730.036"/>
      <point x="522" y="716" type="curve" smooth="yes"/>
      <point x="522" y="635.898"/>
      <point x="541.581" y="620.277"/>
      <point x="561" y="577" type="curve" smooth="yes"/>
      <point x="573.115" y="550"/>
      <point x="489.121" y="607"/>
      <point x="484" y="622" type="curve" smooth="yes"/>
      <point x="480.632" y="631.866"/>
      <point x="476" y="727.835"/>
      <point x="476" y="796" type="curve" smooth="yes"/>
      <point x="476" y="823.312"/>
      <point x="476" y="844.223"/>
      <point x="476" y="863" type="curve"/>
      <point x="475.935" y="888.623"/>
      <point x="475.87" y="910"/>
    </contour>
    <contour>
      <point x="635" y="909" type="curve" smooth="yes"/>
      <point x="602.79" y="909"/>
      <point x="587.296" y="888.562"/>
      <point x="555.219" y="888.562" type="curve" smooth="yes"/>
      <point x="540.875" y="888.562"/>
      <point x="530.75" y="892.5"/>
      <point x="524" y="897" type="curve"/>
      <point x="523" y="866"/>
      <point x="523" y="834"/>
      <point x="523" y="802" type="curve"/>
      <point x="538" y="787"/>
      <point x="563" y="771"/>
      <point x="598" y="771" type="curve" smooth="yes"/>
      <point x="648" y="771"/>
      <point x="678" y="809"/>
      <point x="678" y="859" type="curve" smooth="yes"/>
      <point x="678" y="898"/>
      <point x="657" y="909"/>
    </contour>
    <component base="sinE"/>
  </outline>
</glyph>
<glyph name="sinO" format="1">
  <advance width="769" height="769"/>
  <unicode hex="0D94"/>
  <outline>
    <contour>
      <point x="244" y="370" type="curve" smooth="yes"/>
      <point x="244" y="332"/>
      <point x="276" y="301"/>
      <point x="314" y="301" type="curve" smooth="yes"/>
      <point x="351" y="301"/>
      <point x="383" y="332"/>
      <point x="383" y="370" type="curve" smooth="yes"/>
      <point x="383" y="408"/>
      <point x="351" y="439"/>
      <point x="314" y="439" type="curve" smooth="yes"/>
      <point x="276" y="439"/>
      <point x="244" y="408"/>
    </contour>
    <contour>
      <point x="385" y="97" type="curve"/>
      <point x="367" y="42"/>
      <point x="311" y="-6"/>
      <point x="226" y="-6" type="curve" smooth="yes"/>
      <point x="114" y="-6"/>
      <point x="27" y="82"/>
      <point x="27" y="243" type="curve" smooth="yes"/>
      <point x="27" y="397"/>
      <point x="130" y="502"/>
      <point x="268" y="502" type="curve" smooth="yes"/>
      <point x="352" y="502"/>
      <point x="433" y="460"/>
      <point x="433" y="370" type="curve" smooth="yes"/>
      <point x="433" y="306"/>
      <point x="379" y="253"/>
      <point x="314" y="253" type="curve" smooth="yes"/>
      <point x="246" y="253"/>
      <point x="197" y="300"/>
      <point x="197" y="370" type="curve" smooth="yes"/>
      <point x="197" y="406"/>
      <point x="214" y="434"/>
      <point x="239" y="454" type="curve"/>
      <point x="142" y="446"/>
      <point x="75" y="344"/>
      <point x="75" y="243" type="curve" smooth="yes"/>
      <point x="75" y="121"/>
      <point x="133" y="42"/>
      <point x="226" y="42" type="curve" smooth="yes"/>
      <point x="306.767" y="42"/>
      <point x="357" y="107"/>
      <point x="357" y="191" type="curve" smooth="yes"/>
      <point x="357" y="209"/>
      <point x="366.692" y="221"/>
      <point x="385" y="221" type="curve" smooth="yes"/>
      <point x="402" y="221"/>
      <point x="412" y="208"/>
      <point x="412" y="191" type="curve" smooth="yes"/>
      <point x="412" y="108"/>
      <point x="456" y="42"/>
      <point x="540" y="42" type="curve" smooth="yes"/>
      <point x="634" y="42"/>
      <point x="693" y="122"/>
      <point x="693" y="274" type="curve" smooth="yes"/>
      <point x="693" y="535"/>
      <point x="512" y="740"/>
      <point x="253" y="740" type="curve" smooth="yes"/>
      <point x="193.548" y="740"/>
      <point x="106.229" y="730.688"/>
      <point x="61" y="718" type="curve" smooth="yes"/>
      <point x="44.3301" y="714.045"/>
      <point x="32.4756" y="726.454"/>
      <point x="31" y="739" type="curve" smooth="yes"/>
      <point x="29" y="756"/>
      <point x="39" y="765.604"/>
      <point x="56" y="770" type="curve" smooth="yes"/>
      <point x="100.85" y="781.598"/>
      <point x="182" y="790"/>
      <point x="253" y="790" type="curve" smooth="yes"/>
      <point x="530" y="790"/>
      <point x="742" y="582"/>
      <point x="742" y="271" type="curve" smooth="yes"/>
      <point x="742" y="102"/>
      <point x="661" y="-6"/>
      <point x="540" y="-6" type="curve" smooth="yes"/>
      <point x="454" y="-6"/>
      <point x="397" y="43"/>
    </contour>
  </outline>
</glyph>
<glyph name="sinOo" format="1">
  <advance width="769" height="769"/>
  <unicode hex="0D95"/>
  <outline>
    <contour>
      <point x="742" y="272" type="curve"/>
      <point x="742" y="103"/>
      <point x="661" y="-6"/>
      <point x="540" y="-6" type="curve" smooth="yes"/>
      <point x="454" y="-6"/>
      <point x="397" y="43"/>
      <point x="385" y="97" type="curve"/>
      <point x="367" y="42"/>
      <point x="311" y="-6"/>
      <point x="226" y="-6" type="curve" smooth="yes"/>
      <point x="114" y="-6"/>
      <point x="27" y="82"/>
      <point x="27" y="243" type="curve" smooth="yes"/>
      <point x="27" y="397"/>
      <point x="130" y="502"/>
      <point x="268" y="502" type="curve" smooth="yes"/>
      <point x="352" y="502"/>
      <point x="433" y="460"/>
      <point x="433" y="370" type="curve" smooth="yes"/>
      <point x="433" y="306"/>
      <point x="379" y="253"/>
      <point x="314" y="253" type="curve" smooth="yes"/>
      <point x="246" y="253"/>
      <point x="197" y="300"/>
      <point x="197" y="370" type="curve" smooth="yes"/>
      <point x="197" y="406"/>
      <point x="214" y="434"/>
      <point x="239" y="454" type="curve"/>
      <point x="142" y="446"/>
      <point x="75" y="344"/>
      <point x="75" y="243" type="curve" smooth="yes"/>
      <point x="75" y="121"/>
      <point x="133" y="42"/>
      <point x="226" y="42" type="curve" smooth="yes"/>
      <point x="306.767" y="42"/>
      <point x="357" y="107"/>
      <point x="357" y="191" type="curve" smooth="yes"/>
      <point x="357" y="209"/>
      <point x="366.692" y="221"/>
      <point x="385" y="221" type="curve" smooth="yes"/>
      <point x="402" y="221"/>
      <point x="412" y="208"/>
      <point x="412" y="191" type="curve" smooth="yes"/>
      <point x="412" y="108"/>
      <point x="456" y="42"/>
      <point x="540" y="42" type="curve" smooth="yes"/>
      <point x="634" y="42"/>
      <point x="693" y="120"/>
      <point x="693" y="272" type="curve"/>
      <point x="693" y="560.031"/>
      <point x="493.08" y="744"/>
      <point x="217" y="744" type="curve" smooth="yes"/>
      <point x="152" y="744" type="line" smooth="yes"/>
      <point x="129" y="744"/>
      <point x="96" y="736"/>
      <point x="75" y="736" type="curve" smooth="yes"/>
      <point x="59" y="736"/>
      <point x="50" y="747"/>
      <point x="50" y="759" type="curve" smooth="yes"/>
      <point x="50" y="770"/>
      <point x="57.0088" y="782.95"/>
      <point x="74" y="786" type="curve" smooth="yes"/>
      <point x="113" y="793"/>
      <point x="125" y="823"/>
      <point x="125" y="859" type="curve" smooth="yes"/>
      <point x="125" y="893"/>
      <point x="108" y="921"/>
      <point x="79" y="921" type="curve" smooth="yes"/>
      <point x="59" y="921"/>
      <point x="49" y="932"/>
      <point x="49" y="947" type="curve" smooth="yes"/>
      <point x="49" y="960"/>
      <point x="60" y="972"/>
      <point x="85" y="972" type="curve" smooth="yes"/>
      <point x="184" y="972" type="line" smooth="yes"/>
      <point x="317" y="972"/>
      <point x="487" y="899"/>
      <point x="530" y="698" type="curve"/>
      <point x="654.236" y="605.448"/>
      <point x="742" y="466.569"/>
    </contour>
    <contour>
      <point x="217" y="793" type="line" smooth="yes"/>
      <point x="299" y="793"/>
      <point x="393" y="769"/>
      <point x="474" y="730" type="curve"/>
      <point x="447" y="817"/>
      <point x="354" y="925"/>
      <point x="184" y="925" type="curve" smooth="yes"/>
      <point x="150" y="925" type="line"/>
      <point x="167" y="905"/>
      <point x="174" y="879"/>
      <point x="174" y="855" type="curve" smooth="yes"/>
      <point x="174" y="834"/>
      <point x="169" y="810"/>
      <point x="152" y="793" type="curve"/>
    </contour>
    <contour>
      <point x="244" y="370" type="curve" smooth="yes"/>
      <point x="244" y="332"/>
      <point x="276" y="301"/>
      <point x="314" y="301" type="curve" smooth="yes"/>
      <point x="351" y="301"/>
      <point x="383" y="332"/>
      <point x="383" y="370" type="curve" smooth="yes"/>
      <point x="383" y="408"/>
      <point x="351" y="439"/>
      <point x="314" y="439" type="curve" smooth="yes"/>
      <point x="276" y="439"/>
      <point x="244" y="408"/>
    </contour>
  </outline>
</glyph>
<glyph name="sinAu" format="1">
  <advance width="1190" height="1190"/>
  <unicode hex="0D96"/>
  <outline>
    <contour>
      <point x="384.12" y="376.2" type="move"/>
    </contour>
    <component base="sinO" xOffset="0.000291221"/>
    <component base="sinMatraL" xOffset="761"/>
  </outline>
</glyph>
<glyph name="sinKa" format="1">
  <advance width="893" height="893"/>
  <unicode hex="0D9A"/>
  <outline>
    <contour>
      <point x="601" y="23" type="curve" smooth="yes"/>
      <point x="601" y="41"/>
      <point x="613" y="49"/>
      <point x="627" y="49" type="curve" smooth="yes"/>
      <point x="637" y="49"/>
      <point x="648" y="47"/>
      <point x="659" y="47" type="curve" smooth="yes"/>
      <point x="735" y="47"/>
      <point x="816" y="113"/>
      <point x="816" y="220" type="curve" smooth="yes"/>
      <point x="816" y="364"/>
      <point x="712" y="489"/>
      <point x="531" y="489" type="curve" smooth="yes"/>
      <point x="450" y="489"/>
      <point x="379" y="470"/>
      <point x="317" y="440" type="curve"/>
      <point x="514.147" y="440"/>
      <point x="603" y="302.05"/>
      <point x="603" y="178" type="curve" smooth="yes"/>
      <point x="603" y="75"/>
      <point x="536" y="-8"/>
      <point x="445" y="-8" type="curve" smooth="yes"/>
      <point x="375" y="-8"/>
      <point x="334" y="23.0254"/>
      <point x="317" y="65" type="curve"/>
      <point x="304" y="23.0762"/>
      <point x="260" y="-7"/>
      <point x="198" y="-7" type="curve" smooth="yes"/>
      <point x="113" y="-7"/>
      <point x="49" y="55"/>
      <point x="27" y="204" type="curve"/>
      <point x="66" y="285"/>
      <point x="120.538" y="342.538"/>
      <point x="190" y="412" type="curve" smooth="yes"/>
      <point x="198" y="420"/>
      <point x="214" y="435"/>
      <point x="214" y="447" type="curve" smooth="yes"/>
      <point x="214" y="482"/>
      <point x="182" y="500"/>
      <point x="152" y="500" type="curve" smooth="yes"/>
      <point x="106" y="500"/>
      <point x="81" y="477"/>
      <point x="81" y="437" type="curve" smooth="yes"/>
      <point x="81" y="427"/>
      <point x="85" y="420"/>
      <point x="85" y="412" type="curve" smooth="yes"/>
      <point x="85" y="399"/>
      <point x="75" y="391"/>
      <point x="62" y="391" type="curve" smooth="yes"/>
      <point x="42" y="391"/>
      <point x="33" y="413"/>
      <point x="33" y="437" type="curve" smooth="yes"/>
      <point x="33" y="515"/>
      <point x="96" y="544"/>
      <point x="152" y="544" type="curve" smooth="yes"/>
      <point x="208" y="544"/>
      <point x="252" y="513"/>
      <point x="257" y="462" type="curve"/>
      <point x="334" y="508"/>
      <point x="425" y="537"/>
      <point x="531" y="537" type="curve" smooth="yes"/>
      <point x="740" y="537"/>
      <point x="866" y="396"/>
      <point x="866" y="220" type="curve" smooth="yes"/>
      <point x="866" y="63"/>
      <point x="752" y="-4"/>
      <point x="659" y="-4" type="curve" smooth="yes"/>
      <point x="633" y="-4"/>
      <point x="601" y="-1"/>
    </contour>
    <contour>
      <point x="161" y="318" type="curve" smooth="yes"/>
      <point x="127.205" y="281.948"/>
      <point x="98.5303" y="242.975"/>
      <point x="76" y="204" type="curve"/>
      <point x="78" y="127"/>
      <point x="123" y="39"/>
      <point x="198" y="39" type="curve" smooth="yes"/>
      <point x="264" y="39"/>
      <point x="293" y="87"/>
      <point x="293" y="140" type="curve" smooth="yes"/>
      <point x="293" y="157"/>
      <point x="296" y="178"/>
      <point x="316" y="178" type="curve" smooth="yes"/>
      <point x="338" y="178"/>
      <point x="341" y="157"/>
      <point x="341" y="140" type="curve" smooth="yes"/>
      <point x="341" y="90"/>
      <point x="375" y="40"/>
      <point x="445" y="40" type="curve" smooth="yes"/>
      <point x="510" y="40"/>
      <point x="553" y="110"/>
      <point x="553" y="178" type="curve" smooth="yes"/>
      <point x="553" y="285"/>
      <point x="458" y="397"/>
      <point x="324" y="397" type="curve" smooth="yes"/>
      <point x="273.618" y="397"/>
      <point x="219.485" y="380.39"/>
    </contour>
  </outline>
</glyph>
<glyph name="sinKha" format="1">
  <advance width="767" height="767"/>
  <unicode hex="0D9B"/>
  <outline>
    <contour>
      <point x="379" y="13" type="curve" smooth="yes"/>
      <point x="379" y="46"/>
      <point x="395" y="66"/>
      <point x="412" y="66" type="curve" smooth="yes"/>
      <point x="478" y="66"/>
      <point x="481" y="0"/>
      <point x="562" y="0" type="curve" smooth="yes"/>
      <point x="654" y="0"/>
      <point x="740" y="81"/>
      <point x="740" y="296" type="curve" smooth="yes"/>
      <point x="740" y="589"/>
      <point x="521" y="793"/>
      <point x="246" y="793" type="curve" smooth="yes"/>
      <point x="181" y="793"/>
      <point x="116" y="783"/>
      <point x="47" y="759" type="curve" smooth="yes"/>
      <point x="32" y="754"/>
      <point x="27" y="743"/>
      <point x="27" y="734" type="curve" smooth="yes"/>
      <point x="27" y="722"/>
      <point x="36" y="710"/>
      <point x="51" y="710" type="curve" smooth="yes"/>
      <point x="55" y="710"/>
      <point x="59" y="712"/>
      <point x="63" y="713" type="curve" smooth="yes"/>
      <point x="128" y="734"/>
      <point x="190" y="744"/>
      <point x="249" y="744" type="curve" smooth="yes"/>
      <point x="500" y="744"/>
      <point x="691" y="560"/>
      <point x="691" y="296" type="curve" smooth="yes"/>
      <point x="691" y="139"/>
      <point x="636" y="48"/>
      <point x="562" y="48" type="curve" smooth="yes"/>
      <point x="507" y="48"/>
      <point x="482" y="107"/>
      <point x="424" y="107" type="curve" smooth="yes"/>
      <point x="416" y="107"/>
      <point x="407" y="106"/>
      <point x="398" y="103" type="curve"/>
      <point x="410" y="169"/>
      <point x="461" y="214"/>
      <point x="461" y="326" type="curve" smooth="yes"/>
      <point x="461" y="425"/>
      <point x="370" y="496"/>
      <point x="267" y="496" type="curve" smooth="yes"/>
      <point x="136" y="496"/>
      <point x="40" y="386"/>
      <point x="40" y="226" type="curve" smooth="yes"/>
      <point x="40" y="152"/>
      <point x="50" y="0"/>
      <point x="191" y="0" type="curve" smooth="yes"/>
      <point x="266" y="0"/>
      <point x="296" y="57"/>
      <point x="296" y="119" type="curve" smooth="yes"/>
      <point x="296" y="190"/>
      <point x="246" y="242"/>
      <point x="191" y="242" type="curve" smooth="yes"/>
      <point x="142" y="242"/>
      <point x="98" y="203"/>
      <point x="86" y="182" type="curve"/>
      <point x="83" y="195"/>
      <point x="82" y="210"/>
      <point x="82" y="227" type="curve" smooth="yes"/>
      <point x="82" y="319"/>
      <point x="127" y="449"/>
      <point x="267" y="449" type="curve" smooth="yes"/>
      <point x="344" y="449"/>
      <point x="414" y="400"/>
      <point x="414" y="326" type="curve" smooth="yes"/>
      <point x="414" y="190"/>
      <point x="331" y="173"/>
      <point x="331" y="16" type="curve" smooth="yes"/>
      <point x="331" y="-2"/>
      <point x="344" y="-13"/>
      <point x="357" y="-13" type="curve" smooth="yes"/>
      <point x="369" y="-13"/>
      <point x="379" y="-5"/>
    </contour>
    <contour>
      <point x="112" y="119" type="curve" smooth="yes"/>
      <point x="112" y="159"/>
      <point x="143" y="189"/>
      <point x="181" y="189" type="curve" smooth="yes"/>
      <point x="219" y="189"/>
      <point x="251" y="159"/>
      <point x="251" y="119" type="curve" smooth="yes"/>
      <point x="251" y="81"/>
      <point x="219" y="49"/>
      <point x="181" y="49" type="curve" smooth="yes"/>
      <point x="143" y="49"/>
      <point x="112" y="81"/>
    </contour>
  </outline>
</glyph>
<glyph name="sinGa" format="1">
  <advance width="866" height="866"/>
  <unicode hex="0D9C"/>
  <outline>
    <contour>
      <point x="479" y="40" type="curve" smooth="yes"/>
      <point x="479" y="31"/>
      <point x="484" y="23"/>
      <point x="492" y="17" type="curve" smooth="yes"/>
      <point x="516" y="0"/>
      <point x="566" y="-3"/>
      <point x="593" y="-3" type="curve" smooth="yes"/>
      <point x="724.753" y="-3"/>
      <point x="822" y="124"/>
      <point x="822" y="264" type="curve" smooth="yes"/>
      <point x="822" y="455"/>
      <point x="706.236" y="532"/>
      <point x="579" y="532" type="curve" smooth="yes"/>
      <point x="431" y="532"/>
      <point x="331" y="378"/>
      <point x="316" y="298" type="curve" smooth="yes"/>
      <point x="312.862" y="281.262"/>
      <point x="325" y="253"/>
      <point x="343" y="253" type="curve" smooth="yes"/>
      <point x="353" y="253"/>
      <point x="361" y="254"/>
      <point x="370" y="254" type="curve" smooth="yes"/>
      <point x="421" y="254"/>
      <point x="441" y="220"/>
      <point x="441" y="169" type="curve" smooth="yes"/>
      <point x="441" y="105"/>
      <point x="367" y="43"/>
      <point x="275" y="43" type="curve" smooth="yes"/>
      <point x="152.32" y="43"/>
      <point x="59" y="125"/>
      <point x="59" y="267" type="curve" smooth="yes"/>
      <point x="59" y="401"/>
      <point x="180.117" y="481"/>
      <point x="257" y="481" type="curve" smooth="yes"/>
      <point x="296" y="481"/>
      <point x="317" y="475"/>
      <point x="329" y="472" type="curve" smooth="yes"/>
      <point x="341" y="469"/>
      <point x="354" y="473"/>
      <point x="358" y="489" type="curve" smooth="yes"/>
      <point x="361" y="500"/>
      <point x="355.058" y="513.188"/>
      <point x="339" y="518" type="curve" smooth="yes"/>
      <point x="323" y="522.795"/>
      <point x="306" y="529"/>
      <point x="257" y="529" type="curve" smooth="yes"/>
      <point x="147.551" y="529"/>
      <point x="11" y="431"/>
      <point x="11" y="267" type="curve" smooth="yes"/>
      <point x="11" y="93"/>
      <point x="134.685" y="-5"/>
      <point x="275" y="-5" type="curve" smooth="yes"/>
      <point x="419" y="-5"/>
      <point x="489" y="91"/>
      <point x="489" y="169" type="curve" smooth="yes"/>
      <point x="489" y="240"/>
      <point x="451" y="299"/>
      <point x="380" y="299" type="curve" smooth="yes"/>
      <point x="375" y="299"/>
      <point x="369" y="299"/>
      <point x="362" y="299" type="curve"/>
      <point x="385" y="356"/>
      <point x="461" y="484"/>
      <point x="579" y="484" type="curve" smooth="yes"/>
      <point x="688.622" y="484"/>
      <point x="774" y="407"/>
      <point x="774" y="264" type="curve" smooth="yes"/>
      <point x="774" y="136"/>
      <point x="691.439" y="45"/>
      <point x="593" y="45" type="curve" smooth="yes"/>
      <point x="567" y="45"/>
      <point x="539" y="48"/>
      <point x="516" y="57" type="curve" smooth="yes"/>
      <point x="511" y="59"/>
      <point x="506" y="60"/>
      <point x="501" y="60" type="curve" smooth="yes"/>
      <point x="489" y="60"/>
      <point x="479" y="54"/>
    </contour>
  </outline>
</glyph>
<glyph name="sinGha" format="1">
  <advance width="825" height="825"/>
  <unicode hex="0D9D"/>
  <outline>
    <contour>
      <point x="108" y="450" type="curve" smooth="yes"/>
      <point x="75" y="450"/>
      <point x="27" y="449"/>
      <point x="27" y="419" type="curve" smooth="yes"/>
      <point x="27" y="406"/>
      <point x="36" y="394"/>
      <point x="53" y="394" type="curve" smooth="yes"/>
      <point x="82.2166" y="394"/>
      <point x="97.2636" y="406"/>
      <point x="137" y="406" type="curve" smooth="yes"/>
      <point x="148" y="406"/>
      <point x="159" y="406"/>
      <point x="172" y="405" type="curve"/>
      <point x="124" y="405"/>
      <point x="34" y="336"/>
      <point x="34" y="207" type="curve" smooth="yes"/>
      <point x="34" y="68"/>
      <point x="130" y="-4"/>
      <point x="238" y="-4" type="curve" smooth="yes"/>
      <point x="337" y="-4"/>
      <point x="372" y="41"/>
      <point x="372" y="70" type="curve" smooth="yes"/>
      <point x="372" y="107"/>
      <point x="351" y="116"/>
      <point x="351" y="162" type="curve" smooth="yes"/>
      <point x="351" y="195"/>
      <point x="375" y="225"/>
      <point x="416" y="225" type="curve" smooth="yes"/>
      <point x="457" y="225"/>
      <point x="480" y="195"/>
      <point x="480" y="162" type="curve" smooth="yes"/>
      <point x="480" y="116"/>
      <point x="461" y="107"/>
      <point x="461" y="70" type="curve" smooth="yes"/>
      <point x="461" y="41"/>
      <point x="496" y="-4"/>
      <point x="595" y="-4" type="curve" smooth="yes"/>
      <point x="703" y="-4"/>
      <point x="798" y="68"/>
      <point x="798" y="207" type="curve" smooth="yes"/>
      <point x="798" y="305"/>
      <point x="735" y="417"/>
      <point x="632" y="417" type="curve" smooth="yes"/>
      <point x="620" y="417" type="line"/>
      <point x="632" y="429"/>
      <point x="637" y="447"/>
      <point x="637" y="465" type="curve" smooth="yes"/>
      <point x="637" y="490"/>
      <point x="632" y="525"/>
      <point x="604" y="525" type="curve" smooth="yes"/>
      <point x="587.05" y="525"/>
      <point x="577.693" y="511.798"/>
      <point x="583" y="498" type="curve" smooth="yes"/>
      <point x="588" y="485"/>
      <point x="589" y="474"/>
      <point x="589" y="465" type="curve" smooth="yes"/>
      <point x="589" y="426"/>
      <point x="553.699" y="419.4"/>
      <point x="518" y="411" type="curve" smooth="yes"/>
      <point x="501" y="407"/>
      <point x="492" y="397"/>
      <point x="492" y="385" type="curve" smooth="yes"/>
      <point x="492" y="367.162"/>
      <point x="502.954" y="360"/>
      <point x="518" y="360" type="curve" smooth="yes"/>
      <point x="549.888" y="360"/>
      <point x="561.483" y="376"/>
      <point x="604" y="376" type="curve" smooth="yes"/>
      <point x="692" y="376"/>
      <point x="750" y="297"/>
      <point x="750" y="207" type="curve" smooth="yes"/>
      <point x="750" y="103"/>
      <point x="678" y="44"/>
      <point x="595" y="44" type="curve" smooth="yes"/>
      <point x="554" y="44"/>
      <point x="509" y="55"/>
      <point x="509" y="77" type="curve" smooth="yes"/>
      <point x="509" y="98"/>
      <point x="527" y="114"/>
      <point x="527" y="162" type="curve" smooth="yes"/>
      <point x="527" y="227"/>
      <point x="475" y="272"/>
      <point x="416" y="272" type="curve" smooth="yes"/>
      <point x="357" y="272"/>
      <point x="304" y="227"/>
      <point x="304" y="162" type="curve" smooth="yes"/>
      <point x="304" y="114"/>
      <point x="324" y="98"/>
      <point x="324" y="77" type="curve" smooth="yes"/>
      <point x="324" y="55"/>
      <point x="279" y="44"/>
      <point x="238" y="44" type="curve" smooth="yes"/>
      <point x="155" y="44"/>
      <point x="81" y="103"/>
      <point x="81" y="207" type="curve" smooth="yes"/>
      <point x="81" y="297"/>
      <point x="139" y="376"/>
      <point x="229" y="376" type="curve" smooth="yes"/>
      <point x="274" y="376"/>
      <point x="283" y="360"/>
      <point x="317" y="360" type="curve" smooth="yes"/>
      <point x="330" y="360"/>
      <point x="341" y="369"/>
      <point x="341" y="385" type="curve" smooth="yes"/>
      <point x="341" y="396"/>
      <point x="332.251" y="404.644"/>
      <point x="315" y="411" type="curve" smooth="yes"/>
      <point x="258" y="432"/>
      <point x="238" y="444"/>
      <point x="238" y="469" type="curve" smooth="yes"/>
      <point x="238" y="485"/>
      <point x="253" y="496"/>
      <point x="271" y="496" type="curve" smooth="yes"/>
      <point x="310.377" y="496"/>
      <point x="321.512" y="453"/>
      <point x="370" y="453" type="curve" smooth="yes"/>
      <point x="383" y="453"/>
      <point x="389" y="464"/>
      <point x="389" y="476" type="curve" smooth="yes"/>
      <point x="389" y="487"/>
      <point x="382" y="498"/>
      <point x="370" y="498" type="curve" smooth="yes"/>
      <point x="337" y="498"/>
      <point x="320" y="539"/>
      <point x="269" y="539" type="curve" smooth="yes"/>
      <point x="219" y="539"/>
      <point x="192" y="508"/>
      <point x="192" y="475" type="curve" smooth="yes"/>
      <point x="192" y="459"/>
      <point x="197" y="444"/>
      <point x="208" y="431" type="curve"/>
      <point x="180" y="444"/>
      <point x="144" y="450"/>
    </contour>
  </outline>
</glyph>
<glyph name="sinNga" format="1">
  <advance width="798" height="798"/>
  <unicode hex="0D9E"/>
  <outline>
    <contour>
      <point x="267" y="357" type="curve" smooth="yes"/>
      <point x="244.344" y="357"/>
      <point x="224.002" y="367"/>
      <point x="202" y="367" type="curve" smooth="yes"/>
      <point x="195" y="367" type="line"/>
      <point x="125" y="363"/>
      <point x="77" y="303"/>
      <point x="77" y="227" type="curve" smooth="yes"/>
      <point x="77" y="109"/>
      <point x="144" y="42"/>
      <point x="220" y="42" type="curve" smooth="yes"/>
      <point x="311" y="42"/>
      <point x="362" y="115"/>
      <point x="362" y="221" type="curve" smooth="yes"/>
      <point x="362" y="233"/>
      <point x="366" y="244"/>
      <point x="387" y="244" type="curve" smooth="yes"/>
      <point x="406" y="244"/>
      <point x="411" y="233"/>
      <point x="411" y="221" type="curve" smooth="yes"/>
      <point x="411" y="115"/>
      <point x="462" y="42"/>
      <point x="552" y="42" type="curve" smooth="yes"/>
      <point x="661" y="42"/>
      <point x="720" y="133"/>
      <point x="720" y="302" type="curve" smooth="yes"/>
      <point x="720" y="574"/>
      <point x="485" y="755"/>
      <point x="232" y="755" type="curve" smooth="yes"/>
      <point x="177" y="755"/>
      <point x="119" y="745"/>
      <point x="64" y="726" type="curve" smooth="yes"/>
      <point x="60" y="725"/>
      <point x="56" y="725"/>
      <point x="52" y="725" type="curve" smooth="yes"/>
      <point x="37" y="725"/>
      <point x="27" y="736"/>
      <point x="27" y="748" type="curve" smooth="yes"/>
      <point x="27" y="759"/>
      <point x="33" y="768"/>
      <point x="48" y="774" type="curve" smooth="yes"/>
      <point x="107" y="795"/>
      <point x="169" y="805"/>
      <point x="230" y="805" type="curve" smooth="yes"/>
      <point x="508" y="805"/>
      <point x="771" y="605"/>
      <point x="771" y="302" type="curve" smooth="yes"/>
      <point x="771" y="112"/>
      <point x="698" y="-8"/>
      <point x="552" y="-8" type="curve" smooth="yes"/>
      <point x="479" y="-8"/>
      <point x="405" y="38"/>
      <point x="387" y="105" type="curve"/>
      <point x="366" y="39"/>
      <point x="300" y="-8"/>
      <point x="220" y="-8" type="curve" smooth="yes"/>
      <point x="118" y="-8"/>
      <point x="27" y="73"/>
      <point x="27" y="227" type="curve" smooth="yes"/>
      <point x="27" y="340"/>
      <point x="113" y="411"/>
      <point x="183" y="411" type="curve" smooth="yes"/>
      <point x="187" y="411" type="line"/>
      <point x="166" y="426"/>
      <point x="158" y="443"/>
      <point x="158" y="464" type="curve" smooth="yes"/>
      <point x="158" y="500"/>
      <point x="187" y="537"/>
      <point x="235" y="537" type="curve" smooth="yes"/>
      <point x="289" y="537"/>
      <point x="307" y="495"/>
      <point x="340" y="495" type="curve" smooth="yes"/>
      <point x="354" y="495"/>
      <point x="360" y="482"/>
      <point x="360" y="470" type="curve" smooth="yes"/>
      <point x="360" y="459"/>
      <point x="354" y="448"/>
      <point x="340" y="448" type="curve" smooth="yes"/>
      <point x="295" y="448"/>
      <point x="280" y="484"/>
      <point x="246" y="491" type="curve" smooth="yes"/>
      <point x="243" y="491"/>
      <point x="241" y="492"/>
      <point x="238" y="492" type="curve" smooth="yes"/>
      <point x="219" y="492"/>
      <point x="203" y="479"/>
      <point x="203" y="464" type="curve" smooth="yes"/>
      <point x="203" y="439"/>
      <point x="223" y="426"/>
      <point x="264" y="411" type="curve" smooth="yes"/>
      <point x="282" y="404"/>
      <point x="293" y="394"/>
      <point x="293" y="382" type="curve" smooth="yes"/>
      <point x="293" y="381"/>
      <point x="292" y="378"/>
      <point x="292" y="375" type="curve" smooth="yes"/>
      <point x="289" y="363"/>
      <point x="279" y="357"/>
    </contour>
  </outline>
</glyph>
<glyph name="sinNnga" format="1">
  <advance width="910" height="910"/>
  <unicode hex="0D9F"/>
  <outline>
    <contour>
      <point x="568" y="36" type="curve" smooth="yes"/>
      <point x="568" y="46"/>
      <point x="578" y="59"/>
      <point x="588" y="59" type="curve" smooth="yes"/>
      <point x="593" y="59"/>
      <point x="597" y="57"/>
      <point x="602" y="56" type="curve" smooth="yes"/>
      <point x="617" y="52"/>
      <point x="639" y="48"/>
      <point x="657" y="48" type="curve" smooth="yes"/>
      <point x="749" y="48"/>
      <point x="834" y="120"/>
      <point x="834" y="261" type="curve" smooth="yes"/>
      <point x="834" y="413"/>
      <point x="748" y="475"/>
      <point x="650" y="475" type="curve" smooth="yes"/>
      <point x="540" y="475"/>
      <point x="475" y="387"/>
      <point x="459" y="281" type="curve"/>
      <point x="464" y="281"/>
      <point x="471" y="282"/>
      <point x="476" y="282" type="curve" smooth="yes"/>
      <point x="535" y="282"/>
      <point x="567" y="230"/>
      <point x="567" y="161" type="curve" smooth="yes"/>
      <point x="567" y="87"/>
      <point x="511" y="0"/>
      <point x="367" y="0" type="curve" smooth="yes"/>
      <point x="250" y="0"/>
      <point x="134" y="71"/>
      <point x="134" y="261" type="curve" smooth="yes"/>
      <point x="134" y="362"/>
      <point x="177" y="442"/>
      <point x="241" y="486" type="curve"/>
      <point x="150" y="463"/>
      <point x="75" y="383"/>
      <point x="75" y="251" type="curve" smooth="yes"/>
      <point x="75" y="140"/>
      <point x="97" y="64"/>
      <point x="162" y="40" type="curve" smooth="yes"/>
      <point x="180.594" y="33.8018"/>
      <point x="188.211" y="-2.76758"/>
      <point x="155" y="0" type="curve" smooth="yes"/>
      <point x="94" y="4"/>
      <point x="27" y="74"/>
      <point x="27" y="251" type="curve" smooth="yes"/>
      <point x="27" y="474"/>
      <point x="197" y="581"/>
      <point x="398" y="519" type="curve" smooth="yes"/>
      <point x="416.675" y="514.998"/>
      <point x="452" y="509.882"/>
      <point x="452" y="486" type="curve" smooth="yes"/>
      <point x="452" y="475"/>
      <point x="441" y="462"/>
      <point x="432" y="462" type="curve" smooth="yes"/>
      <point x="426" y="462"/>
      <point x="420" y="464"/>
      <point x="416" y="466" type="curve" smooth="yes"/>
      <point x="403" y="472"/>
      <point x="379" y="475"/>
      <point x="360" y="475" type="curve" smooth="yes"/>
      <point x="268" y="475"/>
      <point x="183" y="402"/>
      <point x="183" y="261" type="curve" smooth="yes"/>
      <point x="183" y="109"/>
      <point x="269" y="48"/>
      <point x="367" y="48" type="curve" smooth="yes"/>
      <point x="469" y="48"/>
      <point x="520" y="110"/>
      <point x="520" y="161" type="curve" smooth="yes"/>
      <point x="520" y="214"/>
      <point x="501" y="239"/>
      <point x="459" y="239" type="curve" smooth="yes"/>
      <point x="452" y="239"/>
      <point x="444" y="236"/>
      <point x="435" y="236" type="curve" smooth="yes"/>
      <point x="427" y="236" type="line" smooth="yes"/>
      <point x="415" y="236"/>
      <point x="411" y="242"/>
      <point x="411" y="253" type="curve" smooth="yes"/>
      <point x="411" y="258"/>
      <point x="412" y="264"/>
      <point x="413" y="271" type="curve" smooth="yes"/>
      <point x="446" y="437"/>
      <point x="514" y="523"/>
      <point x="650" y="523" type="curve" smooth="yes"/>
      <point x="767" y="523"/>
      <point x="883" y="452"/>
      <point x="883" y="261" type="curve" smooth="yes"/>
      <point x="883" y="107"/>
      <point x="781" y="0"/>
      <point x="657" y="0" type="curve" smooth="yes"/>
      <point x="626.499" y="0"/>
      <point x="568" y="3.09668"/>
    </contour>
  </outline>
</glyph>
<glyph name="sinCa" format="1">
  <advance width="687" height="687"/>
  <unicode hex="0DA0"/>
  <outline>
    <contour>
      <point x="108" y="447" type="curve" smooth="yes"/>
      <point x="144" y="447"/>
      <point x="180" y="441"/>
      <point x="208" y="428" type="curve"/>
      <point x="196" y="443"/>
      <point x="191" y="458"/>
      <point x="191" y="473" type="curve" smooth="yes"/>
      <point x="191" y="506"/>
      <point x="217" y="535"/>
      <point x="265" y="535" type="curve" smooth="yes"/>
      <point x="320" y="535"/>
      <point x="336" y="496"/>
      <point x="369" y="496" type="curve" smooth="yes"/>
      <point x="382" y="496"/>
      <point x="389" y="484"/>
      <point x="389" y="472" type="curve" smooth="yes"/>
      <point x="389" y="461"/>
      <point x="382" y="451"/>
      <point x="369" y="451" type="curve" smooth="yes"/>
      <point x="325" y="451"/>
      <point x="312" y="484"/>
      <point x="279" y="492" type="curve" smooth="yes"/>
      <point x="276" y="492"/>
      <point x="275" y="493"/>
      <point x="272" y="493" type="curve" smooth="yes"/>
      <point x="254" y="493"/>
      <point x="239" y="481"/>
      <point x="239" y="465" type="curve" smooth="yes"/>
      <point x="239" y="443"/>
      <point x="257" y="430"/>
      <point x="297" y="415" type="curve" smooth="yes"/>
      <point x="314" y="408"/>
      <point x="324" y="399"/>
      <point x="324" y="387" type="curve" smooth="yes"/>
      <point x="324" y="386"/>
      <point x="323" y="384"/>
      <point x="323" y="381" type="curve" smooth="yes"/>
      <point x="320" y="369"/>
      <point x="311" y="364"/>
      <point x="299" y="364" type="curve" smooth="yes"/>
      <point x="291" y="364" type="line"/>
      <point x="273" y="368"/>
      <point x="255" y="373"/>
      <point x="237" y="373" type="curve" smooth="yes"/>
      <point x="231" y="373" type="line"/>
      <point x="164" y="369"/>
      <point x="117" y="309"/>
      <point x="117" y="234" type="curve" smooth="yes"/>
      <point x="117" y="115"/>
      <point x="208" y="39"/>
      <point x="356" y="39" type="curve" smooth="yes"/>
      <point x="529" y="39"/>
      <point x="611" y="199"/>
      <point x="611" y="336" type="curve" smooth="yes"/>
      <point x="611" y="595"/>
      <point x="420" y="733"/>
      <point x="215" y="733" type="curve" smooth="yes"/>
      <point x="171" y="733"/>
      <point x="128" y="726"/>
      <point x="84" y="713" type="curve" smooth="yes"/>
      <point x="81" y="713"/>
      <point x="78" y="712"/>
      <point x="74" y="712" type="curve" smooth="yes"/>
      <point x="58" y="712"/>
      <point x="48" y="724"/>
      <point x="48" y="736" type="curve" smooth="yes"/>
      <point x="48" y="745"/>
      <point x="53" y="755"/>
      <point x="68" y="760" type="curve" smooth="yes"/>
      <point x="117" y="777"/>
      <point x="166" y="785"/>
      <point x="215" y="785" type="curve" smooth="yes"/>
      <point x="443" y="785"/>
      <point x="660" y="609"/>
      <point x="660" y="336" type="curve" smooth="yes"/>
      <point x="660" y="163"/>
      <point x="562" y="-10"/>
      <point x="356" y="-10" type="curve" smooth="yes"/>
      <point x="180" y="-10"/>
      <point x="70" y="81"/>
      <point x="70" y="234" type="curve" smooth="yes"/>
      <point x="70" y="348"/>
      <point x="140" y="397"/>
      <point x="173" y="401" type="curve"/>
      <point x="160" y="404"/>
      <point x="148" y="403"/>
      <point x="137" y="403" type="curve" smooth="yes"/>
      <point x="103" y="403"/>
      <point x="83" y="396"/>
      <point x="63" y="391" type="curve" smooth="yes"/>
      <point x="59" y="391"/>
      <point x="57" y="390"/>
      <point x="54" y="390" type="curve" smooth="yes"/>
      <point x="37" y="390"/>
      <point x="27" y="403"/>
      <point x="27" y="416" type="curve" smooth="yes"/>
      <point x="27" y="446"/>
      <point x="75" y="447"/>
    </contour>
  </outline>
</glyph>
<glyph name="sinCha" format="1">
  <advance width="683" height="683"/>
  <unicode hex="0DA1"/>
  <outline>
    <contour>
      <point x="656" y="247" type="curve" smooth="yes"/>
      <point x="656" y="347"/>
      <point x="620" y="401.332"/>
      <point x="581" y="432" type="curve" smooth="yes"/>
      <point x="555" y="453"/>
      <point x="512" y="455"/>
      <point x="489" y="452" type="curve"/>
      <point x="525" y="467"/>
      <point x="541" y="489"/>
      <point x="541" y="510" type="curve" smooth="yes"/>
      <point x="541" y="593"/>
      <point x="364" y="643"/>
      <point x="364" y="721" type="curve" smooth="yes"/>
      <point x="364" y="780"/>
      <point x="434" y="815"/>
      <point x="538" y="815" type="curve" smooth="yes"/>
      <point x="559" y="815"/>
      <point x="569" y="828"/>
      <point x="569" y="843" type="curve" smooth="yes"/>
      <point x="569" y="858"/>
      <point x="558" y="869"/>
      <point x="538" y="869" type="curve" smooth="yes"/>
      <point x="403" y="869"/>
      <point x="314" y="817"/>
      <point x="314" y="722" type="curve" smooth="yes"/>
      <point x="314" y="620"/>
      <point x="495" y="565"/>
      <point x="495" y="510" type="curve" smooth="yes"/>
      <point x="495" y="489"/>
      <point x="468" y="472"/>
      <point x="434" y="461" type="curve" smooth="yes"/>
      <point x="386" y="445"/>
      <point x="342" y="419"/>
      <point x="342" y="352" type="curve" smooth="yes"/>
      <point x="342" y="289"/>
      <point x="392" y="249"/>
      <point x="455" y="249" type="curve" smooth="yes"/>
      <point x="516" y="249"/>
      <point x="559" y="290"/>
      <point x="559" y="347" type="curve" smooth="yes"/>
      <point x="559" y="369"/>
      <point x="552" y="395"/>
      <point x="528" y="411" type="curve"/>
      <point x="578" y="393.217"/>
      <point x="609" y="342"/>
      <point x="609" y="247" type="curve" smooth="yes"/>
      <point x="609" y="119"/>
      <point x="492" y="39"/>
      <point x="344" y="39" type="curve" smooth="yes"/>
      <point x="193" y="39"/>
      <point x="75" y="118"/>
      <point x="75" y="245" type="curve" smooth="yes"/>
      <point x="75" y="331"/>
      <point x="110" y="393"/>
      <point x="177" y="393" type="curve" smooth="yes"/>
      <point x="184" y="393" type="line" smooth="yes"/>
      <point x="202" y="393"/>
      <point x="221" y="393"/>
      <point x="238" y="385" type="curve" smooth="yes"/>
      <point x="241" y="384"/>
      <point x="243" y="383"/>
      <point x="246" y="383" type="curve" smooth="yes"/>
      <point x="259" y="383"/>
      <point x="270" y="390"/>
      <point x="272" y="402" type="curve" smooth="yes"/>
      <point x="274" y="416"/>
      <point x="267" y="427"/>
      <point x="243" y="435" type="curve" smooth="yes"/>
      <point x="203" y="450"/>
      <point x="185" y="462"/>
      <point x="185" y="486" type="curve" smooth="yes"/>
      <point x="185" y="502"/>
      <point x="200" y="513"/>
      <point x="218" y="513" type="curve" smooth="yes"/>
      <point x="221" y="513"/>
      <point x="223" y="512"/>
      <point x="226" y="511" type="curve" smooth="yes"/>
      <point x="259" y="504"/>
      <point x="262" y="480"/>
      <point x="306" y="480" type="curve" smooth="yes"/>
      <point x="321" y="480"/>
      <point x="326" y="491"/>
      <point x="326" y="503" type="curve" smooth="yes"/>
      <point x="326" y="514"/>
      <point x="319" y="525"/>
      <point x="306" y="525" type="curve" smooth="yes"/>
      <point x="274" y="525"/>
      <point x="266" y="556"/>
      <point x="215" y="556" type="curve" smooth="yes"/>
      <point x="169" y="556"/>
      <point x="142" y="520"/>
      <point x="142" y="486" type="curve" smooth="yes"/>
      <point x="142" y="466"/>
      <point x="149" y="450"/>
      <point x="169" y="435" type="curve"/>
      <point x="167" y="435" type="line" smooth="yes"/>
      <point x="77" y="435"/>
      <point x="27" y="346"/>
      <point x="27" y="245" type="curve" smooth="yes"/>
      <point x="27" y="92"/>
      <point x="165" y="-9"/>
      <point x="344" y="-9" type="curve" smooth="yes"/>
      <point x="520" y="-9"/>
      <point x="656" y="93"/>
    </contour>
    <contour>
      <point x="383" y="353" type="curve" smooth="yes"/>
      <point x="383" y="393"/>
      <point x="413" y="411"/>
      <point x="451" y="411" type="curve" smooth="yes"/>
      <point x="489" y="411"/>
      <point x="521" y="383"/>
      <point x="521" y="347" type="curve" smooth="yes"/>
      <point x="521" y="310"/>
      <point x="491" y="289"/>
      <point x="455" y="289" type="curve" smooth="yes"/>
      <point x="415" y="289"/>
      <point x="383" y="315"/>
    </contour>
  </outline>
</glyph>
<glyph name="sinJa" format="1">
  <advance width="673" height="673"/>
  <unicode hex="0DA2"/>
  <outline>
    <contour>
      <point x="646" y="234" type="curve" smooth="yes"/>
      <point x="650" y="335"/>
      <point x="600" y="420"/>
      <point x="508" y="434" type="curve"/>
      <point x="526" y="449"/>
      <point x="534" y="469"/>
      <point x="534" y="489" type="curve" smooth="yes"/>
      <point x="534" y="579"/>
      <point x="357" y="634"/>
      <point x="357" y="720" type="curve" smooth="yes"/>
      <point x="357" y="779"/>
      <point x="427" y="814"/>
      <point x="531" y="814" type="curve" smooth="yes"/>
      <point x="552" y="814"/>
      <point x="562" y="827"/>
      <point x="562" y="842" type="curve" smooth="yes"/>
      <point x="562" y="857"/>
      <point x="551" y="868"/>
      <point x="531" y="868" type="curve" smooth="yes"/>
      <point x="396" y="868"/>
      <point x="307" y="816"/>
      <point x="307" y="721" type="curve" smooth="yes"/>
      <point x="307" y="609"/>
      <point x="488" y="549"/>
      <point x="488" y="489" type="curve" smooth="yes"/>
      <point x="488" y="465"/>
      <point x="478" y="449"/>
      <point x="432" y="434" type="curve" smooth="yes"/>
      <point x="415" y="429"/>
      <point x="406" y="419"/>
      <point x="406" y="406" type="curve" smooth="yes"/>
      <point x="406" y="390"/>
      <point x="417" y="382"/>
      <point x="430" y="382" type="curve" smooth="yes"/>
      <point x="453" y="382"/>
      <point x="472" y="397"/>
      <point x="498" y="392" type="curve" smooth="yes"/>
      <point x="568" y="378"/>
      <point x="603" y="320"/>
      <point x="599" y="234" type="curve" smooth="yes"/>
      <point x="593" y="110"/>
      <point x="484" y="38"/>
      <point x="337" y="38" type="curve" smooth="yes"/>
      <point x="189" y="38"/>
      <point x="75" y="107"/>
      <point x="75" y="234" type="curve" smooth="yes"/>
      <point x="75" y="322"/>
      <point x="111" y="381"/>
      <point x="183" y="392" type="curve" smooth="yes"/>
      <point x="204" y="395"/>
      <point x="224" y="382"/>
      <point x="245" y="382" type="curve" smooth="yes"/>
      <point x="257" y="382"/>
      <point x="266" y="389"/>
      <point x="269" y="401" type="curve" smooth="yes"/>
      <point x="269" y="418"/>
      <point x="264" y="425"/>
      <point x="242" y="434" type="curve" smooth="yes"/>
      <point x="202" y="449"/>
      <point x="184" y="461"/>
      <point x="184" y="485" type="curve" smooth="yes"/>
      <point x="184" y="501"/>
      <point x="199" y="512"/>
      <point x="217" y="512" type="curve" smooth="yes"/>
      <point x="254.143" y="512"/>
      <point x="264.357" y="473"/>
      <point x="308" y="473" type="curve" smooth="yes"/>
      <point x="323" y="473"/>
      <point x="328" y="484"/>
      <point x="328" y="496" type="curve" smooth="yes"/>
      <point x="328" y="507"/>
      <point x="321" y="518"/>
      <point x="308" y="518" type="curve" smooth="yes"/>
      <point x="278.218" y="518"/>
      <point x="261.466" y="555"/>
      <point x="214" y="555" type="curve" smooth="yes"/>
      <point x="168" y="555"/>
      <point x="141" y="519"/>
      <point x="141" y="485" type="curve" smooth="yes"/>
      <point x="141" y="465"/>
      <point x="148" y="449"/>
      <point x="168" y="434" type="curve"/>
      <point x="69" y="418"/>
      <point x="27" y="337"/>
      <point x="27" y="234" type="curve" smooth="yes"/>
      <point x="27" y="81"/>
      <point x="161" y="-10"/>
      <point x="337" y="-10" type="curve" smooth="yes"/>
      <point x="512" y="-10"/>
      <point x="640" y="84"/>
    </contour>
  </outline>
</glyph>
<glyph name="sinJha" format="1">
  <advance width="1274" height="1274"/>
  <unicode hex="0DA3"/>
  <outline>
    <contour>
      <point x="303" y="86" type="curve"/>
      <point x="312" y="40"/>
      <point x="365" y="0"/>
      <point x="426" y="0" type="curve" smooth="yes"/>
      <point x="499" y="0"/>
      <point x="542" y="38"/>
      <point x="563" y="96" type="curve"/>
      <point x="597" y="33"/>
      <point x="656" y="0"/>
      <point x="719" y="0" type="curve" smooth="yes"/>
      <point x="796" y="0"/>
      <point x="859" y="45"/>
      <point x="877" y="108" type="curve"/>
      <point x="894" y="43"/>
      <point x="967" y="0"/>
      <point x="1037" y="0" type="curve" smooth="yes"/>
      <point x="1177" y="0"/>
      <point x="1247" y="115"/>
      <point x="1247" y="297" type="curve" smooth="yes"/>
      <point x="1247" y="593"/>
      <point x="995" y="788"/>
      <point x="728" y="788" type="curve" smooth="yes"/>
      <point x="670" y="788"/>
      <point x="610" y="782"/>
      <point x="553" y="759" type="curve" smooth="yes"/>
      <point x="540" y="754"/>
      <point x="533" y="745"/>
      <point x="533" y="734" type="curve" smooth="yes"/>
      <point x="533" y="722"/>
      <point x="543" y="711"/>
      <point x="558" y="711" type="curve" smooth="yes"/>
      <point x="562" y="711"/>
      <point x="565" y="711"/>
      <point x="570" y="713" type="curve" smooth="yes"/>
      <point x="623" y="731"/>
      <point x="677" y="741"/>
      <point x="731" y="741" type="curve" smooth="yes"/>
      <point x="974" y="741"/>
      <point x="1198" y="564"/>
      <point x="1198" y="297" type="curve" smooth="yes"/>
      <point x="1198" y="135"/>
      <point x="1141" y="48"/>
      <point x="1037" y="48" type="curve" smooth="yes"/>
      <point x="950" y="48"/>
      <point x="901" y="117"/>
      <point x="901" y="219" type="curve" smooth="yes"/>
      <point x="901" y="231"/>
      <point x="897" y="242"/>
      <point x="877" y="242" type="curve" smooth="yes"/>
      <point x="859" y="242"/>
      <point x="854" y="231"/>
      <point x="854" y="219" type="curve" smooth="yes"/>
      <point x="854" y="117"/>
      <point x="805" y="48"/>
      <point x="719" y="48" type="curve" smooth="yes"/>
      <point x="646" y="48"/>
      <point x="582" y="114"/>
      <point x="582" y="230" type="curve" smooth="yes"/>
      <point x="582" y="333"/>
      <point x="638" y="396"/>
      <point x="715" y="396" type="curve" smooth="yes"/>
      <point x="768" y="396"/>
      <point x="783" y="380"/>
      <point x="798" y="380" type="curve" smooth="yes"/>
      <point x="809" y="380"/>
      <point x="814" y="393"/>
      <point x="814" y="401" type="curve" smooth="yes"/>
      <point x="814" y="405"/>
      <point x="812" y="410"/>
      <point x="810" y="414" type="curve" smooth="yes"/>
      <point x="790" y="452"/>
      <point x="705" y="540"/>
      <point x="529" y="540" type="curve" smooth="yes"/>
      <point x="407" y="540"/>
      <point x="313" y="513"/>
      <point x="257" y="456" type="curve"/>
      <point x="257" y="518"/>
      <point x="205" y="549"/>
      <point x="141" y="544" type="curve" smooth="yes"/>
      <point x="74" y="539"/>
      <point x="30" y="498"/>
      <point x="30" y="445" type="curve" smooth="yes"/>
      <point x="30" y="412.473"/>
      <point x="47.085" y="367.724"/>
      <point x="79" y="389" type="curve" smooth="yes"/>
      <point x="90" y="396"/>
      <point x="88" y="410"/>
      <point x="84" y="418" type="curve" smooth="yes"/>
      <point x="64.2764" y="462.378"/>
      <point x="87.666" y="497.983"/>
      <point x="148" y="501" type="curve" smooth="yes"/>
      <point x="182" y="503"/>
      <point x="213" y="491"/>
      <point x="213" y="454" type="curve" smooth="yes"/>
      <point x="213" y="438"/>
      <point x="196" y="409"/>
      <point x="180" y="395" type="curve" smooth="yes"/>
      <point x="107" y="331"/>
      <point x="63" y="267"/>
      <point x="27" y="202" type="curve"/>
      <point x="34" y="94"/>
      <point x="119" y="0"/>
      <point x="191" y="0" type="curve" smooth="yes"/>
      <point x="253" y="0"/>
      <point x="294" y="40"/>
    </contour>
    <contour>
      <point x="82" y="202" type="curve"/>
      <point x="105" y="232"/>
      <point x="151" y="300"/>
      <point x="194" y="338" type="curve" smooth="yes"/>
      <point x="235" y="375"/>
      <point x="313" y="382"/>
      <point x="353" y="382" type="curve" smooth="yes"/>
      <point x="463" y="382"/>
      <point x="532" y="319"/>
      <point x="532" y="190" type="curve" smooth="yes"/>
      <point x="532" y="117"/>
      <point x="491" y="46"/>
      <point x="426" y="46" type="curve" smooth="yes"/>
      <point x="356" y="46"/>
      <point x="327" y="95"/>
      <point x="327" y="148" type="curve" smooth="yes"/>
      <point x="327" y="165"/>
      <point x="325" y="186"/>
      <point x="303" y="186" type="curve" smooth="yes"/>
      <point x="281" y="186"/>
      <point x="279" y="165"/>
      <point x="279" y="148" type="curve" smooth="yes"/>
      <point x="279" y="95"/>
      <point x="257" y="46"/>
      <point x="191" y="46" type="curve" smooth="yes"/>
      <point x="140" y="46"/>
      <point x="81" y="120"/>
    </contour>
    <contour>
      <point x="367" y="426" type="curve" smooth="yes"/>
      <point x="337" y="426"/>
      <point x="310" y="424"/>
      <point x="291" y="420" type="curve"/>
      <point x="346" y="477"/>
      <point x="404" y="492"/>
      <point x="529" y="492" type="curve" smooth="yes"/>
      <point x="604" y="492"/>
      <point x="715" y="444"/>
      <point x="715" y="444" type="curve"/>
      <point x="638" y="438"/>
      <point x="572" y="401"/>
      <point x="546" y="319" type="curve"/>
      <point x="509" y="381"/>
      <point x="446" y="426"/>
    </contour>
  </outline>
</glyph>
<glyph name="sinNya" format="1">
  <advance width="1184" height="1184"/>
  <unicode hex="0DA4"/>
  <outline>
    <contour>
      <point x="987.024" y="325" type="curve" smooth="yes"/>
      <point x="1005.02" y="307"/>
      <point x="1027.02" y="297"/>
      <point x="1049.02" y="297" type="curve" smooth="yes"/>
      <point x="1081.02" y="297"/>
      <point x="1108.02" y="315"/>
      <point x="1108.02" y="351" type="curve" smooth="yes"/>
      <point x="1108.02" y="473"/>
      <point x="928.024" y="515"/>
      <point x="796.024" y="515" type="curve" smooth="yes"/>
      <point x="700.024" y="515"/>
      <point x="555.024" y="505"/>
      <point x="418.024" y="404" type="curve"/>
      <point x="440.024" y="412"/>
      <point x="464.024" y="416"/>
      <point x="485.024" y="416" type="curve" smooth="yes"/>
      <point x="568.024" y="416"/>
      <point x="637.024" y="379"/>
      <point x="674.024" y="312" type="curve"/>
      <point x="698.024" y="365"/>
      <point x="749.024" y="407"/>
      <point x="830.024" y="407" type="curve" smooth="yes"/>
      <point x="914.024" y="407"/>
      <point x="953.521" y="358.504"/>
    </contour>
    <contour>
      <point x="206.024" y="202" type="curve"/>
      <point x="201.024" y="128"/>
      <point x="238.024" y="46"/>
      <point x="307.024" y="46" type="curve" smooth="yes"/>
      <point x="373.024" y="46"/>
      <point x="402.024" y="95"/>
      <point x="402.024" y="148" type="curve" smooth="yes"/>
      <point x="402.024" y="165"/>
      <point x="404.024" y="186"/>
      <point x="426.024" y="186" type="curve" smooth="yes"/>
      <point x="448.024" y="186"/>
      <point x="449.024" y="165"/>
      <point x="449.024" y="148" type="curve" smooth="yes"/>
      <point x="449.024" y="95"/>
      <point x="478.024" y="46"/>
      <point x="548.024" y="46" type="curve" smooth="yes"/>
      <point x="613.024" y="46"/>
      <point x="654.024" y="117"/>
      <point x="654.024" y="190" type="curve" smooth="yes"/>
      <point x="654.024" y="319"/>
      <point x="583.024" y="374"/>
      <point x="475.024" y="374" type="curve" smooth="yes"/>
      <point x="441.024" y="374"/>
      <point x="371.149" y="374.795"/>
      <point x="337.024" y="354" type="curve" smooth="yes"/>
      <point x="273.024" y="315"/>
      <point x="206.024" y="202"/>
    </contour>
    <contour>
      <point x="159.024" y="432" type="curve" smooth="yes"/>
      <point x="154.024" y="511"/>
      <point x="212.026" y="548.146"/>
      <point x="275.024" y="547" type="curve" smooth="yes"/>
      <point x="330.024" y="546"/>
      <point x="391.024" y="520"/>
      <point x="385.024" y="432" type="curve"/>
      <point x="510.024" y="538"/>
      <point x="695.024" y="560"/>
      <point x="796.024" y="560" type="curve" smooth="yes"/>
      <point x="964.024" y="560"/>
      <point x="1153.02" y="505"/>
      <point x="1153.02" y="351" type="curve" smooth="yes"/>
      <point x="1153.02" y="290"/>
      <point x="1107.02" y="251"/>
      <point x="1053.02" y="251" type="curve" smooth="yes"/>
      <point x="1019.02" y="251"/>
      <point x="980.178" y="266.137"/>
      <point x="948.024" y="302" type="curve" smooth="yes"/>
      <point x="922.024" y="331"/>
      <point x="881.024" y="359"/>
      <point x="830.024" y="359" type="curve" smooth="yes"/>
      <point x="739.024" y="359"/>
      <point x="706.024" y="284"/>
      <point x="706.024" y="236" type="curve" smooth="yes"/>
      <point x="706.024" y="120"/>
      <point x="780.024" y="48"/>
      <point x="915.024" y="48" type="curve" smooth="yes"/>
      <point x="1025.02" y="48"/>
      <point x="1072.52" y="96.4385"/>
      <point x="1105.02" y="133" type="curve" smooth="yes"/>
      <point x="1113.02" y="142"/>
      <point x="1127.88" y="142.701"/>
      <point x="1136.02" y="139" type="curve" smooth="yes"/>
      <point x="1147.02" y="134"/>
      <point x="1151.29" y="121.926"/>
      <point x="1145.02" y="100" type="curve" smooth="yes"/>
      <point x="1117.02" y="2"/>
      <point x="1085.06" y="-80.0039"/>
      <point x="1080.02" y="-134" type="curve" smooth="yes"/>
      <point x="1073.02" y="-209"/>
      <point x="1097.23" y="-244.547"/>
      <point x="1140.02" y="-264" type="curve" smooth="yes"/>
      <point x="1151.02" y="-269"/>
      <point x="1157.02" y="-278"/>
      <point x="1157.02" y="-289" type="curve" smooth="yes"/>
      <point x="1157.02" y="-304"/>
      <point x="1149.02" y="-318"/>
      <point x="1136.02" y="-318" type="curve" smooth="yes"/>
      <point x="1132.02" y="-318" type="line"/>
      <point x="1051.02" y="-280"/>
      <point x="1025.21" y="-229.012"/>
      <point x="1031.02" y="-134" type="curve" smooth="yes"/>
      <point x="1034.02" y="-85"/>
      <point x="1050.02" y="-26"/>
      <point x="1094.02" y="63" type="curve"/>
      <point x="1070.02" y="42"/>
      <point x="997.024" y="0"/>
      <point x="915.024" y="0" type="curve" smooth="yes"/>
      <point x="804.024" y="0"/>
      <point x="730.024" y="41"/>
      <point x="690.024" y="107" type="curve"/>
      <point x="672.024" y="44"/>
      <point x="625.024" y="0"/>
      <point x="548.024" y="0" type="curve" smooth="yes"/>
      <point x="487.024" y="0"/>
      <point x="435.024" y="40"/>
      <point x="426.024" y="86" type="curve"/>
      <point x="417.024" y="40"/>
      <point x="369.024" y="0"/>
      <point x="307.024" y="0" type="curve" smooth="yes"/>
      <point x="218.024" y="0"/>
      <point x="151.024" y="88"/>
      <point x="151.024" y="202" type="curve"/>
      <point x="151.024" y="202"/>
      <point x="179.024" y="252"/>
      <point x="214.024" y="300" type="curve"/>
      <point x="196.024" y="298"/>
      <point x="179.14" y="295.253"/>
      <point x="159.024" y="301" type="curve" smooth="yes"/>
      <point x="145.024" y="305"/>
      <point x="123.757" y="324.479"/>
      <point x="115.024" y="341" type="curve"/>
      <point x="91.3203" y="305.888"/>
      <point x="75.0244" y="257.457"/>
      <point x="75.0244" y="206" type="curve" smooth="yes"/>
      <point x="75.0244" y="125.149"/>
      <point x="91.96" y="63.1201"/>
      <point x="129.024" y="49" type="curve" smooth="yes"/>
      <point x="150.024" y="41"/>
      <point x="156.41" y="31.9297"/>
      <point x="154.024" y="20" type="curve" smooth="yes"/>
      <point x="151.024" y="5"/>
      <point x="137.02" y="0.97168"/>
      <point x="126.024" y="3" type="curve" smooth="yes"/>
      <point x="74.3721" y="12.5303"/>
      <point x="25.7578" y="61.1396"/>
      <point x="27.0244" y="206" type="curve" smooth="yes"/>
      <point x="27.9014" y="306.347"/>
      <point x="59.2578" y="376.528"/>
      <point x="109.024" y="418" type="curve" smooth="yes"/>
      <point x="115.024" y="423"/>
      <point x="125.718" y="428.473"/>
      <point x="134.024" y="424" type="curve" smooth="yes"/>
      <point x="158.326" y="410.914"/>
      <point x="145.024" y="394"/>
      <point x="142.024" y="379" type="curve" smooth="yes"/>
      <point x="139.895" y="368.35"/>
      <point x="157.75" y="345.037"/>
      <point x="180.024" y="342" type="curve" smooth="yes"/>
      <point x="202.024" y="339"/>
      <point x="233.024" y="341"/>
      <point x="251.024" y="346" type="curve"/>
      <point x="250.024" y="346"/>
      <point x="249.024" y="346"/>
      <point x="248.024" y="346" type="curve" smooth="yes"/>
      <point x="210.024" y="346"/>
      <point x="162.444" y="377.96"/>
    </contour>
    <contour>
      <point x="298.024" y="387" type="curve"/>
      <point x="317.024" y="402"/>
      <point x="336.024" y="420"/>
      <point x="336.024" y="448" type="curve" smooth="yes"/>
      <point x="336.024" y="478"/>
      <point x="317.045" y="503.369"/>
      <point x="265.024" y="502" type="curve" smooth="yes"/>
      <point x="194.087" y="500.133"/>
      <point x="180.9" y="400.547"/>
      <point x="252.024" y="387" type="curve" smooth="yes"/>
      <point x="273.024" y="383"/>
      <point x="287.024" y="384"/>
    </contour>
  </outline>
</glyph>
<glyph name="sinJnya" format="1">
  <advance width="1053" height="1053"/>
  <unicode hex="0DA5"/>
  <outline>
    <contour>
      <point x="485.006" y="414" type="curve" smooth="yes"/>
      <point x="557.006" y="502"/>
      <point x="613.006" y="529"/>
      <point x="744.006" y="529" type="curve" smooth="yes"/>
      <point x="917.006" y="529"/>
      <point x="1026.01" y="432"/>
      <point x="1026.01" y="317" type="curve" smooth="yes"/>
      <point x="1026.01" y="263"/>
      <point x="999.006" y="222"/>
      <point x="940.006" y="221" type="curve" smooth="yes"/>
      <point x="881.006" y="220"/>
      <point x="850.006" y="259"/>
      <point x="821.006" y="292" type="curve" smooth="yes"/>
      <point x="796.006" y="321"/>
      <point x="769.006" y="348"/>
      <point x="703.006" y="348" type="curve" smooth="yes"/>
      <point x="612.006" y="348"/>
      <point x="579.006" y="274"/>
      <point x="579.006" y="225" type="curve" smooth="yes"/>
      <point x="579.006" y="110"/>
      <point x="653.006" y="38"/>
      <point x="788.006" y="38" type="curve" smooth="yes"/>
      <point x="898.006" y="38"/>
      <point x="941.006" y="86"/>
      <point x="975.006" y="119" type="curve" smooth="yes"/>
      <point x="983.006" y="127"/>
      <point x="1000.01" y="130"/>
      <point x="1010.01" y="124" type="curve" smooth="yes"/>
      <point x="1020.01" y="118"/>
      <point x="1021.01" y="106"/>
      <point x="1018.01" y="90" type="curve" smooth="yes"/>
      <point x="996.006" y="-22"/>
      <point x="955.006" y="-84"/>
      <point x="947.006" y="-154" type="curve" smooth="yes"/>
      <point x="940.006" y="-214"/>
      <point x="972.006" y="-253"/>
      <point x="997.006" y="-263" type="curve" smooth="yes"/>
      <point x="1008.01" y="-267"/>
      <point x="1014.01" y="-277"/>
      <point x="1014.01" y="-289" type="curve" smooth="yes"/>
      <point x="1014.01" y="-304"/>
      <point x="1005.01" y="-317"/>
      <point x="992.006" y="-317" type="curve" smooth="yes"/>
      <point x="988.006" y="-317" type="line"/>
      <point x="947.006" y="-306"/>
      <point x="888.006" y="-245"/>
      <point x="898.006" y="-154" type="curve" smooth="yes"/>
      <point x="906.006" y="-78"/>
      <point x="930.006" y="-38"/>
      <point x="967.006" y="52" type="curve"/>
      <point x="943.006" y="32"/>
      <point x="870.006" y="-10"/>
      <point x="788.006" y="-10" type="curve" smooth="yes"/>
      <point x="678.006" y="-10"/>
      <point x="604.006" y="29"/>
      <point x="564.006" y="94" type="curve"/>
      <point x="538.006" y="44"/>
      <point x="481.006" y="2"/>
      <point x="381.006" y="2" type="curve" smooth="yes"/>
      <point x="264.006" y="2"/>
      <point x="148.006" y="75"/>
      <point x="148.006" y="265" type="curve" smooth="yes"/>
      <point x="148.006" y="353"/>
      <point x="172.006" y="427"/>
      <point x="245.006" y="481" type="curve"/>
      <point x="124.006" y="478"/>
      <point x="75.0059" y="353"/>
      <point x="75.0059" y="243" type="curve" smooth="yes"/>
      <point x="75.0059" y="139"/>
      <point x="103.006" y="64"/>
      <point x="154.006" y="46" type="curve" smooth="yes"/>
      <point x="172.006" y="40"/>
      <point x="179.006" y="33"/>
      <point x="178.006" y="22" type="curve" smooth="yes"/>
      <point x="177.006" y="6"/>
      <point x="171.006" y="0"/>
      <point x="151.006" y="2" type="curve" smooth="yes"/>
      <point x="92.0059" y="8"/>
      <point x="28.0059" y="66"/>
      <point x="27.0059" y="243" type="curve" smooth="yes"/>
      <point x="26.0059" y="431"/>
      <point x="152.006" y="535"/>
      <point x="273.006" y="535" type="curve" smooth="yes"/>
      <point x="394.006" y="535"/>
      <point x="440.006" y="516"/>
      <point x="470.006" y="501" type="curve" smooth="yes"/>
      <point x="476.006" y="498"/>
      <point x="489.006" y="483"/>
      <point x="480.006" y="468" type="curve" smooth="yes"/>
      <point x="473.006" y="457"/>
      <point x="465.006" y="454"/>
      <point x="449.006" y="461" type="curve" smooth="yes"/>
      <point x="421.006" y="473"/>
      <point x="396.006" y="480"/>
      <point x="368.006" y="480" type="curve" smooth="yes"/>
      <point x="279.006" y="480"/>
      <point x="197.006" y="405"/>
      <point x="197.006" y="265" type="curve" smooth="yes"/>
      <point x="197.006" y="113"/>
      <point x="283.006" y="50"/>
      <point x="381.006" y="50" type="curve" smooth="yes"/>
      <point x="483.006" y="50"/>
      <point x="534.006" y="112"/>
      <point x="534.006" y="163" type="curve" smooth="yes"/>
      <point x="534.006" y="216"/>
      <point x="515.006" y="241"/>
      <point x="473.006" y="241" type="curve" smooth="yes"/>
      <point x="466.006" y="241"/>
      <point x="458.006" y="238"/>
      <point x="449.006" y="238" type="curve" smooth="yes"/>
      <point x="441.006" y="238" type="line" smooth="yes"/>
      <point x="429.006" y="238"/>
      <point x="424.006" y="244"/>
      <point x="424.006" y="255" type="curve" smooth="yes"/>
      <point x="424.006" y="259"/>
      <point x="426.006" y="266"/>
      <point x="427.006" y="273" type="curve" smooth="yes"/>
      <point x="438.006" y="330"/>
      <point x="447.006" y="368"/>
    </contour>
    <contour>
      <point x="860.006" y="314" type="curve" smooth="yes"/>
      <point x="884.006" y="287"/>
      <point x="898.006" y="269"/>
      <point x="942.006" y="269" type="curve" smooth="yes"/>
      <point x="971.006" y="269"/>
      <point x="981.006" y="285"/>
      <point x="981.006" y="317" type="curve" smooth="yes"/>
      <point x="981.006" y="409"/>
      <point x="887.006" y="484"/>
      <point x="744.006" y="484" type="curve" smooth="yes"/>
      <point x="588.006" y="484"/>
      <point x="501.006" y="407"/>
      <point x="473.006" y="283" type="curve"/>
      <point x="478.006" y="283"/>
      <point x="485.006" y="284"/>
      <point x="490.006" y="284" type="curve" smooth="yes"/>
      <point x="507.006" y="284"/>
      <point x="523.006" y="279"/>
      <point x="536.006" y="270" type="curve"/>
      <point x="553.006" y="337"/>
      <point x="608.006" y="395"/>
      <point x="703.006" y="395" type="curve" smooth="yes"/>
      <point x="801.006" y="395"/>
      <point x="828.006" y="350"/>
    </contour>
  </outline>
</glyph>
<glyph name="sinNdja" format="1">
  <advance width="807" height="807"/>
  <unicode hex="0DA6"/>
  <outline>
    <contour>
      <point x="780.6" y="235.32" type="curve" smooth="yes"/>
      <point x="780.6" y="331.833"/>
      <point x="730.021" y="421.84"/>
      <point x="639.36" y="421.84" type="curve"/>
      <point x="659.16" y="436.36"/>
      <point x="667.08" y="457.48"/>
      <point x="667.08" y="477.28" type="curve" smooth="yes"/>
      <point x="667.08" y="576.084"/>
      <point x="490.2" y="627.449"/>
      <point x="490.2" y="721.12" type="curve" smooth="yes"/>
      <point x="490.2" y="780.52"/>
      <point x="560.16" y="814.84"/>
      <point x="664.44" y="814.84" type="curve" smooth="yes"/>
      <point x="685.56" y="814.84"/>
      <point x="693.479" y="828.04"/>
      <point x="693.479" y="842.56" type="curve" smooth="yes"/>
      <point x="693.479" y="857.08"/>
      <point x="684.24" y="868.96"/>
      <point x="663.12" y="868.96" type="curve" smooth="yes"/>
      <point x="529.8" y="868.96"/>
      <point x="440.04" y="817.48"/>
      <point x="440.04" y="722.44" type="curve" smooth="yes"/>
      <point x="440.04" y="600.521"/>
      <point x="620.88" y="542.73"/>
      <point x="620.88" y="477.28" type="curve" smooth="yes"/>
      <point x="620.88" y="453.52"/>
      <point x="611.727" y="436.082"/>
      <point x="565.44" y="421.84" type="curve" smooth="yes"/>
      <point x="545.891" y="415.824"/>
      <point x="535.329" y="405.539"/>
      <point x="539.04" y="388.84" type="curve" smooth="yes"/>
      <point x="542.538" y="373.097"/>
      <point x="554.925" y="369.249"/>
      <point x="570.72" y="371.68" type="curve" smooth="yes"/>
      <point x="590.359" y="374.702"/>
      <point x="609.27" y="379.6"/>
      <point x="631.44" y="379.6" type="curve" smooth="yes"/>
      <point x="698.76" y="379.6"/>
      <point x="733.08" y="314.396"/>
      <point x="733.08" y="235.32" type="curve" smooth="yes"/>
      <point x="733.08" y="108.6"/>
      <point x="618.24" y="38.6396"/>
      <point x="470.4" y="38.6396" type="curve" smooth="yes"/>
      <point x="322.56" y="38.6396"/>
      <point x="206.4" y="108.6"/>
      <point x="206.4" y="235.32" type="curve" smooth="yes"/>
      <point x="206.4" y="314.944"/>
      <point x="242.04" y="380.6"/>
      <point x="309.36" y="380.6" type="curve" smooth="yes"/>
      <point x="331.629" y="380.6"/>
      <point x="350.326" y="379.08"/>
      <point x="370.08" y="375.68" type="curve" smooth="yes"/>
      <point x="383.833" y="373"/>
      <point x="401.76" y="380.438"/>
      <point x="401.76" y="392.84" type="curve" smooth="yes"/>
      <point x="401.76" y="408.544"/>
      <point x="395.781" y="416.31"/>
      <point x="374.04" y="422.84" type="curve" smooth="yes"/>
      <point x="335.76" y="435.104"/>
      <point x="317.28" y="446.252"/>
      <point x="317.28" y="466.32" type="curve" smooth="yes"/>
      <point x="317.28" y="482.16"/>
      <point x="331.8" y="492.72"/>
      <point x="348.96" y="492.72" type="curve" smooth="yes"/>
      <point x="387.722" y="492.72"/>
      <point x="392.303" y="460.48"/>
      <point x="436.96" y="460.48" type="curve" smooth="yes"/>
      <point x="450.16" y="460.48"/>
      <point x="456.76" y="471.04"/>
      <point x="456.76" y="482.92" type="curve" smooth="yes"/>
      <point x="456.76" y="493.48"/>
      <point x="450.16" y="505.36"/>
      <point x="436.96" y="505.36" type="curve" smooth="yes"/>
      <point x="400.934" y="505.36"/>
      <point x="404.083" y="540"/>
      <point x="289.96" y="540" type="curve" smooth="yes"/>
      <point x="135.833" y="540"/>
      <point x="27" y="432"/>
      <point x="27" y="251.8" type="curve" smooth="yes"/>
      <point x="27" y="83.0303"/>
      <point x="106.275" y="3"/>
      <point x="179.08" y="3" type="curve" smooth="yes"/>
      <point x="203.96" y="3"/>
      <point x="207.104" y="15"/>
      <point x="207.96" y="21" type="curve" smooth="yes"/>
      <point x="208.674" y="26"/>
      <point x="206.96" y="42.6924"/>
      <point x="191.96" y="45" type="curve" smooth="yes"/>
      <point x="114.329" y="56.9434"/>
      <point x="74.5195" y="136.139"/>
      <point x="74.5195" y="251.8" type="curve" smooth="yes"/>
      <point x="74.5195" y="378"/>
      <point x="135.353" y="480.177"/>
      <point x="277.96" y="497" type="curve"/>
      <point x="269.96" y="490"/>
      <point x="265.96" y="481.038"/>
      <point x="265.96" y="468" type="curve" smooth="yes"/>
      <point x="265.96" y="445.913"/>
      <point x="289.56" y="429.568"/>
      <point x="300.12" y="422.84" type="curve"/>
      <point x="209.252" y="422.84"/>
      <point x="158.88" y="331.405"/>
      <point x="158.88" y="235.32" type="curve" smooth="yes"/>
      <point x="158.88" y="82.2002"/>
      <point x="294.84" y="-8.87988"/>
      <point x="470.4" y="-8.87988" type="curve" smooth="yes"/>
      <point x="645.96" y="-8.87988"/>
      <point x="780.6" y="82.2002"/>
    </contour>
  </outline>
</glyph>
<glyph name="sinTtha" format="1">
  <advance width="754" height="754"/>
  <unicode hex="0DA8"/>
  <outline>
    <contour>
      <point x="378" y="112" type="curve"/>
      <point x="394" y="42"/>
      <point x="464" y="-5"/>
      <point x="531" y="-5" type="curve" smooth="yes"/>
      <point x="661.667" y="-5"/>
      <point x="727" y="103"/>
      <point x="727" y="270" type="curve" smooth="yes"/>
      <point x="727" y="495"/>
      <point x="550.656" y="689"/>
      <point x="449" y="810" type="curve" smooth="yes"/>
      <point x="432" y="832"/>
      <point x="422" y="845"/>
      <point x="403" y="865" type="curve" smooth="yes"/>
      <point x="384" y="885"/>
      <point x="347" y="851"/>
      <point x="368" y="826" type="curve" smooth="yes"/>
      <point x="368" y="825"/>
      <point x="377" y="817"/>
      <point x="377" y="816" type="curve" smooth="yes"/>
      <point x="362" y="798"/>
      <point x="359" y="793"/>
      <point x="332" y="763" type="curve" smooth="yes"/>
      <point x="290" y="717"/>
      <point x="268" y="674"/>
      <point x="268" y="621" type="curve" smooth="yes"/>
      <point x="268" y="535"/>
      <point x="332" y="492"/>
      <point x="400" y="492" type="curve" smooth="yes"/>
      <point x="461" y="492"/>
      <point x="523" y="524"/>
      <point x="560" y="592" type="curve"/>
      <point x="600.558" y="537"/>
      <point x="674" y="430"/>
      <point x="674" y="270" type="curve" smooth="yes"/>
      <point x="674" y="123"/>
      <point x="624.541" y="46"/>
      <point x="531" y="46" type="curve" smooth="yes"/>
      <point x="450" y="46"/>
      <point x="404" y="122"/>
      <point x="404" y="232" type="curve" smooth="yes"/>
      <point x="404" y="245"/>
      <point x="399" y="256"/>
      <point x="378" y="256" type="curve" smooth="yes"/>
      <point x="358" y="256"/>
      <point x="352" y="245"/>
      <point x="352" y="232" type="curve" smooth="yes"/>
      <point x="352" y="122"/>
      <point x="305.2" y="46"/>
      <point x="222" y="46" type="curve" smooth="yes"/>
      <point x="156.297" y="46"/>
      <point x="79" y="110"/>
      <point x="79" y="223" type="curve" smooth="yes"/>
      <point x="79" y="351"/>
      <point x="148" y="430"/>
      <point x="227" y="430" type="curve" smooth="yes"/>
      <point x="284" y="430"/>
      <point x="301" y="413"/>
      <point x="317" y="413" type="curve" smooth="yes"/>
      <point x="328" y="413"/>
      <point x="334" y="427"/>
      <point x="334" y="436" type="curve" smooth="yes"/>
      <point x="334" y="462"/>
      <point x="294" y="481"/>
      <point x="227" y="481" type="curve" smooth="yes"/>
      <point x="126" y="481"/>
      <point x="27" y="392"/>
      <point x="27" y="223" type="curve" smooth="yes"/>
      <point x="27" y="74"/>
      <point x="124.5" y="-5"/>
      <point x="222" y="-5" type="curve" smooth="yes"/>
      <point x="297.417" y="-5"/>
      <point x="358.371" y="44"/>
    </contour>
    <contour>
      <point x="313" y="621" type="curve" smooth="yes"/>
      <point x="313" y="678"/>
      <point x="370" y="735"/>
      <point x="414" y="779" type="curve"/>
      <point x="444" y="744"/>
      <point x="497" y="684"/>
      <point x="526" y="635" type="curve"/>
      <point x="509" y="572"/>
      <point x="455" y="537"/>
      <point x="402" y="537" type="curve" smooth="yes"/>
      <point x="356" y="537"/>
      <point x="313" y="563"/>
    </contour>
  </outline>
</glyph>
<glyph name="sinDda" format="1">
  <advance width="739" height="739"/>
  <unicode hex="0DA9"/>
  <outline>
    <contour>
      <point x="108" y="439" type="curve" smooth="yes"/>
      <point x="73.8848" y="439"/>
      <point x="27" y="438.526"/>
      <point x="27" y="408" type="curve" smooth="yes"/>
      <point x="27" y="395"/>
      <point x="36" y="383"/>
      <point x="53" y="383" type="curve" smooth="yes"/>
      <point x="63" y="383" type="line"/>
      <point x="83" y="388"/>
      <point x="103" y="395"/>
      <point x="137" y="395" type="curve" smooth="yes"/>
      <point x="148" y="395"/>
      <point x="159" y="395"/>
      <point x="172" y="394" type="curve"/>
      <point x="124" y="394"/>
      <point x="34" y="335"/>
      <point x="34" y="206" type="curve" smooth="yes"/>
      <point x="34" y="67"/>
      <point x="120" y="-5"/>
      <point x="218" y="-5" type="curve" smooth="yes"/>
      <point x="294" y="-5"/>
      <point x="355" y="40"/>
      <point x="374" y="103" type="curve"/>
      <point x="390" y="38"/>
      <point x="457" y="-5"/>
      <point x="524" y="-5" type="curve" smooth="yes"/>
      <point x="651" y="-5"/>
      <point x="712" y="111"/>
      <point x="712" y="292" type="curve" smooth="yes"/>
      <point x="712" y="588"/>
      <point x="477" y="783"/>
      <point x="229" y="783" type="curve" smooth="yes"/>
      <point x="170" y="783"/>
      <point x="111" y="774"/>
      <point x="53" y="754" type="curve" smooth="yes"/>
      <point x="40" y="749"/>
      <point x="34" y="740"/>
      <point x="34" y="729" type="curve" smooth="yes"/>
      <point x="34" y="717"/>
      <point x="43" y="706"/>
      <point x="59" y="706" type="curve" smooth="yes"/>
      <point x="62" y="706"/>
      <point x="65" y="707"/>
      <point x="69" y="708" type="curve" smooth="yes"/>
      <point x="123" y="726"/>
      <point x="178" y="736"/>
      <point x="232" y="736" type="curve" smooth="yes"/>
      <point x="456" y="736"/>
      <point x="665" y="559"/>
      <point x="665" y="292" type="curve" smooth="yes"/>
      <point x="665" y="130"/>
      <point x="615" y="43"/>
      <point x="524" y="43" type="curve" smooth="yes"/>
      <point x="443" y="43"/>
      <point x="398" y="112"/>
      <point x="398" y="214" type="curve" smooth="yes"/>
      <point x="398" y="226"/>
      <point x="392" y="237"/>
      <point x="374" y="237" type="curve" smooth="yes"/>
      <point x="356" y="237"/>
      <point x="350" y="226"/>
      <point x="350" y="214" type="curve" smooth="yes"/>
      <point x="350" y="112"/>
      <point x="303" y="43"/>
      <point x="218" y="43" type="curve" smooth="yes"/>
      <point x="145" y="43"/>
      <point x="81" y="102"/>
      <point x="81" y="206" type="curve" smooth="yes"/>
      <point x="81" y="296"/>
      <point x="139" y="365"/>
      <point x="229" y="365" type="curve" smooth="yes"/>
      <point x="274.014" y="365"/>
      <point x="282.509" y="349"/>
      <point x="317" y="349" type="curve" smooth="yes"/>
      <point x="330.632" y="349"/>
      <point x="341" y="357.134"/>
      <point x="341" y="374" type="curve" smooth="yes"/>
      <point x="341" y="385"/>
      <point x="332" y="393"/>
      <point x="315" y="400" type="curve" smooth="yes"/>
      <point x="258" y="421"/>
      <point x="238" y="433"/>
      <point x="238" y="458" type="curve" smooth="yes"/>
      <point x="238" y="474"/>
      <point x="253" y="485"/>
      <point x="271" y="485" type="curve" smooth="yes"/>
      <point x="274" y="485"/>
      <point x="276" y="483"/>
      <point x="279" y="483" type="curve" smooth="yes"/>
      <point x="312" y="476"/>
      <point x="325" y="442"/>
      <point x="370" y="442" type="curve" smooth="yes"/>
      <point x="383" y="442"/>
      <point x="389" y="453"/>
      <point x="389" y="465" type="curve" smooth="yes"/>
      <point x="389" y="476"/>
      <point x="382" y="487"/>
      <point x="370" y="487" type="curve" smooth="yes"/>
      <point x="337" y="487"/>
      <point x="320" y="528"/>
      <point x="269" y="528" type="curve" smooth="yes"/>
      <point x="219" y="528"/>
      <point x="192" y="497"/>
      <point x="192" y="464" type="curve" smooth="yes"/>
      <point x="192" y="448"/>
      <point x="197" y="433"/>
      <point x="208" y="420" type="curve"/>
      <point x="180" y="433"/>
      <point x="144" y="439"/>
    </contour>
  </outline>
</glyph>
<glyph name="sinDdha" format="1">
  <advance width="751" height="751"/>
  <unicode hex="0DAA"/>
  <outline>
    <contour>
      <point x="360" y="235" type="curve" smooth="yes"/>
      <point x="360" y="247"/>
      <point x="367" y="257"/>
      <point x="386" y="257" type="curve" smooth="yes"/>
      <point x="406" y="257"/>
      <point x="409.918" y="245.993"/>
      <point x="411" y="233" type="curve" smooth="yes"/>
      <point x="419.492" y="131"/>
      <point x="451.339" y="46"/>
      <point x="549" y="46" type="curve" smooth="yes"/>
      <point x="633.239" y="46"/>
      <point x="674" y="110.582"/>
      <point x="674" y="227" type="curve" smooth="yes"/>
      <point x="674" y="378.782"/>
      <point x="587.986" y="535.591"/>
      <point x="530" y="615" type="curve"/>
      <point x="496.698" y="569"/>
      <point x="449.92" y="546"/>
      <point x="387" y="546" type="curve" smooth="yes"/>
      <point x="318.051" y="546"/>
      <point x="274" y="597.436"/>
      <point x="274" y="664" type="curve" smooth="yes"/>
      <point x="274" y="734.118"/>
      <point x="336.163" y="790.41"/>
      <point x="373" y="823" type="curve"/>
      <point x="370" y="826"/>
      <point x="364.89" y="835.938"/>
      <point x="365" y="844" type="curve" smooth="yes"/>
      <point x="365.122" y="852.931"/>
      <point x="373.372" y="864"/>
      <point x="387" y="864" type="curve" smooth="yes"/>
      <point x="394.187" y="864"/>
      <point x="401.075" y="865.918"/>
      <point x="414" y="849.572" type="curve" smooth="yes"/>
      <point x="527.518" y="706.006"/>
      <point x="724" y="479.372"/>
      <point x="724" y="227" type="curve" smooth="yes"/>
      <point x="724" y="82.0762"/>
      <point x="669" y="-4"/>
      <point x="549" y="-4" type="curve" smooth="yes"/>
      <point x="472.232" y="-4"/>
      <point x="404.929" y="43"/>
      <point x="386" y="113" type="curve"/>
      <point x="365" y="45"/>
      <point x="297" y="-4"/>
      <point x="213" y="-4" type="curve" smooth="yes"/>
      <point x="122" y="-4"/>
      <point x="39" y="65"/>
      <point x="39" y="199" type="curve" smooth="yes"/>
      <point x="39" y="327"/>
      <point x="135" y="384"/>
      <point x="184" y="384" type="curve"/>
      <point x="170" y="385"/>
      <point x="156" y="386"/>
      <point x="145" y="386" type="curve" smooth="yes"/>
      <point x="108" y="386"/>
      <point x="87" y="373"/>
      <point x="65" y="373" type="curve" smooth="yes"/>
      <point x="41" y="373"/>
      <point x="27" y="380"/>
      <point x="27" y="400" type="curve" smooth="yes"/>
      <point x="27" y="431"/>
      <point x="79" y="433"/>
      <point x="114" y="433" type="curve" smooth="yes"/>
      <point x="152" y="433"/>
      <point x="192" y="427"/>
      <point x="222" y="413" type="curve"/>
      <point x="211" y="427"/>
      <point x="205" y="443"/>
      <point x="205" y="460" type="curve" smooth="yes"/>
      <point x="205" y="496"/>
      <point x="234" y="530"/>
      <point x="288" y="530" type="curve" smooth="yes"/>
      <point x="338" y="530"/>
      <point x="355" y="488"/>
      <point x="387" y="488" type="curve" smooth="yes"/>
      <point x="400" y="488"/>
      <point x="408" y="477"/>
      <point x="408" y="464" type="curve" smooth="yes"/>
      <point x="408" y="453"/>
      <point x="401" y="441"/>
      <point x="387" y="441" type="curve" smooth="yes"/>
      <point x="341" y="441"/>
      <point x="330" y="483"/>
      <point x="291" y="483" type="curve" smooth="yes"/>
      <point x="271" y="483"/>
      <point x="255" y="471"/>
      <point x="255" y="454" type="curve" smooth="yes"/>
      <point x="255" y="427"/>
      <point x="276.827" y="413.537"/>
      <point x="338" y="391" type="curve" smooth="yes"/>
      <point x="357" y="384"/>
      <point x="364" y="372"/>
      <point x="364" y="361" type="curve" smooth="yes"/>
      <point x="364" y="346.343"/>
      <point x="352.097" y="337.636"/>
      <point x="338.852" y="337.636" type="curve" smooth="yes"/>
      <point x="334.927" y="337.636"/>
      <point x="330.84" y="338.294"/>
      <point x="327" y="340" type="curve" smooth="yes"/>
      <point x="298.726" y="352.566"/>
      <point x="292.65" y="355"/>
      <point x="245" y="355" type="curve" smooth="yes"/>
      <point x="151" y="355"/>
      <point x="91" y="286"/>
      <point x="91" y="199" type="curve" smooth="yes"/>
      <point x="91" y="102"/>
      <point x="149" y="47"/>
      <point x="213" y="47" type="curve" smooth="yes"/>
      <point x="301" y="47"/>
      <point x="361" y="116"/>
      <point x="361" y="214" type="curve" smooth="yes"/>
      <point x="361" y="221"/>
      <point x="360" y="228"/>
    </contour>
    <contour>
      <point x="321" y="664" type="curve" smooth="yes"/>
      <point x="321" y="621.598"/>
      <point x="355.395" y="593"/>
      <point x="387" y="593" type="curve" smooth="yes"/>
      <point x="439.728" y="593"/>
      <point x="478.296" y="617"/>
      <point x="503" y="653" type="curve"/>
      <point x="470.308" y="699.18"/>
      <point x="427.271" y="755.313"/>
      <point x="403" y="784" type="curve"/>
      <point x="367.541" y="752.064"/>
      <point x="321" y="721.097"/>
    </contour>
  </outline>
</glyph>
<glyph name="sinNna" format="1">
  <advance width="1094" height="1094"/>
  <unicode hex="0DAB"/>
  <outline>
    <contour>
      <point x="378" y="545" type="curve" smooth="yes"/>
      <point x="461" y="545"/>
      <point x="536" y="507"/>
      <point x="582" y="442" type="curve"/>
      <point x="613" y="500"/>
      <point x="644" y="539"/>
      <point x="713" y="539" type="curve" smooth="yes"/>
      <point x="768" y="539"/>
      <point x="805" y="502"/>
      <point x="813" y="446" type="curve"/>
      <point x="818" y="512"/>
      <point x="873" y="538"/>
      <point x="912" y="538" type="curve" smooth="yes"/>
      <point x="1001" y="538"/>
      <point x="1067" y="464"/>
      <point x="1067" y="292" type="curve" smooth="yes"/>
      <point x="1067" y="116"/>
      <point x="957" y="-5"/>
      <point x="805" y="-5" type="curve" smooth="yes"/>
      <point x="698" y="-5"/>
      <point x="634.202" y="56.041"/>
      <point x="630" y="76" type="curve" smooth="yes"/>
      <point x="626" y="95"/>
      <point x="636.003" y="105.059"/>
      <point x="654" y="104" type="curve" smooth="yes"/>
      <point x="671" y="103"/>
      <point x="712" y="43"/>
      <point x="805" y="43" type="curve" smooth="yes"/>
      <point x="907" y="43"/>
      <point x="1019" y="126"/>
      <point x="1019" y="298" type="curve" smooth="yes"/>
      <point x="1019" y="377"/>
      <point x="996" y="490"/>
      <point x="914" y="490" type="curve" smooth="yes"/>
      <point x="853.036" y="490"/>
      <point x="844" y="440"/>
      <point x="844" y="409" type="curve" smooth="yes"/>
      <point x="844" y="382.87"/>
      <point x="830" y="374"/>
      <point x="819" y="374" type="curve" smooth="yes"/>
      <point x="764" y="374"/>
      <point x="805" y="492"/>
      <point x="709" y="492" type="curve" smooth="yes"/>
      <point x="679" y="492"/>
      <point x="622" y="454"/>
      <point x="622" y="399" type="curve" smooth="yes"/>
      <point x="622" y="383"/>
      <point x="623" y="364"/>
      <point x="627" y="341" type="curve"/>
      <point x="626" y="343" type="line"/>
      <point x="630" y="323"/>
      <point x="632" y="303"/>
      <point x="632" y="281" type="curve" smooth="yes"/>
      <point x="632" y="91"/>
      <point x="504" y="-6"/>
      <point x="359" y="-6" type="curve" smooth="yes"/>
      <point x="222.427" y="-6"/>
      <point x="174" y="60"/>
      <point x="108" y="125" type="curve" smooth="yes"/>
      <point x="87.0195" y="145.662"/>
      <point x="69.6426" y="154.809"/>
      <point x="56" y="154.809" type="curve" smooth="yes"/>
      <point x="38.3477" y="154.809"/>
      <point x="27" y="162.573"/>
      <point x="27" y="185" type="curve" smooth="yes"/>
      <point x="27" y="200.318"/>
      <point x="38.0537" y="213"/>
      <point x="59.292" y="213" type="curve" smooth="yes"/>
      <point x="77" y="213"/>
      <point x="97.0068" y="233.802"/>
      <point x="102" y="258" type="curve" smooth="yes"/>
      <point x="154" y="510"/>
      <point x="334" y="683"/>
      <point x="594" y="907" type="curve" smooth="yes"/>
      <point x="608.248" y="919.275"/>
      <point x="629" y="922"/>
      <point x="637.26" y="911" type="curve" smooth="yes"/>
      <point x="645.772" y="899.662"/>
      <point x="643.79" y="882.936"/>
      <point x="632" y="873" type="curve" smooth="yes"/>
      <point x="365" y="648"/>
      <point x="188" y="462"/>
      <point x="147" y="237" type="curve" smooth="yes"/>
      <point x="141.716" y="208"/>
      <point x="121" y="187"/>
      <point x="101" y="186" type="curve"/>
      <point x="119.947" y="179.077"/>
      <point x="144.083" y="161.842"/>
      <point x="161" y="141" type="curve" smooth="yes"/>
      <point x="208.918" y="85.7637"/>
      <point x="253.219" y="43"/>
      <point x="359" y="43" type="curve" smooth="yes"/>
      <point x="477" y="43"/>
      <point x="584" y="126"/>
      <point x="584" y="281" type="curve" smooth="yes"/>
      <point x="584" y="395"/>
      <point x="495" y="496"/>
      <point x="378" y="496" type="curve" smooth="yes"/>
      <point x="281.577" y="496"/>
      <point x="211" y="437.006"/>
      <point x="211" y="356" type="curve" smooth="yes"/>
      <point x="211" y="292.589"/>
      <point x="246.32" y="241"/>
      <point x="315" y="241" type="curve" smooth="yes"/>
      <point x="368.716" y="241"/>
      <point x="390" y="271.938"/>
      <point x="390" y="307" type="curve" smooth="yes"/>
      <point x="390" y="318"/>
      <point x="384" y="329"/>
      <point x="379" y="330" type="curve"/>
      <point x="378" y="314"/>
      <point x="362" y="305"/>
      <point x="346" y="305" type="curve" smooth="yes"/>
      <point x="327" y="305"/>
      <point x="308" y="317"/>
      <point x="308" y="344" type="curve" smooth="yes"/>
      <point x="308" y="374"/>
      <point x="334" y="391"/>
      <point x="362" y="391" type="curve" smooth="yes"/>
      <point x="410" y="391"/>
      <point x="438" y="346"/>
      <point x="438" y="307" type="curve" smooth="yes"/>
      <point x="438" y="236.778"/>
      <point x="394.647" y="192"/>
      <point x="315" y="192" type="curve" smooth="yes"/>
      <point x="227.15" y="192"/>
      <point x="164.38" y="254.025"/>
      <point x="164.38" y="356" type="curve" smooth="yes"/>
      <point x="164.38" y="471.211"/>
      <point x="262.222" y="545"/>
    </contour>
  </outline>
</glyph>
<glyph name="sinNndda" format="1">
  <advance width="901" height="901"/>
  <unicode hex="0DAC"/>
  <outline>
    <contour>
      <point x="413" y="490" type="curve" smooth="yes"/>
      <point x="396" y="490"/>
      <point x="380" y="479"/>
      <point x="380" y="463" type="curve" smooth="yes"/>
      <point x="380" y="444.356"/>
      <point x="387.598" y="429.728"/>
      <point x="418" y="422.314" type="curve" smooth="yes"/>
      <point x="429.212" y="419.58"/>
      <point x="441.935" y="416.382"/>
      <point x="459" y="412" type="curve" smooth="yes"/>
      <point x="476.182" y="407.588"/>
      <point x="482.992" y="392.561"/>
      <point x="480" y="382" type="curve" smooth="yes"/>
      <point x="476" y="366"/>
      <point x="460.447" y="365.7"/>
      <point x="444" y="370" type="curve" smooth="yes"/>
      <point x="424.875" y="375"/>
      <point x="404.625" y="380"/>
      <point x="381" y="380" type="curve" smooth="yes"/>
      <point x="344" y="380" type="line" smooth="yes"/>
      <point x="271.395" y="380"/>
      <point x="224" y="307.717"/>
      <point x="224" y="211" type="curve" smooth="yes"/>
      <point x="224" y="107"/>
      <point x="288" y="48"/>
      <point x="361" y="48" type="curve" smooth="yes"/>
      <point x="447" y="48"/>
      <point x="496" y="117"/>
      <point x="496" y="219" type="curve" smooth="yes"/>
      <point x="496" y="231"/>
      <point x="502" y="242"/>
      <point x="520" y="242" type="curve" smooth="yes"/>
      <point x="540" y="242"/>
      <point x="544" y="231"/>
      <point x="544" y="219" type="curve" smooth="yes"/>
      <point x="544" y="117"/>
      <point x="591" y="48"/>
      <point x="676" y="48" type="curve" smooth="yes"/>
      <point x="783" y="48"/>
      <point x="826" y="135"/>
      <point x="826" y="297" type="curve" smooth="yes"/>
      <point x="826" y="564"/>
      <point x="606" y="741"/>
      <point x="363" y="741" type="curve" smooth="yes"/>
      <point x="309" y="741"/>
      <point x="255.076" y="729.761"/>
      <point x="202" y="713" type="curve" smooth="yes"/>
      <point x="183" y="707"/>
      <point x="166" y="717"/>
      <point x="166" y="732" type="curve" smooth="yes"/>
      <point x="166" y="744"/>
      <point x="172.944" y="754.136"/>
      <point x="185" y="759" type="curve" smooth="yes"/>
      <point x="242" y="782"/>
      <point x="303" y="788"/>
      <point x="361" y="788" type="curve" smooth="yes"/>
      <point x="626" y="788"/>
      <point x="874" y="593"/>
      <point x="874" y="297" type="curve" smooth="yes"/>
      <point x="874" y="116"/>
      <point x="819" y="0"/>
      <point x="676" y="0" type="curve" smooth="yes"/>
      <point x="608" y="0"/>
      <point x="537" y="43"/>
      <point x="520" y="108" type="curve"/>
      <point x="502" y="45"/>
      <point x="438" y="0"/>
      <point x="361" y="0" type="curve" smooth="yes"/>
      <point x="263" y="0"/>
      <point x="177" y="72"/>
      <point x="177" y="211" type="curve" smooth="yes"/>
      <point x="177" y="322"/>
      <point x="223" y="378"/>
      <point x="269" y="398" type="curve"/>
      <point x="256" y="398" type="line" smooth="yes"/>
      <point x="224" y="398"/>
      <point x="200.804" y="384.401"/>
      <point x="178" y="373" type="curve" smooth="yes"/>
      <point x="174" y="371"/>
      <point x="165" y="366"/>
      <point x="156" y="366" type="curve" smooth="yes"/>
      <point x="141" y="366"/>
      <point x="133" y="376"/>
      <point x="133" y="388" type="curve" smooth="yes"/>
      <point x="133" y="426"/>
      <point x="209" y="433"/>
      <point x="239" y="433" type="curve" smooth="yes"/>
      <point x="250" y="433"/>
      <point x="261" y="433"/>
      <point x="274" y="432" type="curve"/>
      <point x="249" y="444"/>
      <point x="212" y="486"/>
      <point x="167" y="486" type="curve" smooth="yes"/>
      <point x="112" y="486"/>
      <point x="74" y="368"/>
      <point x="74" y="251" type="curve" smooth="yes"/>
      <point x="74" y="159"/>
      <point x="85.2627" y="114.15"/>
      <point x="104" y="81" type="curve" smooth="yes"/>
      <point x="115.305" y="61"/>
      <point x="133.058" y="45.1611"/>
      <point x="150" y="39" type="curve" smooth="yes"/>
      <point x="161" y="35"/>
      <point x="170" y="30"/>
      <point x="170" y="17" type="curve" smooth="yes"/>
      <point x="170" y="4"/>
      <point x="159.565" y="0"/>
      <point x="146" y="0" type="curve" smooth="yes"/>
      <point x="92.4258" y="0"/>
      <point x="27" y="74"/>
      <point x="27" y="251" type="curve" smooth="yes"/>
      <point x="27" y="401"/>
      <point x="74" y="533"/>
      <point x="166" y="533" type="curve" smooth="yes"/>
      <point x="256.424" y="533"/>
      <point x="280" y="460"/>
      <point x="343" y="432" type="curve"/>
      <point x="336.812" y="442.932"/>
      <point x="334" y="455.546"/>
      <point x="334" y="469" type="curve" smooth="yes"/>
      <point x="334" y="502"/>
      <point x="360" y="533"/>
      <point x="410" y="533" type="curve" smooth="yes"/>
      <point x="461" y="533"/>
      <point x="479" y="503"/>
      <point x="512" y="503" type="curve" smooth="yes"/>
      <point x="525" y="503"/>
      <point x="532" y="492"/>
      <point x="532" y="481" type="curve" smooth="yes"/>
      <point x="532" y="469"/>
      <point x="525" y="458"/>
      <point x="512" y="458" type="curve" smooth="yes"/>
      <point x="463" y="458"/>
      <point x="455" y="490"/>
    </contour>
  </outline>
</glyph>
<glyph name="sinTa" format="1">
  <advance width="830" height="830"/>
  <unicode hex="0DAD"/>
  <outline>
    <contour>
      <point x="326" y="380" type="curve" smooth="yes"/>
      <point x="252" y="380"/>
      <point x="221" y="378"/>
      <point x="171" y="324" type="curve"/>
      <point x="163" y="337"/>
      <point x="138" y="332"/>
      <point x="129" y="350" type="curve"/>
      <point x="150" y="378"/>
      <point x="184" y="409"/>
      <point x="184" y="437" type="curve" smooth="yes"/>
      <point x="184" y="467"/>
      <point x="171" y="492"/>
      <point x="133" y="492" type="curve" smooth="yes"/>
      <point x="92" y="492"/>
      <point x="73" y="468"/>
      <point x="73" y="436" type="curve" smooth="yes"/>
      <point x="73" y="421"/>
      <point x="77" y="419.895"/>
      <point x="77" y="406" type="curve" smooth="yes"/>
      <point x="77" y="395.477"/>
      <point x="72.0039" y="391.412"/>
      <point x="63" y="389" type="curve" smooth="yes"/>
      <point x="43.0869" y="383.666"/>
      <point x="29" y="406.612"/>
      <point x="29" y="436" type="curve" smooth="yes"/>
      <point x="29" y="501"/>
      <point x="75" y="535"/>
      <point x="133" y="535" type="curve" smooth="yes"/>
      <point x="187" y="535"/>
      <point x="225.302" y="503"/>
      <point x="225.302" y="440" type="curve" smooth="yes"/>
      <point x="225.302" y="417"/>
      <point x="207" y="392"/>
      <point x="187" y="370" type="curve"/>
      <point x="215" y="396"/>
      <point x="258" y="423"/>
      <point x="326" y="423" type="curve" smooth="yes"/>
      <point x="430" y="423"/>
      <point x="524" y="335"/>
      <point x="524" y="208" type="curve" smooth="yes"/>
      <point x="524" y="84"/>
      <point x="436" y="-5"/>
      <point x="308" y="-5" type="curve" smooth="yes"/>
      <point x="130" y="-5"/>
      <point x="53" y="121"/>
      <point x="27" y="187" type="curve"/>
      <point x="88.9404" y="351.143"/>
      <point x="274.119" y="535"/>
      <point x="482" y="535" type="curve" smooth="yes"/>
      <point x="708" y="535"/>
      <point x="803" y="373"/>
      <point x="803" y="226" type="curve" smooth="yes"/>
      <point x="803" y="106"/>
      <point x="728" y="-5"/>
      <point x="605" y="-5" type="curve" smooth="yes"/>
      <point x="563" y="-5"/>
      <point x="529" y="1"/>
      <point x="492" y="28" type="curve" smooth="yes"/>
      <point x="485.691" y="32.6035"/>
      <point x="481" y="43"/>
      <point x="489" y="55" type="curve" smooth="yes"/>
      <point x="497.771" y="68.1562"/>
      <point x="511" y="67"/>
      <point x="520" y="62" type="curve" smooth="yes"/>
      <point x="543.095" y="49.1699"/>
      <point x="574" y="41"/>
      <point x="605" y="41" type="curve" smooth="yes"/>
      <point x="697" y="41"/>
      <point x="757" y="128"/>
      <point x="757" y="226" type="curve" smooth="yes"/>
      <point x="757" y="347"/>
      <point x="679" y="487"/>
      <point x="482" y="487" type="curve" smooth="yes"/>
      <point x="302.531" y="487"/>
      <point x="146.847" y="327.779"/>
      <point x="84" y="190" type="curve"/>
      <point x="100" y="131"/>
      <point x="172" y="43"/>
      <point x="308" y="43" type="curve" smooth="yes"/>
      <point x="406" y="43"/>
      <point x="478" y="109"/>
      <point x="478" y="208" type="curve" smooth="yes"/>
      <point x="478" y="314"/>
      <point x="417" y="380"/>
    </contour>
  </outline>
</glyph>
<glyph name="sinTha" format="1">
  <advance width="646" height="646"/>
  <unicode hex="0DAE"/>
  <outline>
    <contour>
      <point x="571" y="298" type="curve" smooth="yes"/>
      <point x="571" y="159"/>
      <point x="480" y="38"/>
      <point x="314" y="38" type="curve" smooth="yes"/>
      <point x="180.248" y="38"/>
      <point x="76" y="124"/>
      <point x="76" y="241" type="curve" smooth="yes"/>
      <point x="76" y="339"/>
      <point x="129.308" y="398"/>
      <point x="202" y="398" type="curve" smooth="yes"/>
      <point x="250" y="398"/>
      <point x="265" y="386"/>
      <point x="278" y="386" type="curve" smooth="yes"/>
      <point x="295" y="386"/>
      <point x="306" y="395"/>
      <point x="306" y="408" type="curve" smooth="yes"/>
      <point x="306" y="422"/>
      <point x="297" y="435"/>
      <point x="280" y="435" type="curve" smooth="yes"/>
      <point x="263" y="435"/>
      <point x="238" y="445"/>
      <point x="202" y="445" type="curve" smooth="yes"/>
      <point x="99.3467" y="445"/>
      <point x="27" y="375"/>
      <point x="27" y="241" type="curve" smooth="yes"/>
      <point x="27" y="128"/>
      <point x="119.708" y="-10"/>
      <point x="314" y="-10" type="curve" smooth="yes"/>
      <point x="509" y="-10"/>
      <point x="619" y="127"/>
      <point x="619" y="298" type="curve" smooth="yes"/>
      <point x="619" y="535"/>
      <point x="423" y="744"/>
      <point x="333" y="852" type="curve" smooth="yes"/>
      <point x="321.195" y="866.165"/>
      <point x="304" y="875"/>
      <point x="290" y="862" type="curve" smooth="yes"/>
      <point x="272" y="846"/>
      <point x="287.318" y="827.278"/>
      <point x="296" y="817" type="curve" smooth="yes"/>
      <point x="383" y="714"/>
      <point x="571" y="510"/>
    </contour>
    <contour>
      <point x="450" y="651" type="line"/>
      <point x="434" y="611"/>
      <point x="397" y="570"/>
      <point x="338" y="570" type="curve" smooth="yes"/>
      <point x="292" y="570"/>
      <point x="250" y="601.15"/>
      <point x="250" y="659" type="curve" smooth="yes"/>
      <point x="250" y="719"/>
      <point x="308" y="790.6"/>
      <point x="338" y="800" type="curve"/>
      <point x="298" y="835" type="line"/>
      <point x="271" y="811.216"/>
      <point x="202" y="752"/>
      <point x="202" y="659" type="curve" smooth="yes"/>
      <point x="202" y="563.643"/>
      <point x="272" y="524"/>
      <point x="338" y="524" type="curve" smooth="yes"/>
      <point x="400" y="524"/>
      <point x="452" y="557"/>
      <point x="482" y="613" type="curve"/>
    </contour>
  </outline>
</glyph>
<glyph name="sinDa" format="1">
  <advance width="562" height="562"/>
  <unicode hex="0DAF"/>
  <outline>
    <contour>
      <point x="341.287" y="-50.7227" type="curve" smooth="yes"/>
      <point x="134.307" y="-50.7227"/>
      <point x="27" y="84.5635"/>
      <point x="27" y="253" type="curve" smooth="yes"/>
      <point x="27" y="376"/>
      <point x="104.451" y="483"/>
      <point x="227" y="483" type="curve" smooth="yes"/>
      <point x="254" y="483"/>
      <point x="306" y="471"/>
      <point x="330" y="456" type="curve"/>
      <point x="322" y="467"/>
      <point x="316" y="490"/>
      <point x="316" y="502" type="curve" smooth="yes"/>
      <point x="316" y="533"/>
      <point x="339" y="549"/>
      <point x="370" y="549" type="curve" smooth="yes"/>
      <point x="404" y="549"/>
      <point x="428" y="528"/>
      <point x="475" y="528" type="curve" smooth="yes"/>
      <point x="493" y="528"/>
      <point x="502" y="515"/>
      <point x="502" y="501" type="curve" smooth="yes"/>
      <point x="502" y="487"/>
      <point x="493" y="473"/>
      <point x="472" y="473" type="curve" smooth="yes"/>
      <point x="439" y="473"/>
      <point x="414" y="495"/>
      <point x="389" y="495" type="curve" smooth="yes"/>
      <point x="377" y="495"/>
      <point x="372" y="490"/>
      <point x="372" y="483" type="curve" smooth="yes"/>
      <point x="372" y="472"/>
      <point x="383.526" y="456.398"/>
      <point x="391" y="451" type="curve" smooth="yes"/>
      <point x="409" y="438"/>
      <point x="436" y="430"/>
      <point x="463" y="430" type="curve" smooth="yes"/>
      <point x="473.267" y="430"/>
      <point x="482.009" y="431.524"/>
      <point x="489.125" y="431.524" type="curve" smooth="yes"/>
      <point x="500.383" y="431.524"/>
      <point x="509.292" y="424.325"/>
      <point x="509.292" y="410.75" type="curve" smooth="yes"/>
      <point x="509.292" y="395.884"/>
      <point x="494.216" y="382"/>
      <point x="456" y="382" type="curve" smooth="yes"/>
      <point x="356" y="382"/>
      <point x="334" y="431"/>
      <point x="227" y="431" type="curve" smooth="yes"/>
      <point x="122.779" y="431"/>
      <point x="77" y="331"/>
      <point x="77" y="246" type="curve" smooth="yes"/>
      <point x="77" y="103.367"/>
      <point x="182.409" y="-0.317383"/>
      <point x="340.718" y="-0.317383" type="curve" smooth="yes"/>
      <point x="413.172" y="-0.317383"/>
      <point x="461" y="22"/>
      <point x="486" y="40" type="curve" smooth="yes"/>
      <point x="492.274" y="44.5176"/>
      <point x="498.803" y="47.7822"/>
      <point x="506.131" y="47.7822" type="curve" smooth="yes"/>
      <point x="522.927" y="47.7822"/>
      <point x="535.375" y="38.1787"/>
      <point x="535.375" y="23.3281" type="curve" smooth="yes"/>
      <point x="535.375" y="18.5"/>
      <point x="534.832" y="12.96"/>
      <point x="532" y="8" type="curve" smooth="yes"/>
      <point x="491.258" y="-63.3506"/>
      <point x="464.728" y="-121.978"/>
      <point x="464.728" y="-167.883" type="curve" smooth="yes"/>
      <point x="464.728" y="-230"/>
      <point x="490.811" y="-253.608"/>
      <point x="522" y="-277" type="curve" smooth="yes"/>
      <point x="530.469" y="-283.352"/>
      <point x="533.998" y="-291.35"/>
      <point x="533.998" y="-298.947" type="curve" smooth="yes"/>
      <point x="533.998" y="-312.17"/>
      <point x="523.309" y="-324.179"/>
      <point x="509.37" y="-324.179" type="curve" smooth="yes"/>
      <point x="504.838" y="-324.179"/>
      <point x="500.023" y="-322.805"/>
      <point x="495" y="-320" type="curve" smooth="yes"/>
      <point x="452.046" y="-296.021"/>
      <point x="416.734" y="-248"/>
      <point x="416.734" y="-169.047" type="curve" smooth="yes"/>
      <point x="416.734" y="-119.997"/>
      <point x="439.069" y="-70.6182"/>
      <point x="463" y="-32" type="curve"/>
      <point x="446.328" y="-40.0107"/>
      <point x="406" y="-50.7227"/>
    </contour>
  </outline>
</glyph>
<glyph name="sinDha" format="1">
  <advance width="739" height="739"/>
  <unicode hex="0DB0"/>
  <outline>
    <contour>
      <point x="371.299" y="108" type="curve"/>
      <point x="388.299" y="43"/>
      <point x="453.299" y="0"/>
      <point x="523.299" y="0" type="curve" smooth="yes"/>
      <point x="645.966" y="0"/>
      <point x="712.299" y="116"/>
      <point x="712.299" y="297" type="curve" smooth="yes"/>
      <point x="712.299" y="593"/>
      <point x="484.01" y="788"/>
      <point x="227.299" y="788" type="curve" smooth="yes"/>
      <point x="169.299" y="788"/>
      <point x="110.578" y="781.187"/>
      <point x="53.2988" y="762" type="curve" smooth="yes"/>
      <point x="33.2988" y="755.301"/>
      <point x="23.2295" y="740.363"/>
      <point x="28.2988" y="726" type="curve" smooth="yes"/>
      <point x="34.2988" y="709"/>
      <point x="50.6533" y="706.184"/>
      <point x="68.2988" y="712" type="curve" smooth="yes"/>
      <point x="122.525" y="729.873"/>
      <point x="176.299" y="737"/>
      <point x="229.299" y="737" type="curve" smooth="yes"/>
      <point x="461.914" y="737"/>
      <point x="663.299" y="564"/>
      <point x="663.299" y="297" type="curve" smooth="yes"/>
      <point x="663.299" y="135"/>
      <point x="613.299" y="48"/>
      <point x="523.299" y="48" type="curve" smooth="yes"/>
      <point x="437.299" y="48"/>
      <point x="395.299" y="117"/>
      <point x="395.299" y="219" type="curve" smooth="yes"/>
      <point x="395.299" y="231"/>
      <point x="389.299" y="242"/>
      <point x="371.299" y="242" type="curve" smooth="yes"/>
      <point x="351.299" y="242"/>
      <point x="348.299" y="231"/>
      <point x="348.299" y="219" type="curve" smooth="yes"/>
      <point x="348.299" y="117"/>
      <point x="303.137" y="48"/>
      <point x="218.299" y="48" type="curve" smooth="yes"/>
      <point x="145.299" y="48"/>
      <point x="74.2988" y="120"/>
      <point x="74.2988" y="236" type="curve" smooth="yes"/>
      <point x="74.2988" y="339"/>
      <point x="137.299" y="396"/>
      <point x="214.299" y="396" type="curve" smooth="yes"/>
      <point x="252.299" y="396"/>
      <point x="274.299" y="381"/>
      <point x="298.299" y="381" type="curve" smooth="yes"/>
      <point x="311.299" y="381"/>
      <point x="323.299" y="388"/>
      <point x="323.299" y="404" type="curve" smooth="yes"/>
      <point x="323.299" y="421"/>
      <point x="312.299" y="426.109"/>
      <point x="299.299" y="426.109" type="curve" smooth="yes"/>
      <point x="278.299" y="426.109"/>
      <point x="250.48" y="444"/>
      <point x="214.299" y="444" type="curve" smooth="yes"/>
      <point x="111.299" y="444"/>
      <point x="27.2988" y="376"/>
      <point x="27.2988" y="236" type="curve" smooth="yes"/>
      <point x="27.2988" y="86"/>
      <point x="120.299" y="0"/>
      <point x="218.299" y="0" type="curve" smooth="yes"/>
      <point x="292.204" y="0"/>
      <point x="350.544" y="45"/>
    </contour>
  </outline>
</glyph>
<glyph name="sinNa" format="1">
  <advance width="882" height="882"/>
  <unicode hex="0DB1"/>
  <outline>
    <contour>
      <point x="114.939" y="380" type="curve" smooth="yes"/>
      <point x="114.939" y="366"/>
      <point x="106.939" y="357"/>
      <point x="93.9395" y="357" type="curve" smooth="yes"/>
      <point x="74.9395" y="357"/>
      <point x="56.9395" y="383"/>
      <point x="56.9395" y="418" type="curve" smooth="yes"/>
      <point x="56.9395" y="476"/>
      <point x="101.939" y="533"/>
      <point x="179.939" y="533" type="curve" smooth="yes"/>
      <point x="259.939" y="533"/>
      <point x="305.939" y="485"/>
      <point x="305.939" y="407" type="curve" smooth="yes"/>
      <point x="305.939" y="365"/>
      <point x="280.939" y="350"/>
      <point x="269.939" y="332" type="curve"/>
      <point x="283.939" y="345"/>
      <point x="332.939" y="379"/>
      <point x="359.939" y="379" type="curve" smooth="yes"/>
      <point x="452.939" y="379"/>
      <point x="526.939" y="317.789"/>
      <point x="526.939" y="190" type="curve" smooth="yes"/>
      <point x="526.939" y="54"/>
      <point x="412.141" y="-8"/>
      <point x="289.939" y="-8" type="curve" smooth="yes"/>
      <point x="160.835" y="-8"/>
      <point x="72.8115" y="88.4141"/>
      <point x="28.9395" y="202.175" type="curve" smooth="yes"/>
      <point x="22.0654" y="220"/>
      <point x="34.9033" y="232.427"/>
      <point x="44.9395" y="232.427" type="curve" smooth="yes"/>
      <point x="58.9395" y="232.427"/>
      <point x="70.0215" y="229"/>
      <point x="81.9395" y="229" type="curve" smooth="yes"/>
      <point x="240.939" y="229"/>
      <point x="309.939" y="535"/>
      <point x="558.939" y="535" type="curve" smooth="yes"/>
      <point x="735.939" y="535"/>
      <point x="855.939" y="432"/>
      <point x="855.939" y="227" type="curve" smooth="yes"/>
      <point x="855.939" y="88"/>
      <point x="760.939" y="-9.99902"/>
      <point x="654.939" y="-9" type="curve" smooth="yes"/>
      <point x="611.93" y="-8.59473"/>
      <point x="571.939" y="0"/>
      <point x="554.939" y="11" type="curve" smooth="yes"/>
      <point x="540.883" y="20.0957"/>
      <point x="537.552" y="38.123"/>
      <point x="542.939" y="48" type="curve" smooth="yes"/>
      <point x="548.939" y="59"/>
      <point x="568.403" y="60.9219"/>
      <point x="579.939" y="56" type="curve" smooth="yes"/>
      <point x="590.666" y="51.4238"/>
      <point x="617.939" y="41"/>
      <point x="654.939" y="41" type="curve" smooth="yes"/>
      <point x="731.939" y="41"/>
      <point x="805.939" y="120"/>
      <point x="805.939" y="227" type="curve" smooth="yes"/>
      <point x="805.939" y="378"/>
      <point x="728.986" y="485"/>
      <point x="558.939" y="485" type="curve" smooth="yes"/>
      <point x="332.939" y="485"/>
      <point x="266.939" y="184"/>
      <point x="87.9395" y="184" type="curve"/>
      <point x="112.939" y="116"/>
      <point x="200.939" y="42"/>
      <point x="289.939" y="42" type="curve" smooth="yes"/>
      <point x="396.939" y="42"/>
      <point x="476.939" y="104"/>
      <point x="476.939" y="190" type="curve" smooth="yes"/>
      <point x="476.939" y="284"/>
      <point x="422.939" y="330"/>
      <point x="359.939" y="330" type="curve" smooth="yes"/>
      <point x="320.939" y="330"/>
      <point x="275.939" y="302"/>
      <point x="239.939" y="268" type="curve"/>
      <point x="225.108" y="260.808"/>
      <point x="210.721" y="294.315"/>
      <point x="203.939" y="290" type="curve"/>
      <point x="247.939" y="344"/>
      <point x="254.939" y="369"/>
      <point x="254.939" y="407" type="curve" smooth="yes"/>
      <point x="254.939" y="457"/>
      <point x="215.939" y="487"/>
      <point x="179.939" y="487" type="curve" smooth="yes"/>
      <point x="130.761" y="487"/>
      <point x="105.939" y="446.555"/>
      <point x="105.939" y="418" type="curve" smooth="yes"/>
      <point x="105.939" y="402"/>
      <point x="114.939" y="395"/>
    </contour>
  </outline>
</glyph>
<glyph name="sinNda" format="1">
  <advance width="667" height="667"/>
  <unicode hex="0DB3"/>
  <outline>
    <contour>
      <point x="602" y="-320" type="curve" smooth="yes"/>
      <point x="631" y="-337"/>
      <point x="657" y="-298"/>
      <point x="629" y="-277" type="curve" smooth="yes"/>
      <point x="597" y="-253"/>
      <point x="576" y="-236"/>
      <point x="572" y="-167" type="curve" smooth="yes"/>
      <point x="569" y="-118"/>
      <point x="592" y="-54"/>
      <point x="626" y="25" type="curve" smooth="yes"/>
      <point x="629" y="32"/>
      <point x="629" y="39"/>
      <point x="629" y="45" type="curve" smooth="yes"/>
      <point x="628" y="62"/>
      <point x="597" y="72"/>
      <point x="580" y="57" type="curve" smooth="yes"/>
      <point x="553" y="32"/>
      <point x="487" y="10"/>
      <point x="390" y="17" type="curve" smooth="yes"/>
      <point x="273" y="25"/>
      <point x="201" y="100"/>
      <point x="196" y="246" type="curve" smooth="yes"/>
      <point x="193" y="331"/>
      <point x="243" y="468"/>
      <point x="366" y="468" type="curve" smooth="yes"/>
      <point x="450" y="468"/>
      <point x="485" y="397"/>
      <point x="576" y="388" type="curve" smooth="yes"/>
      <point x="603" y="385"/>
      <point x="633" y="392"/>
      <point x="625" y="415" type="curve" smooth="yes"/>
      <point x="620" y="430"/>
      <point x="604" y="428"/>
      <point x="587" y="431" type="curve" smooth="yes"/>
      <point x="562" y="435"/>
      <point x="520" y="456"/>
      <point x="527" y="484" type="curve" smooth="yes"/>
      <point x="529" y="492"/>
      <point x="536" y="499"/>
      <point x="551" y="495" type="curve" smooth="yes"/>
      <point x="583" y="487"/>
      <point x="592" y="475"/>
      <point x="613" y="475" type="curve" smooth="yes"/>
      <point x="621" y="475"/>
      <point x="634" y="483"/>
      <point x="634" y="496" type="curve" smooth="yes"/>
      <point x="634" y="512"/>
      <point x="627" y="520"/>
      <point x="612" y="526" type="curve" smooth="yes"/>
      <point x="591" y="534"/>
      <point x="563" y="543"/>
      <point x="540" y="543" type="curve" smooth="yes"/>
      <point x="512" y="543"/>
      <point x="489" y="535"/>
      <point x="482" y="514" type="curve" smooth="yes"/>
      <point x="476" y="496"/>
      <point x="478" y="481"/>
      <point x="486" y="468" type="curve"/>
      <point x="475" y="477"/>
      <point x="415" y="513"/>
      <point x="367" y="513" type="curve" smooth="yes"/>
      <point x="333" y="513"/>
      <point x="302" y="506"/>
      <point x="276" y="494" type="curve"/>
      <point x="249" y="507"/>
      <point x="213" y="517"/>
      <point x="173" y="509" type="curve" smooth="yes"/>
      <point x="57" y="486"/>
      <point x="27" y="389"/>
      <point x="27" y="251" type="curve" smooth="yes"/>
      <point x="27" y="74"/>
      <point x="94" y="0"/>
      <point x="155" y="0" type="curve" smooth="yes"/>
      <point x="164" y="0"/>
      <point x="173" y="7"/>
      <point x="173" y="18" type="curve" smooth="yes"/>
      <point x="173" y="29"/>
      <point x="164" y="38"/>
      <point x="153" y="43" type="curve" smooth="yes"/>
      <point x="112" y="64"/>
      <point x="75" y="142"/>
      <point x="75" y="251" type="curve" smooth="yes"/>
      <point x="75" y="353"/>
      <point x="95" y="438"/>
      <point x="194" y="460" type="curve" smooth="yes"/>
      <point x="201" y="462"/>
      <point x="214" y="463"/>
      <point x="227" y="462" type="curve"/>
      <point x="170" y="411"/>
      <point x="144" y="329"/>
      <point x="146" y="253" type="curve" smooth="yes"/>
      <point x="150" y="76"/>
      <point x="226" y="-22"/>
      <point x="390" y="-34" type="curve" smooth="yes"/>
      <point x="457" y="-39"/>
      <point x="545" y="-17"/>
      <point x="565" y="0" type="curve"/>
      <point x="544" y="-59"/>
      <point x="521" y="-108"/>
      <point x="524" y="-170" type="curve" smooth="yes"/>
      <point x="528" y="-260"/>
      <point x="560" y="-295"/>
    </contour>
  </outline>
</glyph>
